<?xml version="1.0" encoding="UTF-8"?>
<svg id="_圖層_1" data-name="圖層 1" xmlns="http://www.w3.org/2000/svg" xmlns:xlink="http://www.w3.org/1999/xlink" viewBox="0 0 186 138">
  <defs>
    <style>
      .cls-1 {
        fill: #fff;
      }

      .cls-2 {
        fill: #e8f4f8;
      }

      .cls-3 {
        fill: #0a557e;
      }

      .cls-4 {
        fill-rule: evenodd;
        stroke: #c2c48f;
        stroke-miterlimit: 10;
        stroke-width: 3px;
      }

      .cls-4, .cls-5 {
        fill: none;
      }

      .cls-6 {
        fill: #b2c9d6;
      }

      .cls-7 {
        fill: #b4cedb;
      }

      .cls-8 {
        fill: #cad9e2;
      }

      .cls-9 {
        clip-path: url(#clippath);
      }

      .cls-10 {
        fill: #b8dae8;
      }
    </style>
    <clipPath id="clippath">
      <rect class="cls-5" x="266" width="186" height="138"/>
    </clipPath>
  </defs>
  <g class="cls-9">
    <g>
      <polygon class="cls-7" points="180.98 16 291.5 16 236.24 -51.69 180.98 16"/>
      <path class="cls-6" d="M286.49,20.5h14.49L236.24-58.81,171.5,20.5h14.49V116.5h100.5v-21h7.5V43h-7.5V20.5Zm-105.51-4.5l55.26-67.69,55.26,67.69h-110.52Zm101.01,96h-91.5V20.5h91.5v22.5h-7.5v52.5h7.5v16.5Zm7.5-64.5v43.5h-10.5V47.5h10.5Z"/>
    </g>
  </g>
  <g>
    <rect class="cls-8" x="12.99" y="47.5" width="10.5" height="43.5"/>
    <polygon class="cls-7" points="0 112 15.99 112 15.99 95.5 8.49 95.5 8.49 43 15.99 43 15.99 20.5 0 20.5 0 112"/>
    <polygon class="cls-7" points="0 16 25.5 16 12.44 0 0 0 0 16"/>
    <path class="cls-6" d="M25.5,16H0v4.5H15.99v22.5h-7.5v52.5h7.5v16.5H0v4.5H20.49v-21h7.5V43h-7.5V20.5h14.49L18.25,0h-5.81l13.06,16Zm-2.01,31.5v43.5H12.99V47.5h10.5Z"/>
  </g>
  <g>
    <polygon class="cls-6" points="208.94 46.69 110.25 46.69 108.94 54.2 98.65 54.2 87.78 116.5 188.72 116.5 188.72 116.5 196.76 116.5 208.94 46.69"/>
    <polygon class="cls-2" points="127.42 93.11 130.1 77.59 159.96 77.59 157.27 93.11 127.42 93.11"/>
    <polygon class="cls-2" points="156.51 97.54 153.99 112.07 124.14 112.07 126.65 97.54 156.51 97.54"/>
    <polygon class="cls-2" points="122.92 93.11 96.36 93.11 99.07 77.59 125.61 77.59 122.92 93.11"/>
    <polygon class="cls-2" points="130.87 73.16 133.39 58.63 163.24 58.63 160.72 73.16 130.87 73.16"/>
    <polygon class="cls-2" points="164.46 77.59 191.01 77.59 188.31 93.11 161.77 93.11 164.46 77.59"/>
    <polygon class="cls-2" points="165.22 73.16 167.74 58.63 194.32 58.63 191.79 73.16 165.22 73.16"/>
    <polygon class="cls-2" points="128.89 58.63 126.37 73.16 99.84 73.16 102.38 58.63 128.89 58.63"/>
    <polygon class="cls-2" points="95.59 97.54 122.15 97.54 119.64 112.07 93.05 112.07 95.59 97.54"/>
    <polygon class="cls-2" points="158.49 112.07 161 97.54 187.53 97.54 185 112.07 158.49 112.07"/>
    <polygon class="cls-1" points="113.98 51.12 113.44 54.2 199.6 54.2 189.5 112.07 193.03 112.07 203.67 51.12 113.98 51.12"/>
  </g>
  <polyline class="cls-4" points="18.24 85 33.24 85 33.24 103 80 103"/>
  <rect class="cls-3" x="-3" y="115" width="192" height="3"/>
  <g>
    <path class="cls-3" d="M132.06,85.83l-28.4-14.96H63.2l-9.26,15.7v24.43h8.5c1.04,3.18,4.01,5.51,7.53,5.51s6.49-2.32,7.53-5.51h23.2c1.04,3.18,4,5.51,7.53,5.51s6.49-2.32,7.53-5.51h16.29v-25.17Z"/>
    <path class="cls-10" d="M102.57,75.3h-36.83l-7.36,12.47v18.79h3.92c.89-3.43,3.98-5.98,7.68-5.98s6.79,2.55,7.68,5.98h22.9c.89-3.43,3.98-5.98,7.68-5.98s6.8,2.55,7.68,5.98h11.71v-18.06l-25.06-13.21Z"/>
    <path class="cls-1" d="M69.97,105.01c-1.95,0-3.53,1.58-3.53,3.53s1.58,3.53,3.53,3.53,3.53-1.58,3.53-3.53-1.58-3.53-3.53-3.53Z"/>
    <path class="cls-1" d="M108.24,105.01c-1.95,0-3.53,1.58-3.53,3.53s1.58,3.53,3.53,3.53,3.53-1.58,3.53-3.53-1.58-3.53-3.53-3.53Z"/>
  </g>
</svg>