<?xml version="1.0" encoding="UTF-8"?>
<svg id="_圖層_1" data-name="圖層 1" xmlns="http://www.w3.org/2000/svg" viewBox="0 0 240 138">
  <defs>
    <style>
      .cls-1 {
        fill: #fff;
      }

      .cls-2 {
        fill: #f4fafc;
      }

      .cls-3 {
        fill: #0a557e;
      }

      .cls-4 {
        fill: none;
        fill-rule: evenodd;
        stroke: #c2c48f;
        stroke-miterlimit: 10;
        stroke-width: 3px;
      }

      .cls-5 {
        fill: #b4cbd8;
      }

      .cls-6 {
        fill: #b8dae8;
      }
    </style>
  </defs>
  <g>
    <polygon class="cls-5" points="49.6 75.13 49.6 70.7 39.26 70.7 39.26 75.13 34.09 75.13 34.09 116.5 54.77 116.5 54.77 75.13 49.6 75.13"/>
    <rect class="cls-2" x="37.04" y="78.09" width="14.77" height="35.46"/>
    <rect class="cls-2" x="42.21" y="73.65" width="4.43" height="1.48"/>
    <polygon class="cls-5" points="46.11 100.14 43.3 99.25 44.63 95.08 40.19 95.08 42.74 87.06 45.56 87.95 44.23 92.12 48.67 92.12 46.11 100.14"/>
  </g>
  <polygon class="cls-5" points="205.26 116.5 194.4 116.5 196.95 43.42 202.71 43.42 205.26 116.5"/>
  <polygon class="cls-1" points="197.46 113.55 202.2 113.55 199.85 46.38 199.8 46.38 197.46 113.55"/>
  <g>
    <path class="cls-5" d="M204.06,47.66c.67-.96,.96-2.1,.88-3.23l3.17-1.3,19.22-19.22-6.48-6.48-19.22,19.22-1.28,3.14c-1.14-.09-2.3,.19-3.28,.87l-2.77-2.14-26.26-7.04-2.37,8.85,25.97,6.96,.29,.08,3.46-.47c.24,.52,.56,1.02,.99,1.45,.43,.43,.93,.75,1.45,.99l-.47,3.48,7.04,26.26,8.85-2.37-7.04-26.26-2.15-2.78Z"/>
    <path class="cls-2" d="M195.26,42.98l-2.28-1.76-22.83-6.12-.84,3.14,22.83,6.12,2.86-.39c.05-.34,.14-.67,.26-.99Z"/>
    <path class="cls-2" d="M203.52,51.78l-1.78-2.3c-.31,.12-.64,.2-.97,.26l-.39,2.89,6.12,22.83,3.14-.84-6.12-22.83Z"/>
    <path class="cls-2" d="M220.87,21.61l-16.71,16.71-1.05,2.57c.14,.11,.28,.21,.41,.33,.14,.14,.25,.3,.37,.45l2.57-1.05,16.71-16.71-2.3-2.3Z"/>
    <circle class="cls-1" cx="199.95" cy="44.78" r="2.08"/>
  </g>
  <rect class="cls-3" x="24" y="115" width="192" height="3"/>
  <polyline class="cls-4" points="139.34 109.76 160.75 109.76 160.75 127.76 227.47 127.76"/>
  <polyline class="cls-4" points="100.47 109.76 79.07 109.76 79.07 127.76 12.34 127.76"/>
  <g>
    <rect class="cls-3" x="96.18" y="37.28" width="47.65" height="84.22"/>
    <rect class="cls-6" x="100.61" y="41.72" width="38.78" height="75.35"/>
    <g>
      <polygon class="cls-3" points="131.81 77.33 123.56 77.33 123.56 71.48 129.56 71.48 129.56 70.13 123.56 70.13 123.56 67.88 131.81 67.88 131.81 73.73 125.81 73.73 125.81 75.08 131.81 75.08 131.81 77.33"/>
      <polygon class="cls-3" points="120.79 72.6 117.79 72.6 117.79 66.9 111.19 66.9 111.19 72.6 108.19 72.6 108.19 58.2 111.19 58.2 111.19 63.9 117.79 63.9 117.79 58.2 120.79 58.2 120.79 72.6"/>
    </g>
  </g>
</svg>