<?xml version="1.0" encoding="UTF-8"?>
<svg id="_圖層_1" data-name="圖層 1" xmlns="http://www.w3.org/2000/svg" viewBox="0 0 244 176">
  <defs>
    <style>
      .cls-1 {
        fill: #fff;
      }

      .cls-2 {
        fill: #0a557e;
      }

      .cls-3 {
        fill: #c2c48f;
      }

      .cls-4 {
        stroke-width: 3px;
      }

      .cls-4, .cls-5 {
        fill: none;
        stroke: #c2c48f;
        stroke-miterlimit: 10;
      }

      .cls-5 {
        stroke-width: 2px;
      }
    </style>
  </defs>
  <line class="cls-4" x1="49" y1="84.51" x2="49" y2="164.51"/>
  <g>
    <line class="cls-5" x1="4.69" y1="91.59" x2="93.32" y2="75.96"/>
    <circle class="cls-3" cx="49" cy="83.77" r="5"/>
  </g>
  <path class="cls-3" d="M108.16,132.12l-14.84-56.16-14.84,56.16h-1.16c2.96,5.85,9,9.86,16,9.86s13.04-4.02,16-9.86h-1.16Zm-27.6,0l12.77-48.33,12.77,48.33h-25.53Z"/>
  <path class="cls-3" d="M203.99,89.13L181.54,5.32l-22.46,83.81h-1.42c4.41,8.72,13.43,14.72,23.88,14.72s19.47-6,23.88-14.72h-1.42Zm-42.78,0L181.54,13.29l20.32,75.84h-40.64Z"/>
  <g>
    <circle class="cls-1" cx="122" cy="88" r="30.5"/>
    <path class="cls-2" d="M122,59c15.99,0,29,13.01,29,29s-13.01,29-29,29-29-13.01-29-29,13.01-29,29-29m0-3c-17.67,0-32,14.33-32,32s14.33,32,32,32,32-14.33,32-32-14.33-32-32-32h0Z"/>
  </g>
  <g>
    <polygon class="cls-2" points="115.25 93.5 104.25 93.5 104.25 79.5 115.25 79.5 115.25 81.5 106.25 81.5 106.25 91.5 115.25 91.5 115.25 93.5"/>
    <polygon class="cls-2" points="139.5 96.25 133 96.25 133 91.75 138 91.75 138 90.25 133 90.25 133 88.75 139.5 88.75 139.5 93.25 134.5 93.25 134.5 94.75 139.5 94.75 139.5 96.25"/>
    <path class="cls-2" d="M130.25,93.5h-12v-14h12v14Zm-10-2h8v-10h-8v10Z"/>
  </g>
</svg>