<?xml version="1.0" encoding="UTF-8"?>
<svg id="_圖層_1" data-name="圖層 1" xmlns="http://www.w3.org/2000/svg" viewBox="0 0 186 138">
  <defs>
    <style>
      .cls-1 {
        fill: #fff;
      }

      .cls-2 {
        fill: #e8f4f8;
      }

      .cls-3 {
        fill: #0a557e;
      }

      .cls-4 {
        fill-rule: evenodd;
        stroke: #c2c48f;
        stroke-miterlimit: 10;
        stroke-width: 3px;
      }

      .cls-4, .cls-5 {
        fill: none;
      }

      .cls-6 {
        fill: #badcea;
      }

      .cls-7 {
        fill: #b2c9d6;
      }

      .cls-8 {
        fill: #b4cedb;
      }

      .cls-9 {
        fill: #cad9e2;
      }

      .cls-10 {
        fill: #b8dae8;
      }
    </style>
  </defs>
  <g>
    <rect class="cls-9" x="12.99" y="47.5" width="10.5" height="43.5"/>
    <polygon class="cls-8" points="0 112 15.99 112 15.99 95.5 8.49 95.5 8.49 43 15.99 43 15.99 20.5 0 20.5 0 112"/>
    <polygon class="cls-8" points="0 16 25.5 16 12.44 0 0 0 0 16"/>
    <path class="cls-7" d="M25.5,16H0v4.5H15.99v22.5h-7.5v52.5h7.5v16.5H0v4.5H20.49v-21h7.5V43h-7.5V20.5h14.49L18.25,0h-5.81l13.06,16Zm-2.01,31.5v43.5H12.99V47.5h10.5Z"/>
  </g>
  <g>
    <polygon class="cls-7" points="208.94 46.69 110.25 46.69 108.94 54.2 98.65 54.2 87.78 116.5 188.72 116.5 188.72 116.5 196.76 116.5 208.94 46.69"/>
    <polygon class="cls-2" points="127.42 93.11 130.1 77.59 159.96 77.59 157.27 93.11 127.42 93.11"/>
    <polygon class="cls-2" points="156.51 97.54 153.99 112.07 124.14 112.07 126.65 97.54 156.51 97.54"/>
    <polygon class="cls-2" points="122.92 93.11 96.36 93.11 99.07 77.59 125.61 77.59 122.92 93.11"/>
    <polygon class="cls-2" points="130.87 73.16 133.39 58.63 163.24 58.63 160.72 73.16 130.87 73.16"/>
    <polygon class="cls-2" points="164.46 77.59 191.01 77.59 188.31 93.11 161.77 93.11 164.46 77.59"/>
    <polygon class="cls-2" points="165.22 73.16 167.74 58.63 194.32 58.63 191.79 73.16 165.22 73.16"/>
    <polygon class="cls-2" points="128.89 58.63 126.37 73.16 99.84 73.16 102.38 58.63 128.89 58.63"/>
    <polygon class="cls-2" points="95.59 97.54 122.15 97.54 119.64 112.07 93.05 112.07 95.59 97.54"/>
    <polygon class="cls-2" points="158.49 112.07 161 97.54 187.53 97.54 185 112.07 158.49 112.07"/>
    <polygon class="cls-1" points="113.98 51.12 113.44 54.2 199.6 54.2 189.5 112.07 193.03 112.07 203.67 51.12 113.98 51.12"/>
  </g>
  <polyline class="cls-4" points="18.24 85 33.24 85 33.24 110.51 80 110.51"/>
  <rect class="cls-5" width="186" height="138"/>
  <rect class="cls-3" x="-3" y="115" width="192" height="3"/>
  <g>
    <g>
      <polygon class="cls-3" points="85.47 73.98 85.47 69.54 75.13 69.54 75.13 73.98 69.96 73.98 69.96 115.35 90.65 115.35 90.65 73.98 85.47 73.98"/>
      <rect class="cls-10" x="72.92" y="76.93" width="14.77" height="35.46"/>
      <rect class="cls-10" x="78.09" y="72.5" width="4.43" height="1.48"/>
      <polygon class="cls-3" points="81.99 98.99 79.17 98.09 80.5 93.92 76.07 93.92 78.62 85.9 81.43 86.8 80.11 90.97 84.54 90.97 81.99 98.99"/>
    </g>
    <g>
      <polygon class="cls-3" points="112.14 73.98 112.14 69.54 101.8 69.54 101.8 73.98 96.63 73.98 96.63 115.35 117.31 115.35 117.31 73.98 112.14 73.98"/>
      <rect class="cls-10" x="99.58" y="76.93" width="14.77" height="35.46"/>
      <rect class="cls-10" x="104.75" y="72.5" width="4.43" height="1.48"/>
      <polygon class="cls-3" points="108.66 98.99 105.84 98.09 107.17 93.92 102.73 93.92 105.29 85.9 108.1 86.8 106.77 90.97 111.21 90.97 108.66 98.99"/>
    </g>
    <polygon class="cls-3" points="126.33 103.33 59.67 103.33 59.67 120 126.33 120 126.33 103.33 126.33 103.33"/>
    <polyline class="cls-6" points="123.33 106.33 123.33 117 62.67 117 62.67 106.33 123.33 106.33"/>
  </g>
  <g>
    <polygon class="cls-3" points="93.44 42.82 96.88 46.26 84 46.26 84 39.76 81 39.76 81 49.26 96.88 49.26 93.44 52.7 95.56 54.82 102.62 47.76 95.56 40.7 93.44 42.82"/>
    <polygon class="cls-3" points="89.12 31.26 92.56 27.82 90.44 25.7 83.38 32.76 90.44 39.82 92.56 37.7 89.12 34.26 102 34.26 102 40.76 105 40.76 105 31.26 89.12 31.26"/>
  </g>
</svg>