<?xml version="1.0" encoding="UTF-8"?>
<svg id="_圖層_1" data-name="圖層 1" xmlns="http://www.w3.org/2000/svg" viewBox="0 0 26 74">
  <defs>
    <style>
      .cls-1 {
        fill: #51a885;
      }

      .cls-2 {
        fill: #ed8c37;
      }

      .cls-3 {
        fill: #f5a936;
      }
    </style>
  </defs>
  <path class="cls-1" d="M12.11,69.01v-7.09c-.95,0-1.86-.18-2.73-.54s-1.64-.88-2.31-1.54-1.18-1.44-1.53-2.31-.53-1.79-.53-2.73v-1.78h1.78c.93,0,1.84,.18,2.71,.54s1.64,.88,2.31,1.54c.46,.46,.84,.96,1.14,1.51s.54,1.13,.7,1.76c.07-.1,.16-.2,.24-.3s.19-.2,.29-.3c.67-.67,1.44-1.18,2.31-1.54,.87-.36,1.79-.54,2.73-.54h1.78v1.78c0,.95-.18,1.86-.54,2.73-.36,.87-.88,1.64-1.54,2.31s-1.43,1.18-2.3,1.53-1.77,.53-2.72,.53v4.44h-1.78Zm0-8.89c0-.71-.14-1.39-.41-2.03s-.66-1.22-1.17-1.72-1.08-.89-1.72-1.17-1.32-.41-2.03-.41c0,.71,.13,1.39,.4,2.04s.65,1.23,1.16,1.73c.5,.5,1.08,.89,1.73,1.16s1.33,.4,2.04,.4Zm1.78,2.67c.71,0,1.39-.13,2.03-.4s1.22-.65,1.72-1.16,.89-1.08,1.17-1.73,.41-1.33,.41-2.04c-.71,0-1.39,.14-2.04,.41s-1.23,.66-1.73,1.17-.89,1.08-1.16,1.72-.4,1.32-.4,2.03Z"/>
  <path class="cls-2" d="M12,47.51v-2.15c-.88-.2-1.65-.58-2.29-1.15-.64-.57-1.11-1.37-1.41-2.4l1.85-.75c.25,.8,.62,1.41,1.11,1.83s1.14,.63,1.94,.63c.68,0,1.26-.15,1.74-.46s.71-.79,.71-1.44c0-.58-.18-1.05-.55-1.39s-1.22-.73-2.55-1.16c-1.43-.45-2.42-.99-2.95-1.61s-.8-1.39-.8-2.29c0-1.08,.35-1.93,1.05-2.53s1.42-.94,2.15-1.03v-2.1h2v2.1c.83,.13,1.52,.44,2.06,.91s.94,1.05,1.19,1.74l-1.85,.8c-.2-.53-.48-.93-.85-1.2s-.87-.4-1.5-.4c-.73,0-1.29,.16-1.68,.49s-.58,.73-.58,1.21c0,.55,.25,.98,.75,1.3s1.37,.65,2.6,1c1.15,.33,2.02,.86,2.61,1.59s.89,1.56,.89,2.51c0,1.18-.35,2.08-1.05,2.7-.7,.62-1.57,1-2.6,1.15v2.1h-2Z"/>
  <path class="cls-3" d="M11.55,20.21l5.18-6.2h-4l.73-5.68-4.63,6.68h3.48l-.75,5.2Zm-2.55,3.8l1-7H5L14,4.01h2l-1,8h6l-10,12h-2Z"/>
</svg>