<?xml version="1.0" encoding="UTF-8"?>
<svg id="_圖層_1" data-name="圖層 1" xmlns="http://www.w3.org/2000/svg" xmlns:xlink="http://www.w3.org/1999/xlink" viewBox="0 0 186 138">
  <defs>
    <style>
      .cls-1 {
        stroke-linecap: square;
        stroke-width: 1.5px;
      }

      .cls-1, .cls-2 {
        stroke: #0a557e;
      }

      .cls-1, .cls-2, .cls-3, .cls-4 {
        fill: none;
      }

      .cls-1, .cls-2, .cls-4 {
        stroke-miterlimit: 10;
      }

      .cls-5 {
        fill: #fff;
      }

      .cls-6 {
        fill: #0a557e;
      }

      .cls-2, .cls-4 {
        stroke-width: 2px;
      }

      .cls-7 {
        fill: #c2c48f;
      }

      .cls-8 {
        opacity: .4;
      }

      .cls-9 {
        clip-path: url(#clippath);
      }

      .cls-4 {
        stroke: #c2c48f;
      }
    </style>
    <clipPath id="clippath">
      <rect class="cls-3" width="186" height="138"/>
    </clipPath>
  </defs>
  <g class="cls-9">
    <g class="cls-8">
      <path class="cls-7" d="M176.41,64.36c-4.41,8.72-13.43,14.72-23.87,14.72s-19.46-5.99-23.87-14.72h47.75Z"/>
      <g>
        <line class="cls-4" x1="173.42" y1="64.36" x2="152.53" y2="-13.6"/>
        <line class="cls-4" x1="131.65" y1="64.36" x2="152.53" y2="-13.6"/>
      </g>
    </g>
    <g class="cls-8">
      <polyline class="cls-4" points="-24.3 72.63 -24.31 72.59 64.32 56.96"/>
      <circle class="cls-7" cx="20" cy="64.77" r="5"/>
      <line class="cls-4" x1="20" y1="65.51" x2="20" y2="172"/>
      <path class="cls-7" d="M48.32,109.21c2.96,5.85,9,9.86,16,9.86s13.04-4.02,16-9.86H48.32Z"/>
      <g>
        <line class="cls-4" x1="50.32" y1="109.21" x2="64.32" y2="56.96"/>
        <line class="cls-4" x1="78.32" y1="109.21" x2="64.32" y2="56.96"/>
      </g>
    </g>
  </g>
  <g>
    <circle class="cls-5" cx="93" cy="69" r="30.5"/>
    <path class="cls-6" d="M93,40c15.99,0,29,13.01,29,29s-13.01,29-29,29-29-13.01-29-29,13.01-29,29-29m0-3c-17.67,0-32,14.33-32,32s14.33,32,32,32,32-14.33,32-32-14.33-32-32-32h0Z"/>
  </g>
  <g>
    <polyline class="cls-2" points="86.25 61.5 76.25 61.5 76.25 73.5 86.25 73.5"/>
    <polyline class="cls-1" points="109.75 76.5 104.75 76.5 104.75 73.5 109.75 73.5 109.75 70.5 104.75 70.5"/>
    <rect class="cls-2" x="90.25" y="61.5" width="10" height="12"/>
  </g>
</svg>