<?xml version="1.0" encoding="UTF-8"?>
<svg id="_圖層_1" data-name="圖層 1" xmlns="http://www.w3.org/2000/svg" viewBox="0 0 186 138">
  <defs>
    <style>
      .cls-1 {
        fill: #fff;
      }

      .cls-2 {
        fill: none;
        stroke: #0a557e;
        stroke-linecap: square;
        stroke-miterlimit: 10;
        stroke-width: 2px;
      }

      .cls-3 {
        fill: #0a557e;
      }

      .cls-4 {
        fill: #c2c48f;
      }
    </style>
  </defs>
  <g>
    <g>
      <circle class="cls-1" cx="93" cy="69" r="30.5"/>
      <path class="cls-3" d="M93,40c15.99,0,29,13.01,29,29s-13.01,29-29,29-29-13.01-29-29,13.01-29,29-29m0-3c-17.67,0-32,14.33-32,32s14.33,32,32,32,32-14.33,32-32-14.33-32-32-32h0Z"/>
    </g>
    <polyline class="cls-2" points="88 75 98 75 98 69 88 69 88 63 98 63"/>
    <line class="cls-2" x1="93.24" y1="63" x2="93.24" y2="59"/>
    <line class="cls-2" x1="93.24" y1="79.46" x2="93.24" y2="75.46"/>
  </g>
  <g>
    <g>
      <path class="cls-1" d="M120,72h18v18c0,9.93-8.07,18-18,18h0c-9.93,0-18-8.07-18-18h0c0-9.93,8.07-18,18-18Z"/>
      <path class="cls-4" d="M135,75v15c0,8.27-6.73,15-15,15s-15-6.73-15-15,6.73-15,15-15h15m3-3h-18c-9.94,0-18,8.06-18,18s8.06,18,18,18,18-8.06,18-18v-18h0Z"/>
    </g>
    <rect class="cls-4" x="94.86" y="99.5" width="28.28" height="3" transform="translate(-39.49 106.66) rotate(-45)"/>
  </g>
  <g>
    <g>
      <path class="cls-1" d="M49.15,79h7.85v7.85c0,4.33-3.52,7.85-7.85,7.85h0c-4.33,0-7.85-3.52-7.85-7.85h0c0-4.33,3.52-7.85,7.85-7.85Z"/>
      <path class="cls-4" d="M54,82v4.85c0,2.67-2.17,4.85-4.85,4.85s-4.85-2.17-4.85-4.85,2.17-4.85,4.85-4.85h4.85m3-3h-7.85c-4.33,0-7.85,3.51-7.85,7.85h0c0,4.33,3.51,7.85,7.85,7.85s7.85-3.51,7.85-7.85v-7.85h0Z"/>
    </g>
    <rect class="cls-4" x="38.19" y="90.14" width="12.33" height="3" transform="translate(-51.81 58.21) rotate(-45)"/>
  </g>
  <g>
    <g>
      <path class="cls-1" d="M143.38,31h10.62v10.62c0,5.86-4.76,10.62-10.62,10.62h0c-5.86,0-10.62-4.76-10.62-10.62h0c0-5.86,4.76-10.62,10.62-10.62Z"/>
      <path class="cls-4" d="M151,34v7.62c0,4.2-3.42,7.62-7.62,7.62s-7.62-3.42-7.62-7.62,3.42-7.62,7.62-7.62h7.62m3-3h-10.62c-5.86,0-10.62,4.75-10.62,10.62s4.75,10.62,10.62,10.62,10.62-4.75,10.62-10.62v-10.62h0Z"/>
    </g>
    <rect class="cls-4" x="128.56" y="46.6" width="16.68" height="3" transform="translate(6.08 110.89) rotate(-45)"/>
  </g>
</svg>