<?xml version="1.0" encoding="UTF-8"?>
<svg id="_圖層_1" data-name="圖層 1" xmlns="http://www.w3.org/2000/svg" xmlns:xlink="http://www.w3.org/1999/xlink" viewBox="0 0 186 138">
  <defs>
    <style>
      .cls-1 {
        fill: #fff;
      }

      .cls-2 {
        fill: #0a557e;
      }

      .cls-3 {
        fill-rule: evenodd;
      }

      .cls-3, .cls-4, .cls-5 {
        fill: none;
      }

      .cls-3, .cls-5 {
        stroke: #c2c48f;
        stroke-miterlimit: 10;
        stroke-width: 3px;
      }

      .cls-6 {
        fill: #c2c48f;
      }

      .cls-7 {
        clip-path: url(#clippath);
      }

      .cls-8 {
        opacity: .41;
      }

      .cls-9 {
        fill: #b8dae8;
      }
    </style>
    <clipPath id="clippath">
      <rect class="cls-4" width="186" height="138"/>
    </clipPath>
  </defs>
  <rect class="cls-2" y="115" width="186" height="3"/>
  <g class="cls-7">
    <polyline class="cls-3" points="138.71 109.76 153.71 109.76 153.71 127.76 200.47 127.76"/>
    <g class="cls-8">
      <path class="cls-6" d="M2.01-23.01v3c9.6,0,18.02,6.15,20.95,15.3,1.79,5.6,1.3,11.56-1.39,16.78-2.69,5.22-7.25,9.09-12.85,10.88-2.19,.7-4.44,1.05-6.71,1.05-9.6,0-18.02-6.15-20.95-15.3-1.79-5.6-1.3-11.56,1.39-16.78,2.69-5.22,7.25-9.09,12.85-10.88,2.18-.7,4.44-1.05,6.71-1.05v-3m0,0c-2.53,0-5.09,.39-7.63,1.2C-18.77-17.6-26.02-3.53-21.81,9.62-18.41,20.24-8.59,27.01,1.99,27.01c2.53,0,5.09-.39,7.63-1.2C22.77,21.6,30.02,7.53,25.81-5.62c-3.4-10.62-13.22-17.38-23.8-17.38h0Z"/>
      <g>
        <line class="cls-5" x1="11.18" y1="30.56" x2="14.24" y2="40.08"/>
        <line class="cls-5" x1="31.32" y1="8.33" x2="41.1" y2="10.44"/>
        <line class="cls-5" x1="24.23" y1="22.15" x2="31.64" y2="28.86"/>
      </g>
    </g>
  </g>
  <g>
    <polygon class="cls-2" points="153.58 51.69 54.89 51.69 53.58 59.2 43.29 59.2 32.42 121.5 133.36 121.5 133.36 121.5 141.4 121.5 153.58 51.69"/>
    <polygon class="cls-9" points="72.06 98.11 74.74 82.59 104.6 82.59 101.91 98.11 72.06 98.11"/>
    <polygon class="cls-9" points="101.15 102.54 98.63 117.07 68.78 117.07 71.29 102.54 101.15 102.54"/>
    <polygon class="cls-9" points="67.56 98.11 41 98.11 43.71 82.59 70.25 82.59 67.56 98.11"/>
    <polygon class="cls-9" points="75.51 78.16 78.03 63.63 107.88 63.63 105.36 78.16 75.51 78.16"/>
    <polygon class="cls-9" points="109.1 82.59 135.65 82.59 132.95 98.11 106.41 98.11 109.1 82.59"/>
    <polygon class="cls-9" points="109.86 78.16 112.38 63.63 138.96 63.63 136.43 78.16 109.86 78.16"/>
    <polygon class="cls-9" points="73.53 63.63 71.01 78.16 44.48 78.16 47.02 63.63 73.53 63.63"/>
    <polygon class="cls-9" points="40.23 102.54 66.79 102.54 64.28 117.07 37.69 117.07 40.23 102.54"/>
    <polygon class="cls-9" points="103.13 117.07 105.64 102.54 132.17 102.54 129.64 117.07 103.13 117.07"/>
    <polygon class="cls-1" points="58.62 56.12 58.08 59.2 144.24 59.2 134.14 117.07 137.67 117.07 148.31 56.12 58.62 56.12"/>
  </g>
</svg>