<?xml version="1.0" encoding="UTF-8"?>
<svg id="_圖層_1" data-name="圖層 1" xmlns="http://www.w3.org/2000/svg" viewBox="0 0 186 138">
  <defs>
    <style>
      .cls-1 {
        fill: #fff;
      }

      .cls-2 {
        fill: #cae4da;
      }

      .cls-3 {
        fill: #0a557e;
      }

      .cls-4 {
        fill: #fce5c2;
      }

      .cls-5 {
        fill: #c2c48f;
      }

      .cls-6 {
        fill: #b4cbd8;
      }

      .cls-7 {
        fill: #f5d5d5;
      }

      .cls-8 {
        fill: #b8dae8;
      }
    </style>
  </defs>
  <g>
    <polygon class="cls-6" points="173 34.7 123 34.7 123 54.7 147 54.7 147 116.51 149 116.51 149 54.7 173 54.7 173 34.7"/>
    <polyline class="cls-1" points="171 36.7 171 52.7 125 52.7 125 36.7 171 36.7"/>
    <circle class="cls-7" cx="135" cy="44.7" r="4.5"/>
    <circle class="cls-4" cx="148" cy="44.7" r="4.5"/>
    <circle class="cls-2" cx="161" cy="44.7" r="4.5"/>
  </g>
  <rect class="cls-3" y="115" width="186" height="3"/>
  <g>
    <path class="cls-3" d="M132.06,85.83l-28.4-14.96H63.2l-9.26,15.7v24.43h8.5c1.04,3.18,4.01,5.51,7.53,5.51s6.49-2.32,7.53-5.51h23.2c1.04,3.18,4,5.51,7.53,5.51s6.49-2.32,7.53-5.51h16.29v-25.17Z"/>
    <path class="cls-8" d="M102.57,75.3h-36.83l-7.36,12.47v18.79h3.92c.89-3.43,3.98-5.98,7.68-5.98s6.79,2.55,7.68,5.98h22.9c.89-3.43,3.98-5.98,7.68-5.98s6.8,2.55,7.68,5.98h11.71v-18.06l-25.06-13.21Z"/>
    <path class="cls-1" d="M69.97,105.01c-1.95,0-3.53,1.58-3.53,3.53s1.58,3.53,3.53,3.53,3.53-1.58,3.53-3.53-1.58-3.53-3.53-3.53Z"/>
    <path class="cls-1" d="M108.24,105.01c-1.95,0-3.53,1.58-3.53,3.53s1.58,3.53,3.53,3.53,3.53-1.58,3.53-3.53-1.58-3.53-3.53-3.53Z"/>
  </g>
  <g>
    <path class="cls-5" d="M45,97.51c0-1.19,.16-2.34,.43-3.45l-2.89-.8c-.34,1.36-.54,2.78-.54,4.25s.18,2.76,.5,4.07l2.89-.8c-.24-1.05-.38-2.14-.38-3.27Z"/>
    <path class="cls-5" d="M33,97.51c0-2.3,.3-4.54,.85-6.67l-2.89-.8c-.63,2.39-.96,4.89-.96,7.47s.32,4.95,.91,7.29l2.89-.8c-.52-2.08-.81-4.25-.81-6.48Z"/>
    <path class="cls-5" d="M21,97.51c0-3.41,.45-6.73,1.29-9.88l-2.89-.8c-.91,3.41-1.4,6.99-1.4,10.68s.47,7.14,1.35,10.5l2.89-.8c-.81-3.1-1.24-6.35-1.24-9.7Z"/>
  </g>
  <g>
    <path class="cls-5" d="M141,97.51c0-1.19-.16-2.34-.43-3.45l2.89-.8c.34,1.36,.54,2.78,.54,4.25s-.18,2.76-.5,4.07l-2.89-.8c.24-1.05,.38-2.14,.38-3.27Z"/>
    <path class="cls-5" d="M153,97.51c0-2.3-.3-4.54-.85-6.67l2.89-.8c.63,2.39,.96,4.89,.96,7.47s-.32,4.95-.91,7.29l-2.89-.8c.52-2.08,.81-4.25,.81-6.48Z"/>
    <path class="cls-5" d="M165,97.51c0-3.41-.45-6.73-1.29-9.88l2.89-.8c.91,3.41,1.4,6.99,1.4,10.68s-.47,7.14-1.35,10.5l-2.89-.8c.81-3.1,1.24-6.35,1.24-9.7Z"/>
  </g>
</svg>