<?xml version="1.0" encoding="UTF-8"?>
<svg id="_圖層_1" data-name="圖層 1" xmlns="http://www.w3.org/2000/svg" xmlns:xlink="http://www.w3.org/1999/xlink" viewBox="0 0 186 138">
  <defs>
    <style>
      .cls-1 {
        fill: #fff;
      }

      .cls-2 {
        fill: #f4fafc;
      }

      .cls-3 {
        fill: #0a557e;
      }

      .cls-4 {
        fill-rule: evenodd;
        stroke-width: 3px;
      }

      .cls-4, .cls-5, .cls-6 {
        fill: none;
      }

      .cls-4, .cls-6 {
        stroke: #c2c48f;
        stroke-miterlimit: 10;
      }

      .cls-7 {
        clip-path: url(#clippath-1);
      }

      .cls-8 {
        fill: #c2c48f;
      }

      .cls-9 {
        opacity: .4;
      }

      .cls-10 {
        fill: #b4cbd8;
      }

      .cls-11 {
        clip-path: url(#clippath);
      }

      .cls-6 {
        stroke-width: 2px;
      }

      .cls-12 {
        fill: #b8dae8;
      }
    </style>
    <clipPath id="clippath">
      <rect class="cls-5" x="-266" width="186" height="138"/>
    </clipPath>
    <clipPath id="clippath-1">
      <rect class="cls-5" width="186" height="138"/>
    </clipPath>
  </defs>
  <g class="cls-11">
    <g class="cls-9">
      <path class="cls-8" d="M-5.09,40.97c4.41,8.72,13.43,14.72,23.87,14.72s19.46-5.99,23.87-14.72H-5.09Z"/>
      <g>
        <line class="cls-6" x1="-2.1" y1="40.97" x2="18.79" y2="-36.99"/>
        <line class="cls-6" x1="39.68" y1="40.97" x2="18.79" y2="-36.99"/>
      </g>
    </g>
  </g>
  <g>
    <g class="cls-7">
      <g>
        <g>
          <polygon class="cls-10" points="22.6 75.13 22.6 70.7 12.26 70.7 12.26 75.13 7.09 75.13 7.09 116.5 27.77 116.5 27.77 75.13 22.6 75.13"/>
          <rect class="cls-2" x="10.04" y="78.09" width="14.77" height="35.46"/>
          <rect class="cls-2" x="15.21" y="73.65" width="4.43" height="1.48"/>
          <polygon class="cls-10" points="19.11 100.14 16.3 99.25 17.63 95.08 13.19 95.08 15.74 87.06 18.56 87.95 17.23 92.12 21.67 92.12 19.11 100.14"/>
        </g>
        <g>
          <polygon class="cls-10" points="178.26 116.5 167.4 116.5 169.95 43.42 175.71 43.42 178.26 116.5"/>
          <polygon class="cls-1" points="170.46 113.55 175.2 113.55 172.85 46.38 172.8 46.38 170.46 113.55"/>
          <path class="cls-10" d="M177.06,47.66c.67-.96,.96-2.1,.88-3.23l3.17-1.3,19.22-19.22-6.48-6.48-19.22,19.22-1.28,3.14c-1.14-.09-2.3,.19-3.28,.87l-2.77-2.14-26.26-7.04-2.37,8.85,25.97,6.96,.29,.08,3.46-.47c.24,.52,.56,1.02,.99,1.45,.43,.43,.93,.75,1.45,.99l-.47,3.48,7.04,26.26,8.85-2.37-7.04-26.26-2.15-2.78Z"/>
          <path class="cls-2" d="M168.26,42.98l-2.28-1.76-22.83-6.12-.84,3.14,22.83,6.12,2.86-.39c.05-.34,.14-.67,.26-.99Z"/>
          <path class="cls-2" d="M176.52,51.78l-1.78-2.3c-.31,.12-.64,.2-.97,.26l-.39,2.89,6.12,22.83,3.14-.84-6.12-22.83Z"/>
          <path class="cls-2" d="M193.87,21.61l-16.71,16.71-1.05,2.57c.14,.11,.28,.21,.41,.33,.14,.14,.25,.3,.37,.45l2.57-1.05,16.71-16.71-2.3-2.3Z"/>
          <path class="cls-1" d="M172.95,42.7c-.53,0-1.07,.2-1.47,.61-.81,.81-.81,2.13,0,2.94,.81,.81,2.13,.81,2.94,0,.81-.81,.81-2.13,0-2.94-.41-.41-.94-.61-1.47-.61Z"/>
        </g>
        <rect class="cls-3" y="115" width="186" height="3"/>
        <polyline class="cls-4" points="112.34 109.76 133.75 109.76 133.75 127.76 200.47 127.76"/>
        <polyline class="cls-4" points="73.47 109.76 52.07 109.76 52.07 127.76 -14.66 127.76"/>
      </g>
    </g>
    <g>
      <rect class="cls-3" x="69.18" y="37.28" width="47.65" height="84.22"/>
      <rect class="cls-12" x="73.61" y="41.72" width="38.78" height="75.35"/>
      <g>
        <polygon class="cls-3" points="104.81 77.33 96.56 77.33 96.56 71.48 102.56 71.48 102.56 70.13 96.56 70.13 96.56 67.88 104.81 67.88 104.81 73.73 98.81 73.73 98.81 75.08 104.81 75.08 104.81 77.33"/>
        <polygon class="cls-3" points="93.79 72.6 90.79 72.6 90.79 66.9 84.19 66.9 84.19 72.6 81.19 72.6 81.19 58.2 84.19 58.2 84.19 63.9 90.79 63.9 90.79 58.2 93.79 58.2 93.79 72.6"/>
      </g>
    </g>
  </g>
</svg>