<?xml version="1.0" encoding="UTF-8"?>
<svg id="_圖層_1" data-name="圖層 1" xmlns="http://www.w3.org/2000/svg" viewBox="0 0 186 138">
  <defs>
    <style>
      .cls-1 {
        fill: #fff;
      }

      .cls-2 {
        fill: #0a557e;
      }

      .cls-3 {
        fill: #c2c48f;
      }

      .cls-4 {
        fill: #b4cbd8;
      }
    </style>
  </defs>
  <g>
    <rect class="cls-1" x="76.5" y="15" width="1" height="108"/>
    <polygon class="cls-4" points="78.5 14 75.5 14 75.5 124 78.5 124 78.5 14 78.5 14"/>
  </g>
  <g>
    <rect class="cls-1" x="108.5" y="15" width="1" height="108"/>
    <polygon class="cls-4" points="110.5 14 107.5 14 107.5 124 110.5 124 110.5 14 110.5 14"/>
  </g>
  <g>
    <rect class="cls-1" x="39" y="52.5" width="108" height="1"/>
    <polygon class="cls-4" points="148 51.5 38 51.5 38 54.5 148 54.5 148 51.5 148 51.5"/>
  </g>
  <g>
    <rect class="cls-1" x="39" y="84.5" width="108" height="1"/>
    <polygon class="cls-4" points="148 83.5 38 83.5 38 86.5 148 86.5 148 83.5 148 83.5"/>
  </g>
  <rect class="cls-2" x="59.5" y="14" width="3" height="110"/>
  <rect class="cls-3" x="91.5" y="14" width="3" height="110"/>
  <rect class="cls-2" x="123.5" y="14" width="3" height="110"/>
  <rect class="cls-2" x="38" y="35.5" width="110" height="3"/>
  <rect class="cls-3" x="38" y="67.5" width="110" height="3"/>
  <rect class="cls-2" x="38" y="99.5" width="110" height="3"/>
  <polygon class="cls-2" points="110.5 51.5 75.5 51.5 75.5 86.5 110.5 86.5 110.5 51.5 110.5 51.5"/>
  <polyline class="cls-1" points="107.5 54.5 107.5 83.5 78.5 83.5 78.5 54.5 107.5 54.5"/>
  <polygon class="cls-2" points="94.68 75.54 91.87 74.65 93.2 70.48 88.76 70.48 91.32 62.46 94.13 63.35 92.8 67.52 97.24 67.52 94.68 75.54"/>
  <polygon class="cls-3" points="162.68 123.54 159.87 122.65 161.2 118.48 156.76 118.48 159.32 110.46 162.13 111.35 160.8 115.52 165.24 115.52 162.68 123.54"/>
  <polygon class="cls-3" points="26.68 123.54 23.87 122.65 25.2 118.48 20.76 118.48 23.32 110.46 26.13 111.35 24.8 115.52 29.24 115.52 26.68 123.54"/>
  <polygon class="cls-3" points="26.68 27.54 23.87 26.65 25.2 22.48 20.76 22.48 23.32 14.46 26.13 15.35 24.8 19.52 29.24 19.52 26.68 27.54"/>
  <polygon class="cls-3" points="162.68 27.54 159.87 26.65 161.2 22.48 156.76 22.48 159.32 14.46 162.13 15.35 160.8 19.52 165.24 19.52 162.68 27.54"/>
</svg>