<?xml version="1.0" encoding="UTF-8"?>
<svg id="_圖層_1" data-name="圖層 1" xmlns="http://www.w3.org/2000/svg" viewBox="0 0 186 138">
  <defs>
    <style>
      .cls-1 {
        fill: #fff;
      }

      .cls-2 {
        fill: #0a557e;
      }

      .cls-3 {
        opacity: .43;
      }

      .cls-4 {
        fill: none;
        stroke: #c2c48f;
        stroke-miterlimit: 10;
        stroke-width: 3px;
      }

      .cls-5 {
        fill: #b8dae8;
      }
    </style>
  </defs>
  <g>
    <path class="cls-2" d="M132.06,85.83l-28.4-14.96H63.2l-9.26,15.7v24.43h8.5c1.04,3.18,4.01,5.51,7.53,5.51s6.49-2.32,7.53-5.51h23.2c1.04,3.18,4,5.51,7.53,5.51s6.49-2.32,7.53-5.51h16.29v-25.17Z"/>
    <path class="cls-5" d="M102.57,75.3h-36.83l-7.36,12.47v18.79h3.92c.89-3.43,3.98-5.98,7.68-5.98s6.79,2.55,7.68,5.98h22.9c.89-3.43,3.98-5.98,7.68-5.98s6.8,2.55,7.68,5.98h11.71v-18.06l-25.06-13.21Z"/>
    <path class="cls-1" d="M69.97,105.01c-1.95,0-3.53,1.58-3.53,3.53s1.58,3.53,3.53,3.53,3.53-1.58,3.53-3.53-1.58-3.53-3.53-3.53Z"/>
    <path class="cls-1" d="M108.24,105.01c-1.95,0-3.53,1.58-3.53,3.53s1.58,3.53,3.53,3.53,3.53-1.58,3.53-3.53-1.58-3.53-3.53-3.53Z"/>
  </g>
  <rect class="cls-2" y="115" width="186" height="3"/>
  <line class="cls-4" x1="49.29" y1="104.05" x2="38.29" y2="104.05"/>
  <line class="cls-4" x1="49.29" y1="98.55" x2="34.79" y2="98.55"/>
  <g class="cls-3">
    <polyline class="cls-4" points="127.8 45 141.53 29 155.27 33 169 17"/>
    <polyline class="cls-4" points="170.28 28.28 169 17.06 156.83 18.45"/>
  </g>
</svg>