<?xml version="1.0" encoding="UTF-8"?>
<svg id="_圖層_1" data-name="圖層 1" xmlns="http://www.w3.org/2000/svg" xmlns:xlink="http://www.w3.org/1999/xlink" viewBox="0 0 186 138">
  <defs>
    <style>
      .cls-1 {
        fill: #fff;
      }

      .cls-2 {
        fill: #f4fafc;
      }

      .cls-3 {
        fill: #0a557e;
      }

      .cls-4 {
        clip-path: url(#clippath-1);
      }

      .cls-5 {
        fill: #c2c48f;
      }

      .cls-6 {
        fill: #b2c9d6;
      }

      .cls-7 {
        fill: #b4cedb;
      }

      .cls-8 {
        fill: #eceddd;
      }

      .cls-9 {
        fill: #b4cbd8;
      }

      .cls-10 {
        clip-path: url(#clippath);
      }

      .cls-11 {
        fill: none;
      }

      .cls-12 {
        fill: #b8dae8;
      }
    </style>
    <clipPath id="clippath">
      <rect class="cls-11" x="266" width="186" height="138"/>
    </clipPath>
    <clipPath id="clippath-1">
      <rect class="cls-11" width="186" height="138" rx="2" ry="2"/>
    </clipPath>
  </defs>
  <g class="cls-10">
    <g>
      <polygon class="cls-7" points="180.98 16 291.5 16 236.24 -51.69 180.98 16"/>
      <path class="cls-6" d="M286.49,20.5h14.49L236.24-58.81,171.5,20.5h14.49V116.5h100.5v-21h7.5V43h-7.5V20.5Zm-105.51-4.5l55.26-67.69,55.26,67.69h-110.52Zm101.01,96h-91.5V20.5h91.5v22.5h-7.5v52.5h7.5v16.5Zm7.5-64.5v43.5h-10.5V47.5h10.5Z"/>
    </g>
  </g>
  <g>
    <rect class="cls-9" y="115" width="186" height="3"/>
    <g>
      <polygon class="cls-9" points="149.13 120 138.27 120 140.82 46.92 146.58 46.92 149.13 120"/>
      <polygon class="cls-1" points="141.33 117.04 146.07 117.04 143.73 49.88 143.68 49.88 141.33 117.04"/>
      <path class="cls-9" d="M147.94,51.16c.67-.96,.96-2.1,.88-3.23l3.17-1.3,19.22-19.22-6.48-6.48-19.22,19.22-1.28,3.14c-1.14-.09-2.3,.19-3.28,.87l-2.77-2.14-26.26-7.04-2.37,8.85,25.97,6.96,.29,.08,3.46-.47c.24,.52,.56,1.02,.99,1.45,.43,.43,.93,.75,1.45,.99l-.47,3.48,7.04,26.26,8.85-2.37-7.04-26.26-2.15-2.78Z"/>
      <path class="cls-2" d="M139.13,46.48l-2.28-1.76-22.83-6.12-.84,3.14,22.83,6.12,2.86-.39c.05-.34,.14-.67,.26-.99Z"/>
      <path class="cls-2" d="M147.39,55.28l-1.78-2.3c-.31,.12-.64,.2-.97,.26l-.39,2.89,6.12,22.83,3.14-.84-6.12-22.83Z"/>
      <path class="cls-2" d="M164.74,25.11l-16.71,16.71-1.05,2.57c.14,.11,.28,.21,.41,.33,.14,.14,.25,.3,.37,.45l2.57-1.05,16.71-16.71-2.3-2.3Z"/>
      <path class="cls-1" d="M143.82,46.2c-.53,0-1.07,.2-1.47,.61-.81,.81-.81,2.13,0,2.94,.81,.81,2.13,.81,2.94,0s.81-2.13,0-2.94c-.41-.41-.94-.61-1.47-.61Z"/>
    </g>
    <g>
      <polygon class="cls-9" points="52.13 120 41.27 120 43.82 46.92 49.58 46.92 52.13 120"/>
      <polygon class="cls-1" points="44.33 117.04 49.07 117.04 46.73 49.88 46.68 49.88 44.33 117.04"/>
      <path class="cls-9" d="M50.94,51.16c.67-.96,.96-2.1,.88-3.23l3.17-1.3,19.22-19.22-6.48-6.48-19.22,19.22-1.28,3.14c-1.14-.09-2.3,.19-3.28,.87l-2.77-2.14-26.26-7.04-2.37,8.85,25.97,6.96,.29,.08,3.46-.47c.24,.52,.56,1.02,.99,1.45,.43,.43,.93,.75,1.45,.99l-.47,3.48,7.04,26.26,8.85-2.37-7.04-26.26-2.15-2.78Z"/>
      <path class="cls-2" d="M42.13,46.48l-2.28-1.76-22.83-6.12-.84,3.14,22.83,6.12,2.86-.39c.05-.34,.14-.67,.26-.99Z"/>
      <path class="cls-2" d="M50.39,55.28l-1.78-2.3c-.31,.12-.64,.2-.97,.26l-.39,2.89,6.12,22.83,3.14-.84-6.12-22.83Z"/>
      <path class="cls-2" d="M67.74,25.11l-16.71,16.71-1.05,2.57c.14,.11,.28,.21,.41,.33,.14,.14,.25,.3,.37,.45l2.57-1.05,16.71-16.71-2.3-2.3Z"/>
      <path class="cls-1" d="M46.82,46.2c-.53,0-1.07,.2-1.47,.61-.81,.81-.81,2.13,0,2.94,.81,.81,2.13,.81,2.94,0s.81-2.13,0-2.94c-.41-.41-.94-.61-1.47-.61Z"/>
    </g>
    <g>
      <rect class="cls-8" x="15" y="28.51" width="25" height="2"/>
      <rect class="cls-8" x="10" y="28.51" width="2" height="2"/>
    </g>
    <g>
      <rect class="cls-8" x="105" y="58.51" width="25" height="2"/>
      <rect class="cls-8" x="133" y="58.51" width="2" height="2"/>
    </g>
    <g class="cls-4">
      <g>
        <polygon class="cls-3" points="101.12 165.99 84.83 165.99 88.65 56.38 97.29 56.38 101.12 165.99"/>
        <polygon class="cls-1" points="89.42 161.56 96.52 161.56 93.01 60.81 92.93 60.81 89.42 161.56"/>
        <path class="cls-3" d="M99.32,62.73c1.01-1.44,1.44-3.16,1.33-4.85l4.76-1.95,28.83-28.83-9.72-9.72-28.83,28.83-1.93,4.7c-1.71-.14-3.45,.28-4.92,1.3l-4.15-3.21-39.39-10.55-3.56,13.27,38.96,10.44,.43,.12,5.19-.7c.36,.78,.84,1.53,1.48,2.17,.65,.65,1.39,1.12,2.17,1.49l-.71,5.22,10.55,39.39,13.27-3.56-10.55-39.39-3.23-4.17Z"/>
        <path class="cls-12" d="M86.11,55.71l-3.42-2.65-34.25-9.18-1.26,4.71,34.25,9.18,4.29-.58c.08-.5,.21-1,.39-1.48Z"/>
        <path class="cls-12" d="M98.5,68.91l-2.67-3.45c-.47,.18-.96,.3-1.45,.39l-.59,4.33,9.18,34.25,4.71-1.26-9.18-34.25Z"/>
        <path class="cls-12" d="M124.53,23.65l-25.07,25.07-1.58,3.85c.2,.17,.42,.31,.61,.5,.21,.21,.37,.45,.56,.68l3.86-1.58,25.07-25.07-3.45-3.45Z"/>
        <path class="cls-1" d="M93.15,55.29c-.8,0-1.6,.3-2.21,.91-1.22,1.22-1.22,3.2,0,4.41,1.22,1.22,3.2,1.22,4.41,0,1.22-1.22,1.22-3.2,0-4.41-.61-.61-1.41-.91-2.21-.91Z"/>
      </g>
    </g>
    <g>
      <rect class="cls-5" x="29.75" y="72.51" width="32" height="3"/>
      <rect class="cls-5" x="66" y="72.51" width="3" height="3"/>
    </g>
    <g>
      <rect class="cls-5" x="142" y="38.51" width="32" height="3"/>
      <rect class="cls-5" x="134.75" y="38.51" width="3" height="3"/>
    </g>
  </g>
</svg>