<?xml version="1.0" encoding="UTF-8"?>
<svg id="a" data-name="圖層 1" xmlns="http://www.w3.org/2000/svg" viewBox="0 0 500 500" opacity="1">
  <g>
    <g>
      <polygon points="335.88 443.85 293.92 455.09 228.12 170.11 250.37 164.14 335.88 443.85" style="fill: #0a557e;"/>
      <polygon points="302.69 440.51 321 435.6 242.41 178.51 242.2 178.57 302.69 440.51" style="fill: #fff;"/>
      <path d="M260,179.11c1.61-4.42,1.54-9.13,.07-13.4l10.92-8.31,54.37-94.17-31.73-18.32-54.37,94.17-1.72,13.45c-4.5,.82-8.69,3.11-11.76,6.75l-12.91-5.41H104.12s0,36.64,0,36.64h107.55s1.19,0,1.19,0l12.87-5.39c1.47,1.77,3.22,3.35,5.32,4.57,2.11,1.22,4.36,1.93,6.63,2.33l1.78,13.94,54.37,94.16,31.73-18.32-54.37-94.17-11.19-8.52Z" style="fill: #0a557e;"/>
      <path d="M221.12,170.14l-10.64-4.45H115.94s0,13,0,13h94.54s10.65-4.46,10.65-4.46c-.14-1.36-.15-2.72,0-4.09Z" style="fill: #b8dae8;"/>
      <path d="M262.14,195.59l-9.27-7.05c-1.09,.79-2.26,1.45-3.47,1.99l1.48,11.56,47.27,81.88,11.26-6.5-47.27-81.88Z" style="fill: #b8dae8;"/>
      <path d="M297.94,61.05l-47.27,81.87-1.41,11.01c.64,.29,1.3,.5,1.92,.86,.69,.4,1.28,.9,1.9,1.37l8.85-6.74,47.27-81.88-11.26-6.5Z" style="fill: #b8dae8;"/>
      <path d="M238.97,164.21c-2.06,.55-3.91,1.89-5.05,3.87-2.29,3.97-.93,9.07,3.05,11.36,3.97,2.29,9.07,.93,11.36-3.05,2.29-3.97,.93-9.07-3.05-11.37-1.99-1.15-4.25-1.38-6.31-.82Z" style="fill: #fff;"/>
    </g>
    <g>
      <polygon points="493.83 403.49 453.87 414.19 458.46 431.32 438.48 436.67 455.45 500 500 500 500 420.19 498.42 420.61 493.83 403.49" style="fill: #0a557e;"/>
      <polygon points="467.68 500 500 500 500 432.43 452.95 445.03 467.68 500" style="fill: #b8dae8;"/>
      <polygon points="496.08 474.34 484.27 473.79 483.06 500 500 500 500 490.55 495.27 491.82 496.08 474.34" style="fill: #0a557e;"/>
      <rect x="468.81" y="420.16" width="17.73" height="5.91" transform="translate(-93.23 138.05) rotate(-15)" style="fill: #b8dae8;"/>
    </g>
    <g>
      <polygon points="41.1 500 18.4 415.26 0 420.19 0 500 41.1 500" style="fill: #0a557e;"/>
      <polygon points="28.87 500 10.04 429.74 0 432.43 0 500 28.87 500" style="fill: #b8dae8;"/>
      <polygon points="11.81 500 12.4 487.23 0 490.55 0 500 11.81 500" style="fill: #0a557e;"/>
    </g>
    <g>
      <polygon points="0 91.5 61.23 75.1 41.1 0 0 0 0 91.5" style="fill: #0a557e;"/>
      <polygon points="0 79.27 46.75 66.74 28.87 0 0 0 0 79.27" style="fill: #b8dae8;"/>
      <polygon points="0 20.36 10.84 20.86 11.81 0 0 0 0 20.36" style="fill: #0a557e;"/>
    </g>
    <g>
      <polygon points="500 91.5 500 0 455.45 0 481.31 96.51 500 91.5" style="fill: #0a557e;"/>
      <polygon points="500 79.27 500 0 467.68 0 489.66 82.04 500 79.27" style="fill: #b8dae8;"/>
      <polygon points="499.84 2.83 499.03 20.31 500 20.36 500 0 483.06 0 482.72 7.42 499.84 2.83" style="fill: #0a557e;"/>
    </g>
  </g>
  <rect width="500" height="500" style="fill: none;"/>
</svg>