<?xml version="1.0" standalone="no"?>
<!DOCTYPE svg PUBLIC "-//W3C//DTD SVG 20010904//EN"
 "http://www.w3.org/TR/2001/REC-SVG-20010904/DTD/svg10.dtd">
<svg version="1.0" xmlns="http://www.w3.org/2000/svg"
 width="800.000000pt" height="800.000000pt" viewBox="0 0 800.000000 800.000000"
 preserveAspectRatio="xMidYMid meet">
<metadata>
Created by potrace 1.14, written by Peter Selinger 2001-2017
</metadata>
<g transform="translate(0.000000,800.000000) scale(0.100000,-0.100000)"
fill="#000000" stroke="none">
<path d="M2100 7138 c-105 -181 -190 -331 -190 -335 0 -3 -6 -14 -14 -22 -13
-16 -69 -113 -90 -158 -6 -13 -14 -23 -18 -23 -5 0 -8 -4 -8 -10 0 -5 -32 -64
-71 -132 -40 -67 -81 -138 -92 -158 -42 -76 -71 -125 -77 -130 -3 -3 -16 -27
-30 -55 -14 -27 -30 -56 -37 -63 -7 -7 -13 -20 -13 -28 0 -8 -4 -14 -10 -14
-5 0 -10 -4 -10 -10 0 -5 -14 -33 -31 -62 -18 -29 -39 -66 -49 -83 -9 -16 -60
-106 -113 -198 -54 -93 -97 -172 -97 -177 0 -5 -4 -10 -8 -12 -5 -1 -27 -37
-50 -78 -23 -41 -56 -97 -73 -125 -16 -27 -32 -58 -36 -67 -3 -10 -10 -18 -16
-18 -6 0 -8 -3 -4 -6 3 -4 -5 -23 -18 -43 -14 -19 -25 -41 -25 -48 0 -7 -4
-13 -8 -13 -9 0 -29 -37 -30 -54 0 -5 -4 -12 -9 -15 -12 -8 -133 -220 -133
-232 0 -5 -4 -9 -9 -9 -5 0 -14 -12 -20 -27 -6 -16 -33 -65 -60 -110 -27 -46
-46 -83 -43 -83 4 0 2 -4 -4 -8 -6 -4 -22 -27 -36 -52 -14 -25 -39 -69 -57
-98 -17 -29 -31 -57 -31 -62 0 -6 -4 -10 -10 -10 -5 0 -10 -6 -10 -14 0 -8 -6
-21 -13 -28 -7 -7 -22 -31 -33 -53 -11 -22 -53 -96 -93 -165 -41 -69 -87 -150
-104 -180 -17 -30 -41 -72 -54 -92 -13 -21 -23 -42 -23 -48 0 -5 -4 -10 -9
-10 -5 0 -11 -6 -13 -12 -2 -7 -29 -59 -61 -114 l-58 -102 46 -78 c26 -44 50
-86 55 -94 24 -41 75 -129 91 -156 9 -17 23 -42 31 -55 7 -13 15 -26 18 -29 3
-3 14 -23 26 -45 19 -37 142 -251 164 -285 19 -30 74 -126 103 -180 17 -30 33
-57 36 -60 3 -3 13 -19 22 -35 32 -62 64 -120 70 -125 5 -5 35 -58 97 -170 14
-25 28 -49 32 -55 5 -5 23 -37 40 -70 18 -33 39 -67 46 -76 8 -8 14 -18 14
-22 0 -3 14 -30 31 -59 35 -58 50 -84 100 -173 18 -33 37 -61 41 -63 4 -2 8
-7 8 -12 0 -5 57 -107 126 -227 69 -120 138 -238 152 -263 14 -25 33 -58 43
-75 10 -16 27 -46 37 -65 16 -30 75 -132 133 -228 9 -15 27 -47 41 -72 14 -25
44 -76 66 -115 l41 -70 2288 0 c2046 -1 2289 1 2300 15 7 8 32 49 55 90 23 41
48 84 55 95 7 11 16 28 19 38 3 9 10 17 15 17 5 0 9 5 9 10 0 14 92 173 105
182 5 4 7 8 3 8 -5 0 12 32 37 70 25 39 45 73 45 76 0 3 23 44 50 91 28 47 50
89 50 94 0 5 5 9 10 9 6 0 10 4 10 9 0 10 80 153 90 161 4 3 16 25 29 50 24
48 43 82 51 90 3 3 14 23 25 45 11 22 23 42 26 45 4 3 19 30 35 60 15 30 30
57 33 60 6 5 25 38 58 100 10 19 21 37 24 40 3 3 23 37 44 75 22 39 44 78 50
87 41 70 255 441 283 493 10 17 20 32 25 33 4 2 7 9 7 17 0 7 7 18 15 25 8 7
15 21 15 31 0 11 4 19 10 19 5 0 12 11 16 25 3 14 10 25 15 25 5 0 9 4 9 9 0
5 34 67 75 136 41 70 75 131 75 135 0 4 7 13 15 20 9 7 13 15 11 18 -3 2 7 23
23 46 15 22 45 73 67 111 21 39 44 79 51 90 7 11 15 27 19 35 4 8 16 27 26 42
l19 28 -38 67 c-21 37 -43 77 -50 88 -7 11 -15 27 -19 35 -5 8 -23 38 -41 67
-18 29 -33 55 -33 58 0 3 -11 24 -26 46 -14 22 -34 57 -46 77 -19 34 -101 177
-159 278 -121 209 -200 345 -228 397 -19 34 -41 68 -48 75 -7 7 -13 17 -13 22
0 12 -103 184 -112 188 -5 2 -8 10 -8 19 0 8 -20 46 -45 84 -24 38 -42 69 -38
69 3 0 -1 8 -9 18 -8 9 -41 63 -72 120 -32 56 -62 105 -67 108 -5 3 -7 10 -4
15 4 5 1 9 -4 9 -6 0 -11 4 -11 9 0 8 -80 152 -90 161 -3 3 -11 16 -18 30 -7
14 -23 43 -37 65 -14 22 -28 47 -32 55 -7 15 -74 130 -93 160 -6 8 -13 22 -17
30 -4 8 -26 48 -50 88 -24 41 -43 78 -43 83 0 5 -4 9 -10 9 -5 0 -10 5 -10 10
0 6 -10 27 -23 48 -13 20 -41 69 -62 107 -21 39 -49 88 -63 110 -14 22 -39 65
-55 95 -16 30 -45 79 -63 108 -19 29 -34 55 -34 57 0 3 -11 22 -23 43 -13 20
-35 57 -49 82 -44 79 -70 124 -90 155 -10 17 -24 42 -30 58 -7 15 -16 27 -20
27 -4 0 -8 6 -8 14 0 7 -7 19 -15 26 -9 7 -13 15 -11 18 3 3 -3 17 -13 31 -18
25 -198 335 -230 396 -9 17 -19 32 -23 33 -5 2 -8 9 -8 15 0 9 -414 12 -1710
12 l-1711 1 -189 -328z"/>
</g>
</svg>
