<?xml version="1.0" encoding="UTF-8"?>
<svg id="uuid-cfeb6339-8f09-4671-a1ec-ee39765ff389" data-name=" 圖層 1" xmlns="http://www.w3.org/2000/svg" viewBox="0 0 250.68 138.37">
  <g>
    <g>
      <polygon points="0 39.49 6.53 39.49 13.27 27.82 6.74 27.82 0 39.49" style="fill: #d3d6a3;"/>
      <polygon points="25.76 39.49 32.29 39.49 39.03 27.82 32.49 27.82 25.76 39.49" style="fill: #d3d6a3;"/>
      <polygon points="12.88 39.49 19.41 39.49 26.15 27.82 19.61 27.82 12.88 39.49" style="fill: #d3d6a3;"/>
      <polygon points="51.83 5.65 55.09 0 22.77 0 6.7 27.82 39.03 27.82 42.19 22.35 15.18 22.35 18.5 16.6 45.5 16.6 48.51 11.4 21.64 11.4 24.96 5.65 51.83 5.65" style="fill: #1f5979;"/>
      <polygon points="61.75 67.45 58.48 61.8 45.01 61.8 48.27 67.45 61.75 67.45" style="fill: #bfceaa;"/>
      <polygon points="48.87 45.15 45.6 39.49 32.13 39.49 35.39 45.15 48.87 45.15" style="fill: #bfceaa;"/>
      <polygon points="55.31 56.3 52.04 50.64 38.57 50.64 41.83 56.3 55.31 56.3" style="fill: #bfceaa;"/>
      <polygon points="6.53 39.49 0 39.49 16.16 67.49 48.29 67.49 32.13 39.49 25.81 39.49 39.31 62.88 32.68 62.88 19.17 39.49 13.16 39.49 26.59 62.76 19.97 62.76 6.53 39.49" style="fill: #aab157;"/>
      <polygon points="55.08 .03 51.81 5.69 58.55 17.35 61.82 11.7 55.08 .03" style="fill: #aabdbf;"/>
      <polygon points="42.2 22.34 38.94 27.99 45.67 39.66 48.94 34 42.2 22.34" style="fill: #aabdbf;"/>
      <polygon points="48.64 11.18 45.38 16.84 52.11 28.51 55.38 22.85 48.64 11.18" style="fill: #aabdbf;"/>
      <polygon points="58.47 61.83 61.73 67.49 77.9 39.49 61.83 11.67 45.67 39.66 48.83 45.14 62.34 21.75 65.65 27.49 52.15 50.88 55.16 56.08 68.59 32.82 71.9 38.56 58.47 61.83" style="fill: #237a74;"/>
    </g>
    <g>
      <g>
        <polygon points="85.77 10.44 93.81 10.44 93.81 8.45 85.77 8.45 85.77 3.36 94.48 3.36 94.48 1.29 85.77 1.29 85.05 1.29 83.51 1.29 83.51 17.95 85.05 17.95 85.77 17.95 94.6 17.95 94.6 15.89 85.77 15.89 85.77 10.44" style="fill: #09527a;"/>
        <path d="M105.37,6.96c-.66-.43-1.43-.65-2.29-.65s-1.64,.2-2.33,.59c-.52,.3-.95,.67-1.3,1.12v-1.47h-2.16v11.4h2.16v-6.65c0-.58,.13-1.09,.38-1.54s.61-.8,1.06-1.06c.45-.25,.96-.38,1.54-.38,.86,0,1.56,.28,2.1,.84s.8,1.27,.8,2.14v6.65h2.18v-7.08c0-.78-.19-1.52-.58-2.22-.38-.7-.91-1.26-1.57-1.69h.01Z" style="fill: #09527a;"/>
        <path d="M118.36,7.03c-.82-.48-1.74-.72-2.78-.72-1.1,0-2.1,.26-2.99,.78-.89,.52-1.59,1.23-2.11,2.12-.52,.9-.78,1.9-.78,3.02s.26,2.15,.79,3.05,1.24,1.6,2.15,2.12c.9,.52,1.93,.78,3.08,.78,.9,0,1.74-.17,2.52-.5s1.46-.82,2.02-1.46l-1.39-1.42c-.38,.45-.84,.78-1.38,1.01-.54,.22-1.12,.34-1.76,.34-.77,0-1.45-.16-2.04-.49-.59-.33-1.05-.79-1.37-1.39-.2-.37-.32-.77-.4-1.21h8.92c.05-.22,.08-.43,.1-.61,.02-.18,.02-.36,.02-.52,0-1.09-.23-2.06-.68-2.9-.46-.85-1.09-1.51-1.91-1.99h0Zm-4.78,1.74c.56-.32,1.21-.48,1.94-.48s1.3,.15,1.8,.44c.5,.3,.88,.71,1.15,1.25,.18,.36,.28,.79,.34,1.26h-6.91c.07-.41,.19-.79,.37-1.13,.3-.58,.74-1.02,1.3-1.34h0Z" style="fill: #09527a;"/>
        <path d="M128.56,6.31c-1.26,0-2.23,.43-2.9,1.3-.07,.09-.13,.2-.19,.31v-1.36h-2.16v11.4h2.16v-6.48c0-1.06,.26-1.84,.77-2.35,.51-.51,1.17-.77,1.97-.77,.38,0,.72,.06,1.01,.17s.55,.3,.79,.55l1.42-1.46c-.4-.46-.83-.8-1.3-1-.46-.2-.98-.3-1.56-.3h0Z" style="fill: #09527a;"/>
        <path d="M141.14,8.11c-.38-.53-.86-.97-1.48-1.28-.7-.35-1.49-.53-2.39-.53-1.02,0-1.95,.25-2.78,.76s-1.48,1.18-1.96,2.04c-.47,.86-.71,1.83-.71,2.92s.24,2.07,.72,2.94,1.13,1.56,1.96,2.05,1.76,.74,2.8,.74c.88,0,1.66-.18,2.35-.53,.61-.31,1.1-.76,1.49-1.29v1.56c0,1.04-.34,1.87-1.03,2.48-.69,.62-1.61,.92-2.76,.92-.88,0-1.64-.16-2.28-.47s-1.19-.76-1.66-1.36l-1.42,1.42c.56,.78,1.29,1.39,2.18,1.82,.9,.43,1.94,.65,3.12,.65s2.23-.23,3.13-.68c.9-.46,1.61-1.1,2.11-1.92s.76-1.78,.76-2.87V6.55h-2.16v1.56h0Zm-1.56,7.15c-.53,.3-1.15,.46-1.87,.46s-1.33-.16-1.88-.47-.98-.75-1.3-1.31c-.31-.56-.47-1.2-.47-1.92s.16-1.36,.47-1.91,.74-.98,1.28-1.3c.54-.31,1.18-.47,1.9-.47s1.32,.16,1.86,.47,.95,.74,1.25,1.3,.44,1.2,.44,1.93-.15,1.38-.44,1.93-.71,.98-1.24,1.28h0Z" style="fill: #09527a;"/>
        <polygon points="154.41 6.55 150.94 14.63 147.64 6.55 145.24 6.55 149.72 16.96 146.92 22.73 149.32 22.73 151.48 18.05 156.81 6.55 154.41 6.55" style="fill: #09527a;"/>
      </g>
      <g>
        <polygon points="99.69 34.44 107.73 34.44 107.73 32.45 99.69 32.45 99.69 27.36 108.4 27.36 108.4 25.29 99.69 25.29 98.97 25.29 97.43 25.29 97.43 41.95 98.97 41.95 99.69 41.95 108.52 41.95 108.52 39.89 99.69 39.89 99.69 34.44" style="fill: #09527a;"/>
        <path d="M114.5,32.89c.56-.33,1.2-.49,1.92-.49,.59,0,1.14,.11,1.66,.32,.51,.22,.94,.53,1.3,.95l1.44-1.44c-.54-.62-1.19-1.1-1.94-1.43s-1.57-.49-2.45-.49c-1.12,0-2.13,.26-3.04,.78-.9,.52-1.62,1.23-2.14,2.12-.52,.9-.78,1.9-.78,3.02s.26,2.11,.78,3.01c.52,.9,1.23,1.62,2.14,2.15s1.92,.79,3.04,.79c.88,0,1.7-.17,2.46-.5s1.4-.81,1.93-1.42l-1.42-1.44c-.37,.42-.8,.73-1.31,.95s-1.06,.32-1.67,.32c-.72,0-1.36-.17-1.92-.5-.56-.34-1-.79-1.32-1.37s-.48-1.24-.48-1.99,.16-1.42,.48-1.99c.32-.58,.76-1.03,1.32-1.36h0Z" style="fill: #09527a;"/>
        <path d="M131.17,31.09c-.9-.52-1.92-.78-3.04-.78s-2.1,.26-3,.79-1.61,1.24-2.14,2.12-.79,1.88-.79,2.99,.26,2.13,.79,3.04c.53,.9,1.24,1.62,2.14,2.15,.9,.53,1.9,.79,3,.79s2.13-.26,3.04-.79,1.62-1.24,2.15-2.15c.53-.9,.79-1.92,.79-3.04s-.26-2.1-.79-3-1.24-1.6-2.15-2.12Zm.23,7.13c-.32,.58-.76,1.04-1.32,1.38-.56,.34-1.21,.5-1.94,.5s-1.34-.17-1.9-.5c-.56-.34-1-.8-1.32-1.38s-.48-1.25-.48-2,.16-1.39,.48-1.97,.76-1.03,1.32-1.36,1.19-.49,1.9-.49,1.38,.16,1.93,.49,.99,.78,1.32,1.36,.49,1.23,.49,1.97-.16,1.42-.48,2Z" style="fill: #09527a;"/>
        <path d="M144.58,30.96c-.66-.43-1.43-.65-2.29-.65s-1.64,.2-2.33,.59c-.52,.3-.95,.67-1.3,1.12v-1.47h-2.16v11.4h2.16v-6.65c0-.58,.13-1.09,.38-1.54s.61-.8,1.06-1.06c.45-.25,.96-.38,1.54-.38,.86,0,1.56,.28,2.1,.84,.54,.56,.8,1.27,.8,2.14v6.65h2.18v-7.08c0-.78-.19-1.52-.58-2.22-.38-.7-.91-1.26-1.57-1.69h.01Z" style="fill: #09527a;"/>
        <path d="M157.88,31.09c-.9-.52-1.92-.78-3.04-.78s-2.1,.26-3,.79-1.61,1.24-2.14,2.12-.79,1.88-.79,2.99,.26,2.13,.79,3.04c.53,.9,1.24,1.62,2.14,2.15,.9,.53,1.9,.79,3,.79s2.13-.26,3.04-.79,1.62-1.24,2.15-2.15c.53-.9,.79-1.92,.79-3.04s-.26-2.1-.79-3-1.24-1.6-2.15-2.12Zm.23,7.13c-.32,.58-.76,1.04-1.32,1.38-.56,.34-1.21,.5-1.94,.5s-1.34-.17-1.9-.5c-.56-.34-1-.8-1.32-1.38s-.48-1.25-.48-2,.16-1.39,.48-1.97c.32-.58,.76-1.03,1.32-1.36,.56-.33,1.19-.49,1.9-.49s1.38,.16,1.93,.49,.99,.78,1.32,1.36,.49,1.23,.49,1.97-.16,1.42-.48,2Z" style="fill: #09527a;"/>
        <path d="M178.65,30.84c-.66-.35-1.4-.53-2.23-.53s-1.54,.18-2.21,.54c-.67,.36-1.22,.86-1.64,1.49,0,0,0,.03-.02,.04,0-.02-.02-.04-.03-.05-.38-.64-.89-1.14-1.54-1.49s-1.37-.53-2.17-.53-1.55,.18-2.21,.54c-.5,.27-.89,.65-1.22,1.09v-1.39h-2.16v11.4h2.16v-6.89c0-.58,.13-1.06,.38-1.46s.59-.71,1.01-.94c.42-.22,.89-.34,1.42-.34,.78,0,1.44,.24,1.96,.73s.78,1.16,.78,2v6.89h2.16v-6.89c0-.58,.13-1.06,.38-1.46s.6-.71,1.02-.94c.42-.22,.9-.34,1.43-.34,.77,0,1.41,.24,1.93,.73,.52,.49,.78,1.16,.78,2v6.89h2.18v-7.32c0-.9-.2-1.66-.59-2.3s-.92-1.14-1.57-1.49v.02Z" style="fill: #09527a;"/>
        <polygon points="191.7 30.55 188.23 38.63 184.94 30.55 182.54 30.55 187.01 40.96 184.22 46.73 186.62 46.73 188.78 42.05 194.11 30.55 191.7 30.55" style="fill: #09527a;"/>
      </g>
      <g>
        <polygon points="113.69 58.44 121.73 58.44 121.73 56.45 113.69 56.45 113.69 51.36 122.4 51.36 122.4 49.29 113.69 49.29 112.97 49.29 111.43 49.29 111.43 65.95 112.97 65.95 113.69 65.95 122.52 65.95 122.52 63.89 113.69 63.89 113.69 58.44" style="fill: #09527a;"/>
        <path d="M133.28,54.96c-.66-.43-1.43-.65-2.29-.65s-1.64,.2-2.33,.59c-.52,.3-.95,.67-1.3,1.12v-1.47h-2.16v11.4h2.16v-6.65c0-.58,.13-1.09,.38-1.54s.61-.8,1.06-1.06c.45-.25,.96-.38,1.54-.38,.86,0,1.56,.28,2.1,.84,.54,.56,.8,1.27,.8,2.14v6.65h2.18v-7.08c0-.78-.19-1.52-.58-2.22-.38-.7-.91-1.26-1.57-1.69h.01Z" style="fill: #09527a;"/>
        <polygon points="142.95 62.58 139.44 54.55 137.04 54.55 142.27 65.95 143.54 65.95 148.78 54.55 146.47 54.55 142.95 62.58" style="fill: #09527a;"/>
        <path d="M151.73,49.51c-.4,0-.73,.13-.98,.4-.26,.26-.38,.59-.38,.97s.13,.73,.38,1c.26,.26,.58,.4,.98,.4s.73-.13,.98-.4c.26-.26,.38-.6,.38-1s-.13-.71-.38-.97c-.26-.26-.58-.4-.98-.4Z" style="fill: #09527a;"/>
        <rect x="150.62" y="54.55" width="2.18" height="11.4" style="fill: #09527a;"/>
        <path d="M161.25,54.31c-1.26,0-2.23,.43-2.9,1.3-.07,.09-.13,.2-.19,.31v-1.36h-2.16v11.4h2.16v-6.48c0-1.06,.26-1.84,.77-2.35,.51-.51,1.17-.77,1.97-.77,.38,0,.72,.06,1.01,.17s.55,.3,.79,.55l1.42-1.46c-.4-.46-.83-.8-1.3-1-.46-.2-.98-.3-1.56-.3h0Z" style="fill: #09527a;"/>
        <path d="M173.48,55.09c-.9-.52-1.92-.78-3.04-.78s-2.1,.26-3,.79c-.9,.53-1.61,1.24-2.14,2.12s-.79,1.88-.79,2.99,.26,2.13,.79,3.04c.53,.9,1.24,1.62,2.14,2.15s1.9,.79,3,.79,2.13-.26,3.04-.79,1.62-1.24,2.15-2.15c.53-.9,.79-1.92,.79-3.04s-.26-2.1-.79-3-1.24-1.6-2.15-2.12Zm.23,7.13c-.32,.58-.76,1.04-1.32,1.38-.56,.34-1.21,.5-1.94,.5s-1.34-.17-1.9-.5c-.56-.34-1-.8-1.32-1.38s-.48-1.25-.48-2,.16-1.39,.48-1.97c.32-.58,.76-1.03,1.32-1.36,.56-.33,1.19-.49,1.9-.49s1.38,.16,1.93,.49,.99,.78,1.32,1.36,.49,1.23,.49,1.97-.16,1.42-.48,2Z" style="fill: #09527a;"/>
        <path d="M186.9,54.96c-.66-.43-1.43-.65-2.29-.65s-1.64,.2-2.33,.59c-.52,.3-.95,.67-1.3,1.12v-1.47h-2.16v11.4h2.16v-6.65c0-.58,.13-1.09,.38-1.54s.61-.8,1.06-1.06c.45-.25,.96-.38,1.54-.38,.86,0,1.56,.28,2.1,.84,.54,.56,.8,1.27,.8,2.14v6.65h2.18v-7.08c0-.78-.19-1.52-.58-2.22-.38-.7-.91-1.26-1.57-1.69h.01Z" style="fill: #09527a;"/>
        <path d="M207.41,54.84c-.66-.35-1.4-.53-2.23-.53s-1.54,.18-2.21,.54c-.67,.36-1.22,.86-1.64,1.49,0,0,0,.03-.02,.04,0-.02-.02-.04-.03-.05-.38-.64-.89-1.14-1.54-1.49-.65-.35-1.37-.53-2.17-.53s-1.55,.18-2.21,.54c-.5,.27-.89,.65-1.22,1.09v-1.39h-2.16v11.4h2.16v-6.89c0-.58,.13-1.06,.38-1.46s.59-.71,1.01-.94c.42-.22,.89-.34,1.42-.34,.78,0,1.44,.24,1.96,.73s.78,1.16,.78,2v6.89h2.16v-6.89c0-.58,.13-1.06,.38-1.46s.6-.71,1.02-.94c.42-.22,.9-.34,1.43-.34,.77,0,1.41,.24,1.93,.73,.52,.49,.78,1.16,.78,2v6.89h2.18v-7.32c0-.9-.2-1.66-.59-2.3s-.92-1.14-1.57-1.49v.02Z" style="fill: #09527a;"/>
        <path d="M220.41,55.03c-.82-.48-1.74-.72-2.78-.72-1.1,0-2.1,.26-2.99,.78s-1.59,1.23-2.11,2.12c-.52,.9-.78,1.9-.78,3.02s.26,2.15,.79,3.05,1.24,1.6,2.15,2.12c.9,.52,1.93,.78,3.08,.78,.9,0,1.74-.17,2.52-.5s1.46-.82,2.02-1.46l-1.39-1.42c-.38,.45-.84,.78-1.38,1.01-.54,.22-1.12,.34-1.76,.34-.77,0-1.45-.16-2.04-.49s-1.05-.79-1.37-1.39c-.2-.37-.32-.77-.4-1.21h8.92c.05-.22,.08-.43,.1-.61s.02-.36,.02-.52c0-1.09-.23-2.06-.68-2.9-.46-.85-1.09-1.51-1.91-1.99h-.01Zm-4.78,1.74c.56-.32,1.21-.48,1.94-.48s1.3,.15,1.8,.44c.5,.3,.88,.71,1.15,1.25,.18,.36,.28,.79,.34,1.26h-6.91c.07-.41,.19-.79,.37-1.13,.3-.58,.74-1.02,1.3-1.34h.01Z" style="fill: #09527a;"/>
        <path d="M233.43,54.96c-.66-.43-1.43-.65-2.29-.65s-1.64,.2-2.33,.59c-.52,.3-.95,.67-1.3,1.12v-1.47h-2.16v11.4h2.16v-6.65c0-.58,.13-1.09,.38-1.54s.61-.8,1.06-1.06c.45-.25,.96-.38,1.54-.38,.86,0,1.56,.28,2.1,.84,.54,.56,.8,1.27,.8,2.14v6.65h2.18v-7.08c0-.78-.19-1.52-.58-2.22-.38-.7-.91-1.26-1.57-1.69h.01Z" style="fill: #09527a;"/>
        <polygon points="245.23 54.55 242.42 54.55 242.42 49.77 240.26 49.77 240.26 54.55 237.45 54.55 237.45 56.52 240.26 56.52 240.26 65.95 242.42 65.95 242.42 56.52 245.23 56.52 245.23 54.55" style="fill: #09527a;"/>
      </g>
    </g>
  </g>
  <g>
    <polygon points="14.7 107.95 34.03 107.95 34.03 101.89 14.7 101.89 14.7 90.67 35.76 90.67 35.76 84.37 14.7 84.37 12.54 84.37 7.8 84.37 7.8 126.37 12.54 126.37 14.7 126.37 36.07 126.37 36.07 120.07 14.7 120.07 14.7 107.95" style="fill: #09527a;"/>
    <path d="M62.97,102.25c-1.64-.98-3.47-1.48-5.48-1.54l10.67-12.26v-4.08h-25.98v6.18h16.05l-9.57,11.16v4.08c.6-.2,1.28-.35,2.04-.45,.76-.1,1.5-.15,2.22-.15,1.84,0,3.41,.31,4.71,.93s2.3,1.49,3,2.61,1.05,2.48,1.05,4.08-.35,2.86-1.05,4.02c-.7,1.16-1.67,2.06-2.91,2.7s-2.72,.96-4.44,.96-3.46-.38-4.98-1.14-2.7-1.78-3.54-3.06l-4.68,4.68c1.56,1.96,3.47,3.45,5.73,4.47s4.79,1.53,7.59,1.53c3.04,0,5.7-.58,7.98-1.74,2.28-1.16,4.06-2.78,5.34-4.86s1.92-4.48,1.92-7.2c0-2.52-.51-4.71-1.53-6.57s-2.4-3.31-4.14-4.35Z" style="fill: #09527a;"/>
    <path d="M106.32,109.93h13.37c-.25,1.63-.69,3.09-1.37,4.35-1.08,2.02-2.63,3.54-4.65,4.56-2.02,1.02-4.43,1.53-7.23,1.53-2.64,0-5-.64-7.08-1.92s-3.73-3.05-4.95-5.31c-1.22-2.26-1.83-4.87-1.83-7.83s.6-5.56,1.8-7.8c1.2-2.24,2.89-3.99,5.07-5.25s4.71-1.89,7.59-1.89c2.4,0,4.64,.47,6.72,1.41s3.74,2.29,4.98,4.05l4.68-4.68c-1.92-2.36-4.3-4.18-7.14-5.46s-5.92-1.92-9.24-1.92c-3.04,0-5.87,.55-8.49,1.65-2.62,1.1-4.9,2.64-6.84,4.62-1.94,1.98-3.46,4.27-4.56,6.87-1.1,2.6-1.65,5.4-1.65,8.4s.55,5.81,1.65,8.43,2.61,4.92,4.53,6.9,4.16,3.53,6.72,4.65,5.28,1.68,8.16,1.68c3.96,0,7.48-.82,10.56-2.46,3.08-1.64,5.51-4.12,7.29-7.44s2.67-7.48,2.67-12.48v-.96h-20.76v6.3h0Z" style="fill: #09527a;"/>
    <path d="M151.02,97.75c-1.16-.52-2.46-.78-3.9-.78-3.28,0-5.73,1.13-7.35,3.39-.05,.07-.1,.16-.15,.23v-3.02h-6.6v28.8h6.6v-16.02c0-2.48,.6-4.3,1.8-5.46,1.2-1.16,2.72-1.74,4.56-1.74,.84,0,1.58,.12,2.22,.36s1.22,.64,1.74,1.2l4.32-4.44c-1-1.16-2.08-2-3.24-2.52h0Z" style="fill: #09527a;"/>
    <path d="M177.48,98.95c-2.28-1.32-4.84-1.98-7.68-1.98s-5.34,.67-7.62,2.01c-2.28,1.34-4.09,3.13-5.43,5.37-1.34,2.24-2.01,4.76-2.01,7.56s.67,5.34,2.01,7.62,3.15,4.09,5.43,5.43c2.28,1.34,4.82,2.01,7.62,2.01s5.4-.67,7.68-2.01c2.28-1.34,4.09-3.15,5.43-5.43s2.01-4.82,2.01-7.62-.67-5.33-2.01-7.59-3.15-4.05-5.43-5.37Zm-.39,17.46c-.7,1.32-1.68,2.35-2.94,3.09-1.26,.74-2.71,1.11-4.35,1.11s-3.03-.37-4.29-1.11-2.24-1.77-2.94-3.09-1.05-2.82-1.05-4.5,.35-3.16,1.05-4.44,1.68-2.29,2.94-3.03c1.26-.74,2.69-1.11,4.29-1.11s3.08,.37,4.32,1.11,2.22,1.75,2.94,3.03,1.08,2.76,1.08,4.44-.35,3.18-1.05,4.5Z" style="fill: #09527a;"/>
    <path d="M208.14,114.01c0,2.12-.51,3.75-1.53,4.89s-2.49,1.71-4.41,1.71c-1.24,0-2.31-.26-3.21-.78-.9-.52-1.58-1.27-2.04-2.25-.46-.98-.69-2.17-.69-3.57v-16.44h-6.6v16.74c0,2.48,.53,4.67,1.59,6.57s2.54,3.39,4.44,4.47c1.9,1.08,4.07,1.62,6.51,1.62s4.66-.53,6.54-1.59c1.88-1.06,3.35-2.54,4.41-4.44s1.59-4.11,1.59-6.63v-16.74h-6.6v16.44h0Z" style="fill: #09527a;"/>
    <path d="M248.85,104.38c-1.22-2.26-2.88-4.06-4.98-5.4-2.1-1.34-4.45-2.01-7.05-2.01-2.16,0-4.1,.47-5.82,1.41-1.17,.64-2.16,1.46-3,2.42v-3.23h-6.6v40.8h6.6v-15.18c.82,.94,1.79,1.74,2.94,2.37,1.72,.94,3.68,1.41,5.88,1.41,2.6,0,4.95-.66,7.05-1.98s3.76-3.11,4.98-5.37,1.83-4.79,1.83-7.59-.61-5.39-1.83-7.65Zm-6,12.15c-.7,1.32-1.66,2.35-2.88,3.09s-2.63,1.11-4.23,1.11-3.02-.37-4.26-1.11c-1.24-.74-2.2-1.77-2.88-3.09-.68-1.32-1.02-2.84-1.02-4.56s.34-3.24,1.02-4.56c.68-1.32,1.64-2.35,2.88-3.09s2.66-1.11,4.26-1.11,3.01,.37,4.23,1.11,2.18,1.77,2.88,3.09c.7,1.32,1.05,2.84,1.05,4.56s-.35,3.24-1.05,4.56Z" style="fill: #09527a;"/>
  </g>
</svg>