<?xml version="1.0" encoding="UTF-8"?>
<svg xmlns="http://www.w3.org/2000/svg" viewBox="0 0 1300 570">
  <defs>
    <style>
      .fill-m-bg {
        fill: #fff;
      }

      .fill-m {
        fill: #0a557e;
      }

      .stroke-m stroke-4 {
        stroke: #0a557e;
      }

      .stroke-m stroke-4, .stroke-s stroke-4 {
        fill: none;
        stroke-miterlimit: 10;
        stroke-width: 4px;
      }

      .fill-r-red {
        fill: #db7476;
      }

      .fill-m-3 {
        fill: #badcea;
      }

      .fill-m-2 {
        fill: #4caedd;
      }

      .stroke-s stroke-4 {
        stroke: #c4c691;
      }
    </style>
  </defs>
  <rect class="fill-m" y="375.25" width="1300" height="5"/>
  <polyline class="stroke-s stroke-4" points="1072.01 405 1058.01 418.5 1140.09 418.5 1154.09 405"/>
  <polyline class="stroke-s stroke-4" points="962 405 948 418.5 1058.01 418.5 1072.01 405"/>
  <polyline class="stroke-s stroke-4" points="108.01 405 94 418.5 192.99 418.5 207.01 405"/>
  <polyline class="stroke-s stroke-4" points="207.01 405 192.99 418.5 328.99 418.5 343.01 405"/>
  <polyline class="stroke-s stroke-4" points="482 405 468 418.5 636 418.5 650 405"/>
  <polyline class="stroke-s stroke-4" points="650 405 636 418.5 804 418.5 818 405"/>
  <rect class="fill-m" x="799" y="52.5" width="87" height="6" transform="translate(1685 111) rotate(180)"/>
  <rect class="fill-m" x="781.5" y="52.5" width="6" height="6" transform="translate(1569 111) rotate(180)"/>
  <rect class="fill-m" x="910" y="109.5" width="87" height="6"/>
  <rect class="fill-m" x="1008.5" y="109.5" width="6" height="6"/>
  <rect class="fill-m" x="303" y="52.5" width="87" height="6" transform="translate(693 111) rotate(180)"/>
  <rect class="fill-m" x="285.5" y="52.5" width="6" height="6" transform="translate(577 111) rotate(180)"/>
  <rect class="fill-m" x="414" y="109.5" width="87" height="6"/>
  <rect class="fill-m" x="512.5" y="109.5" width="6" height="6"/>
  <g>
    <polygon class="fill-m" points="711.42 406.25 686.67 328.73 701.39 280.25 687.42 280.25 701.39 234.25 687.42 234.25 701.39 188.25 687.42 188.25 701.39 142.25 687.42 142.25 701.39 96.25 687.42 96.25 701.39 50.25 666.17 50.25 669.92 26.25 654 26.25 654 -1.25 647 -1.25 647 26.25 630.33 26.25 634.08 50.25 598.86 50.25 612.83 96.25 598.86 96.25 612.83 142.25 598.86 142.25 612.83 188.25 598.86 188.25 612.83 234.25 598.86 234.25 612.83 280.25 598.86 280.25 613.46 328.33 588.58 406.25 711.42 406.25"/>
    <polygon class="fill-r-red" points="636.17 31.25 664.08 31.25 661.11 50.25 639.14 50.25 636.17 31.25"/>
    <polygon class="fill-m-2" points="605.6 55.25 646.5 55.25 646.5 60.75 653.5 60.75 653.5 55.25 694.65 55.25 682.2 96.25 618.05 96.25 605.6 55.25"/>
    <polygon class="fill-m-2" points="605.6 101.25 646.5 101.25 646.5 106.75 653.5 106.75 653.5 101.25 694.65 101.25 682.2 142.25 618.05 142.25 605.6 101.25"/>
    <polygon class="fill-m-2" points="605.6 147.25 646.5 147.25 646.5 152.75 653.5 152.75 653.5 147.25 694.65 147.25 682.2 188.25 618.05 188.25 605.6 147.25"/>
    <polygon class="fill-m-2" points="605.6 193.25 646.5 193.25 646.5 198.75 653.5 198.75 653.5 193.25 694.65 193.25 682.2 234.25 618.05 234.25 605.6 193.25"/>
    <polygon class="fill-m-2" points="605.6 239.25 646.5 239.25 646.5 244.75 653.5 244.75 653.5 239.25 694.65 239.25 682.2 280.25 618.05 280.25 605.6 239.25"/>
    <path class="fill-m-2" d="M682.23,331.25h-18.73c-1.18,6.38-6.78,11.23-13.49,11.23s-12.31-4.85-13.49-11.23h-18.73l-22.35,70h109.15l-22.35-70Z"/>
    <path class="fill-m-2" d="M653.5,285.25v5.5h-7v-5.5h-40.9l12.45,41h18.46c1.18-6.38,6.78-11.23,13.49-11.23s12.31,4.85,13.49,11.23h18.71l12.45-41h-41.15Z"/>
    <circle class="fill-m-bg" cx="650" cy="328.75" r="8.73"/>
  </g>
  <g>
    <path class="fill-m" d="M1120,452.5h-73.06v21.5h-16.58l-8.36,14.17v22.05h7.64c.94,2.88,3.64,4.97,6.83,4.97s5.89-2.09,6.83-4.97h50.87c.94,2.88,3.64,4.97,6.83,4.97s5.89-2.09,6.83-4.97h12.17v-57.71Z"/>
    <path class="fill-m-bg" d="M1101,504.82c-1.76,0-3.18,1.43-3.18,3.18s1.43,3.18,3.18,3.18,3.18-1.43,3.18-3.18-1.43-3.18-3.18-3.18Z"/>
    <circle class="fill-m-bg" cx="1036.47" cy="508" r="3.18"/>
    <path class="fill-m-3" d="M1050.94,456.5v49.71h43.11c.8-3.1,3.61-5.4,6.95-5.4s6.15,2.3,6.95,5.4h8.05v-49.71h-65.06Z"/>
    <path class="fill-m-3" d="M1032.64,478l-6.64,11.26v16.96h3.52c.8-3.1,3.61-5.4,6.95-5.4s6.15,2.3,6.95,5.4h3.52v-28.21h-14.3Z"/>
  </g>
  <g>
    <path class="fill-m" d="M394,488.17l-8.36-14.17h-36.51l-25.63,13.51v22.71h14.67c.94,2.88,3.64,4.97,6.83,4.97s5.89-2.09,6.83-4.97h20.87c.94,2.88,3.64,4.97,6.83,4.97s5.89-2.09,6.83-4.97h7.64v-22.05Z"/>
    <path class="fill-m-3" d="M383.36,478h-33.24l-22.62,11.92v16.3h10.55c.8-3.1,3.61-5.4,6.95-5.4s6.15,2.3,6.95,5.4h20.63c.8-3.1,3.61-5.4,6.95-5.4s6.15,2.3,6.95,5.4h3.52v-16.96l-6.64-11.26Z"/>
    <path class="fill-m-bg" d="M379.53,504.82c-1.76,0-3.18,1.43-3.18,3.18s1.43,3.18,3.18,3.18,3.18-1.43,3.18-3.18-1.43-3.18-3.18-3.18Z"/>
    <circle class="fill-m-bg" cx="345" cy="508" r="3.18"/>
  </g>
  <g>
    <path class="fill-m" d="M840.5,490.5h-29.5v16h-6.81l8.43-31h-13.72l-6.97,25.62c-2.96,.89-5.12,3.63-5.12,6.88,0,3.96,3.22,7.18,7.18,7.18,3.08,0,5.71-1.95,6.73-4.68h18.3c1.02,2.73,3.64,4.68,6.73,4.68s5.71-1.95,6.73-4.68h8.02v-20Z"/>
    <path class="fill-m-3" d="M815,494.5v12h3.73c.69-3.24,3.58-5.68,7.02-5.68s6.33,2.44,7.02,5.68h3.73v-12h-21.5Z"/>
    <path class="fill-m-3" d="M800.47,504.91l6.91-25.41h-5.42l-5.88,21.63c1.94,.59,3.53,1.98,4.4,3.78Z"/>
    <circle class="fill-m-bg" cx="825.75" cy="508" r="3.18"/>
    <circle class="fill-m-bg" cx="794" cy="508" r="3.18"/>
  </g>
  <g>
    <path class="fill-m" d="M709,527.5h29.5v16h6.81l-8.43-31h13.72l6.97,25.62c2.96,.89,5.12,3.63,5.12,6.88,0,3.96-3.22,7.18-7.18,7.18-3.08,0-5.71-1.95-6.73-4.68h-18.3c-1.02,2.73-3.64,4.68-6.73,4.68s-5.71-1.95-6.73-4.68h-8.02v-20Z"/>
    <path class="fill-m-3" d="M734.5,531.5v12h-3.73c-.69-3.24-3.58-5.68-7.02-5.68s-6.33,2.44-7.02,5.68h-3.73v-12h21.5Z"/>
    <path class="fill-m-3" d="M749.03,541.91l-6.91-25.41h5.42l5.88,21.63c-1.94,.59-3.53,1.98-4.4,3.78Z"/>
    <circle class="fill-m-bg" cx="723.75" cy="545" r="3.18"/>
    <circle class="fill-m-bg" cx="755.5" cy="545" r="3.18"/>
    <line class="stroke-s stroke-4" x1="681.5" y1="539.5" x2="701.5" y2="539.5"/>
  </g>
  <g>
    <path class="fill-m" d="M191,489.5h73.06v21.5h16.58l8.36,14.17v22.05h-7.64c-.94,2.88-3.64,4.97-6.83,4.97s-5.89-2.09-6.83-4.97h-50.87c-.94,2.88-3.64,4.97-6.83,4.97s-5.89-2.09-6.83-4.97h-12.17v-57.71Z"/>
    <path class="fill-m-bg" d="M210,541.82c1.76,0,3.18,1.43,3.18,3.18s-1.43,3.18-3.18,3.18-3.18-1.43-3.18-3.18,1.43-3.18,3.18-3.18Z"/>
    <circle class="fill-m-bg" cx="274.53" cy="545" r="3.18"/>
    <path class="fill-m-3" d="M260.06,493.5v49.71h-43.11c-.8-3.1-3.61-5.4-6.95-5.4s-6.15,2.3-6.95,5.4h-8.05v-49.71h65.06Z"/>
    <path class="fill-m-3" d="M278.36,515l6.64,11.26v16.96h-3.52c-.8-3.1-3.61-5.4-6.95-5.4s-6.15,2.3-6.95,5.4h-3.52v-28.21h14.3Z"/>
    <line class="stroke-s stroke-4" x1="142.5" y1="523.36" x2="182" y2="523.36"/>
    <line class="stroke-s stroke-4" x1="153" y1="535.36" x2="182" y2="535.36"/>
  </g>
  <g>
    <path class="fill-m" d="M1009.25,521.84l-12.36-20.84h-125.64v46.21h11.67c.94,2.88,3.64,4.97,6.83,4.97s5.89-2.09,6.83-4.97h87.34c.94,2.88,3.64,4.97,6.83,4.97s5.89-2.09,6.83-4.97h11.67v-25.37Z"/>
    <path class="fill-m-bg" d="M990.75,541.82c-1.76,0-3.18,1.43-3.18,3.18s1.43,3.18,3.18,3.18,3.18-1.43,3.18-3.18-1.43-3.18-3.18-3.18Z"/>
    <path class="fill-m-bg" d="M889.75,541.82c-1.76,0-3.18,1.43-3.18,3.18s1.43,3.18,3.18,3.18,3.18-1.43,3.18-3.18-1.43-3.18-3.18-3.18Z"/>
    <path class="fill-m-3" d="M994.61,505h-119.36v38.21h7.55c.8-3.1,3.61-5.4,6.95-5.4s6.15,2.3,6.95,5.4h87.1c.8-3.1,3.61-5.4,6.95-5.4s6.15,2.3,6.95,5.4h7.55v-20.27l-10.64-17.94Z"/>
  </g>
  <g>
    <path class="fill-m" d="M546.25,484.84l12.36-20.84h125.64v46.21h-11.67c-.94,2.88-3.64,4.97-6.83,4.97s-5.89-2.09-6.83-4.97h-87.34c-.94,2.88-3.64,4.97-6.83,4.97s-5.89-2.09-6.83-4.97h-11.67v-25.37Z"/>
    <path class="fill-m-bg" d="M564.75,504.82c1.76,0,3.18,1.43,3.18,3.18s-1.43,3.18-3.18,3.18-3.18-1.43-3.18-3.18,1.43-3.18,3.18-3.18Z"/>
    <path class="fill-m-bg" d="M665.75,504.82c1.76,0,3.18,1.43,3.18,3.18s-1.43,3.18-3.18,3.18-3.18-1.43-3.18-3.18,1.43-3.18,3.18-3.18Z"/>
    <path class="fill-m-3" d="M560.89,468h119.36v38.21h-7.55c-.8-3.1-3.61-5.4-6.95-5.4s-6.15,2.3-6.95,5.4h-87.1c-.8-3.1-3.61-5.4-6.95-5.4s-6.15,2.3-6.95,5.4h-7.55v-20.27l10.64-17.94Z"/>
  </g>
  <g>
    <polygon class="fill-m" points="485.2 189.24 485.2 209.26 479.2 209.26 479.2 189.24 438.86 196.87 438.86 407.76 525.54 407.76 525.54 196.87 485.2 189.24"/>
    <polygon class="fill-m-3" points="490.2 402.76 520.54 402.76 520.54 201.01 490.2 195.28 490.2 402.76"/>
    <polygon class="fill-m-3" points="443.86 402.76 474.2 402.76 474.2 195.28 443.86 201.01 443.86 402.76"/>
    <rect class="fill-m-bg" x="479.2" y="214.26" width="6" height="188.5"/>
  </g>
  <g>
    <polygon class="fill-m" points="863.39 197.26 852.63 197.26 852.87 189.5 778.02 189.5 771.26 407.5 867.1 407.5 863.39 197.26"/>
    <polygon class="fill-m-3" points="776.42 402.5 841.26 402.5 847.71 194.5 782.87 194.5 776.42 402.5"/>
    <polygon class="fill-m-bg" points="846.27 402.5 862.01 402.5 858.48 202.26 852.48 202.26 846.27 402.5"/>
  </g>
  <g>
    <polygon class="fill-m" points="366.5 156.15 366.5 143.85 309.71 197.58 309.71 409.15 379.5 409.15 379.5 143.85 366.5 156.15"/>
    <polygon class="fill-m-bg" points="366.5 163.03 366.5 404.15 374.5 404.15 374.5 155.46 366.5 163.03"/>
    <polygon class="fill-m-3" points="314.71 404.15 361.5 404.15 361.5 155.46 314.71 199.73 314.71 404.15"/>
  </g>
  <g>
    <rect class="fill-m" x="1132.59" y="331" width="43" height="76"/>
    <rect class="fill-m-3" x="1136.59" y="335" width="35" height="68"/>
    <polygon class="fill-m" points="1156.37 366.86 1152.56 365.64 1154.36 360 1148.36 360 1151.81 349.14 1155.62 350.36 1153.83 356 1159.83 356 1156.37 366.86"/>
  </g>
  <g>
    <polygon class="fill-m" points="177.81 344 176.63 350.78 167.34 350.78 157.53 407 255.87 407 266.87 344 177.81 344"/>
    <polygon class="fill-m-bg" points="181.17 348 180.69 350.78 258.44 350.78 249.32 403 252.51 403 262.11 348 181.17 348"/>
    <polygon class="fill-m-3" points="193.3 385.89 195.73 371.89 222.67 371.89 220.24 385.89 193.3 385.89"/>
    <polygon class="fill-m-3" points="219.55 389.89 217.28 403 190.34 403 192.61 389.89 219.55 389.89"/>
    <polygon class="fill-m-3" points="189.24 385.89 165.28 385.89 167.72 371.89 191.67 371.89 189.24 385.89"/>
    <polygon class="fill-m-3" points="196.42 367.89 198.69 354.78 225.63 354.78 223.36 367.89 196.42 367.89"/>
    <polygon class="fill-m-3" points="226.73 371.89 250.69 371.89 248.25 385.89 224.3 385.89 226.73 371.89"/>
    <polygon class="fill-m-3" points="227.42 367.89 229.69 354.78 253.68 354.78 251.39 367.89 227.42 367.89"/>
    <polygon class="fill-m-3" points="194.63 354.78 192.36 367.89 168.42 367.89 170.71 354.78 194.63 354.78"/>
    <polygon class="fill-m-3" points="164.58 389.89 188.55 389.89 186.28 403 162.29 403 164.58 389.89"/>
    <polygon class="fill-m-3" points="221.34 403 223.61 389.89 247.55 389.89 245.26 403 221.34 403"/>
  </g>
  <g>
    <path class="fill-m" d="M995,341V205.5c0-7.89-20.74-10-33-10s-33,2.11-33,10v135.5c0,2.57,2.21,4.53,5.61,6-3.17,1.37-5.3,3.17-5.57,5.5h-.04v51.5c0,7.89,20.74,10,33,10s33-2.11,33-10v-51.5h-.04c-.27-2.33-2.4-4.13-5.57-5.5,3.4-1.47,5.61-3.43,5.61-6Z"/>
    <path class="fill-m-bg" d="M962,363c-8.5,0-21.09-1.02-28-4.27v45.14c1.11,1.88,11.22,5.13,28,5.13s26.89-3.25,28-5.13v-45.14c-6.91,3.26-19.5,4.27-28,4.27Z"/>
    <path class="fill-m-bg" d="M962,351c-5.28,0-12.14-.39-18.23-1.47-5.52,1.05-8.87,2.44-9.68,3.47,1.48,1.89,11.52,5,27.91,5s26.43-3.11,27.91-5c-.81-1.03-4.16-2.42-9.68-3.47-6.09,1.08-12.95,1.47-18.23,1.47Z"/>
    <path class="fill-m-3" d="M962,215.5c-8.5,0-21.09-1.02-28-4.27v129.64c1.11,1.88,11.22,5.13,28,5.13s26.89-3.25,28-5.13V211.23c-6.91,3.26-19.5,4.27-28,4.27Z"/>
    <path class="fill-m-3" d="M934.09,205.5c1.48,1.89,11.52,5,27.91,5s26.43-3.11,27.91-5c-1.48-1.89-11.52-5-27.91-5s-26.43,3.11-27.91,5Z"/>
  </g>
  <g>
    <polygon class="fill-m" points="114.85 351 114.85 345 100.85 345 100.85 351 93.85 351 93.85 407 121.85 407 121.85 351 114.85 351"/>
    <rect class="fill-m-3" x="104.85" y="349" width="6" height="2"/>
    <rect class="fill-m-3" x="97.85" y="355" width="20" height="48"/>
    <polygon class="fill-m" points="110.13 384.86 106.32 383.64 108.12 378 102.12 378 105.57 367.14 109.38 368.36 107.59 374 113.59 374 110.13 384.86"/>
  </g>
  <g>
    <path class="fill-m" d="M412.5,525.17l8.36-14.17h36.51l25.63,13.51v22.71h-14.67c-.94,2.88-3.64,4.97-6.83,4.97s-5.89-2.09-6.83-4.97h-20.87c-.94,2.88-3.64,4.97-6.83,4.97s-5.89-2.09-6.83-4.97h-7.64v-22.05Z"/>
    <path class="fill-m-3" d="M423.14,515h33.24l22.62,11.92v16.3h-10.55c-.8-3.1-3.61-5.4-6.95-5.4s-6.15,2.3-6.95,5.4h-20.63c-.8-3.1-3.61-5.4-6.95-5.4s-6.15,2.3-6.95,5.4h-3.52v-16.96l6.64-11.26Z"/>
    <path class="fill-m-bg" d="M426.97,541.82c1.76,0,3.18,1.43,3.18,3.18s-1.43,3.18-3.18,3.18-3.18-1.43-3.18-3.18,1.43-3.18,3.18-3.18Z"/>
    <circle class="fill-m-bg" cx="461.5" cy="545" r="3.18"/>
    <line class="stroke-m stroke-4" x1="383" y1="531.68" x2="405" y2="531.68"/>
    <line class="stroke-m stroke-4" x1="388.85" y1="542.36" x2="405" y2="542.36"/>
  </g>
  <g>
    <g>
      <polygon class="fill-m" points="1064.66 407 1079.35 407 1075.97 310.08 1068.04 310.08 1064.66 407"/>
      <path class="fill-m-bg" d="M1072,316.89c-.07,0-.13-.02-.2-.02l-3.01,86.12h6.42l-3.01-86.12c-.07,0-.13,.02-.2,.02Z"/>
    </g>
    <g>
      <path class="fill-m" d="M1083.44,309.52l-4.73-.6c-.24-1.38-.88-2.65-1.89-3.66-.15-.15-.3-.28-.46-.42l1.84-4.4v-36.8h-12.4v36.8l1.84,4.4c-.16,.13-.31,.27-.46,.42-1.01,1.01-1.66,2.28-1.89,3.66l-4.73,.6-31.87,18.4,6.2,10.74,31.87-18.4,2.89-3.79c.74,.27,1.54,.42,2.35,.42s1.61-.15,2.35-.42l2.89,3.79,31.87,18.4,6.2-10.74-31.87-18.4Z"/>
      <path class="fill-m-3" d="M1065.8,312.89l-3.93,.5-27.71,16,2.2,3.81,27.71-16,2.4-3.16c-.26-.37-.49-.75-.67-1.16Z"/>
      <path class="fill-m-3" d="M1082.14,313.39l-3.93-.5c-.18,.41-.41,.79-.67,1.16l2.4,3.16,27.71,16,2.2-3.81-27.71-16Z"/>
      <path class="fill-m-3" d="M1072,303.26c.23,0,.45,.01,.67,.03l1.53-3.65v-31.99h-4.4v31.99l1.53,3.65c.22-.02,.45-.03,.67-.03Z"/>
      <circle class="fill-m-bg" cx="1072" cy="310.07" r="2.81"/>
    </g>
  </g>
</svg>