<?xml version="1.0" encoding="UTF-8"?>
<svg id="uuid-69f4372d-3cd3-4e79-84a4-ed5eb556a4fd" data-name="圖層 1" xmlns="http://www.w3.org/2000/svg" viewBox="0 0 512 210">
  <g>
    <rect x="178.7" y="29" width="3.1" height="34.3" style="fill: #d32736;"/>
    <rect x="169.7" y="29" width="3.1" height="34.3" style="fill: #d32736;"/>
    <rect x="160.8" y="14.6" width="3.1" height="48.7" style="fill: #d32736;"/>
    <rect x="151.9" y="14.6" width="3.1" height="48.7" style="fill: #d32736;"/>
    <rect x="142.9" y="14.6" width="3.1" height="48.7" style="fill: #d32736;"/>
    <rect x="134" y="29" width="3.1" height="34.3" style="fill: #d32736;"/>
    <rect x="125.1" y="29" width="3.1" height="34.3" style="fill: #d32736;"/>
    <rect x="116.1" y="21.8" width="3.1" height="41.5" style="fill: #d32736;"/>
    <rect x="107.2" y="14.1" width="3.1" height="49.1" style="fill: #d32736;"/>
    <rect x="98.3" y="7.7" width="3.1" height="55.6" style="fill: #d32736;"/>
    <rect x="89.3" width="3.1" height="63.3" style="fill: #d32736;"/>
    <rect x="80.4" y="7.7" width="3.1" height="55.6" style="fill: #d32736;"/>
    <rect x="71.5" y="14.1" width="3.1" height="49.1" style="fill: #d32736;"/>
    <rect x="62.5" y="21.8" width="3.1" height="41.5" style="fill: #d32736;"/>
    <rect x="53.6" y="29" width="3.1" height="34.3" style="fill: #d32736;"/>
    <rect x="44.7" y="29" width="3.1" height="34.3" style="fill: #d32736;"/>
    <rect x="35.7" y="14.6" width="3.1" height="48.7" style="fill: #d32736;"/>
    <rect x="26.8" y="14.6" width="3.1" height="48.7" style="fill: #d32736;"/>
    <rect x="17.9" y="14.6" width="3.1" height="48.7" style="fill: #d32736;"/>
    <rect x="8.9" y="29" width="3.1" height="34.3" style="fill: #d32736;"/>
    <rect y="29" width="3.1" height="34.3" style="fill: #d32736;"/>
    <rect x="178.7" y="94.8" width="3.1" height="100.5" style="fill: #d32736;"/>
    <rect x="169.7" y="94.8" width="3.1" height="100.5" style="fill: #d32736;"/>
    <rect x="160.8" y="94.8" width="3.1" height="100.5" style="fill: #d32736;"/>
    <rect x="151.9" y="94.8" width="3.1" height="100.5" style="fill: #d32736;"/>
    <rect x="142.9" y="94.8" width="3.1" height="100.5" style="fill: #d32736;"/>
    <rect x="134" y="94.8" width="3.1" height="100.5" style="fill: #d32736;"/>
    <rect x="125.1" y="94.8" width="3.1" height="100.5" style="fill: #d32736;"/>
    <rect x="116.1" y="94.8" width="3.1" height="100.5" style="fill: #d32736;"/>
    <rect x="107.2" y="94.8" width="3.1" height="100.5" style="fill: #d32736;"/>
    <rect x="71.5" y="94.8" width="3.1" height="100.5" style="fill: #d32736;"/>
    <rect x="62.5" y="94.8" width="3.1" height="100.5" style="fill: #d32736;"/>
    <rect x="53.6" y="94.8" width="3.1" height="100.5" style="fill: #d32736;"/>
    <rect x="44.7" y="94.8" width="3.1" height="100.5" style="fill: #d32736;"/>
    <rect x="35.7" y="94.8" width="3.1" height="100.5" style="fill: #d32736;"/>
    <rect x="26.8" y="94.8" width="3.1" height="100.5" style="fill: #d32736;"/>
    <rect x="17.9" y="94.8" width="3.1" height="100.5" style="fill: #d32736;"/>
    <rect x="8.9" y="94.8" width="3.1" height="100.5" style="fill: #d32736;"/>
    <rect y="94.8" width="3.1" height="100.5" style="fill: #d32736;"/>
  </g>
  <g>
    <path d="M261.5,178.2c0,3.6-.8,6.4-2.4,8.2-1.6,1.9-3.9,2.8-7,2.8s-5.3-.9-6.9-2.8c-1.5-1.8-2.3-4.6-2.3-8.3v-26.1h-9v27.6c0,6,1.5,10.5,4.5,13.5s7.6,4.5,13.8,4.5,10.6-1.5,13.6-4.5,4.5-7.5,4.5-13.5v-27.6h-9v26.2h.2Z" style="fill: #202b65;"/>
    <path d="M318.7,150.5c-1.3,0-2.4,.5-3.4,1.5-.9,1-1.4,2.2-1.4,3.5,0,1.4,.5,2.5,1.4,3.5s2.1,1.5,3.4,1.5,2.5-.5,3.4-1.5c1-1,1.4-2.2,1.4-3.6s-.5-2.6-1.4-3.6c-.9-.8-2-1.3-3.4-1.3" style="fill: #202b65;"/>
    <rect x="314.8" y="166.7" width="8.2" height="29.7" style="fill: #202b65;"/>
    <polygon points="343.1 186.6 336.9 166.7 327.4 166.7 338.9 196.5 347.1 196.5 358.7 166.7 349.4 166.7 343.1 186.6" style="fill: #202b65;"/>
    <path d="M374.8,165.7c-4.4,0-7.9,1.5-10.7,4.5-2.8,3-4.2,6.9-4.2,11.5s1.3,8.7,4,11.6c2.7,2.9,6.3,4.3,10.9,4.3,3,0,5.6-.6,7.8-1.9,2.2-1.3,4.1-3.2,5.6-5.8l-6.6-3.5c-.7,1.2-1.6,2.2-2.7,2.8s-2.4,.9-3.9,.9c-2,0-3.5-.5-4.7-1.6s-1.9-2.7-2.2-4.8h21.2c.1-.6,.1-1.1,.1-1.4v-.9c0-4.9-1.3-8.7-3.9-11.5-2.6-2.7-6.2-4.2-10.7-4.2m-6.5,12.8c.3-1.9,1-3.3,2.1-4.3s2.6-1.4,4.4-1.4,3.3,.5,4.4,1.4c1.1,1,1.7,2.4,1.9,4.3h-12.8Z" style="fill: #202b65;"/>
    <path d="M450.9,150.5c-1.3,0-2.4,.5-3.4,1.5-.9,1-1.4,2.2-1.4,3.5,0,1.4,.5,2.5,1.4,3.5s2.1,1.5,3.4,1.5,2.5-.5,3.4-1.5c1-1,1.4-2.2,1.4-3.6s-.5-2.6-1.4-3.6c-.9-.8-2.1-1.3-3.4-1.3" style="fill: #202b65;"/>
    <rect x="446.9" y="166.7" width="8.2" height="29.7" style="fill: #202b65;"/>
    <polygon points="474.6 156.9 466.3 156.9 466.3 166.7 460.9 166.7 460.9 173.5 466.3 173.5 466.3 196.5 474.6 196.5 474.6 173.5 480 173.5 480 166.7 474.6 166.7 474.6 156.9" style="fill: #202b65;"/>
    <polygon points="502.8 166.7 496.7 183 490.2 166.7 480.9 166.7 492.3 194 485.9 210 495.2 210 512 166.7 502.8 166.7" style="fill: #202b65;"/>
    <path d="M295.4,165.7c-4.8,0-7.6,2.4-9.1,4.4v-3.4h-8v29.7h8.2v-15c0-3.7,2.6-8.5,7-8.5,3.4,0,5.2,1.5,5.2,8.8v14.7h8.2v-19.6c0-7.5-6.2-11.1-11.5-11.1" style="fill: #202b65;"/>
    <path d="M402.8,172.4l.2-5.7h-8.1v29.7h8.2v-13.4c0-3.1,2.4-9.9,12.1-8.1v-8.2c-8.8-.6-11.8,4.7-12.4,5.7" style="fill: #202b65;"/>
    <path d="M432.9,178.9c-.2-.1-.6-.2-1-.3-3.7-1.3-5.5-2.6-5.5-4.1,0-.8,.4-1.5,1.1-2.1,.7-.5,1.7-.8,2.9-.8s2.2,.3,3,.9c.8,.6,1.3,1.4,1.7,2.5l6-3.1c-.8-2-2.2-3.5-4-4.5-1.8-1.1-4-1.6-6.5-1.6-3.5,0-6.4,.9-8.5,2.7-2.2,1.8-3.2,4.1-3.2,7,0,2,.6,3.6,1.9,4.9,1.3,1.3,3.5,2.6,6.8,4,.5,.2,1.2,.5,2,.8,2.7,1,4.1,2.2,4.1,3.6,0,.9-.4,1.6-1.1,2.1-.8,.5-1.8,.8-3.1,.8-1.4,0-2.5-.3-3.4-1s-1.4-1.4-2-2.4l-6,3.1c.7,2,2.1,3.5,4.1,4.7,2,1.1,4.5,1.7,7.4,1.7,3.7,0,6.6-.9,8.7-2.6,2.2-1.7,3.2-4.1,3.2-7,0-2.2-.6-4-1.9-5.4-1.5-1.6-3.7-2.8-6.7-3.9" style="fill: #202b65;"/>
    <polygon points="265.3 59.4 243.4 29.1 234 29.1 234 73.5 242.6 73.5 242.7 42.9 265 73.5 273.9 73.5 273.9 29.1 265.3 29.1 265.3 59.4" style="fill: #202b65;"/>
    <polygon points="331 33.7 322.8 33.7 322.8 43.6 317.3 43.6 317.3 50.3 322.8 50.3 322.8 73.3 331 73.3 331 50.3 336.4 50.3 336.4 43.6 331 43.6 331 33.7" style="fill: #202b65;"/>
    <rect x="342.3" y="43.6" width="8.2" height="29.7" style="fill: #202b65;"/>
    <path d="M371.6,42.6c-4.5,0-8.3,1.5-11.3,4.6-3,3-4.5,6.8-4.5,11.4s1.5,8.3,4.5,11.4c3,3,6.8,4.5,11.3,4.5s8.3-1.5,11.3-4.5,4.5-6.8,4.5-11.4-1.5-8.4-4.4-11.4c-3-3.1-6.8-4.6-11.4-4.6m5.4,21.6c-1.4,1.5-3.2,2.2-5.4,2.2s-4.1-.7-5.4-2.2-2-3.4-2-5.8,.7-4.4,2-5.8c1.3-1.4,3.1-2.1,5.4-2.1s4.1,.7,5.4,2.2c1.3,1.4,2,3.4,2,5.8s-.7,4.3-2,5.7" style="fill: #202b65;"/>
    <rect x="466.8" y="27.7" width="8.2" height="45.6" style="fill: #202b65;"/>
    <path d="M409.9,42.5c-4.8,0-7.6,2.4-9.1,4.4v-3.4h-8v29.7h8.2v-15c0-3.7,2.6-8.5,7-8.5,3.4,0,5.2,1.5,5.2,8.8v14.7h8.2v-19.6c.1-7.5-6.2-11.1-11.5-11.1" style="fill: #202b65;"/>
    <path d="M346.4,27.3c-2.7,0-4.9,2.2-4.9,4.9s2.2,4.9,4.9,4.9,4.9-2.2,4.9-4.9c-.1-2.7-2.3-4.9-4.9-4.9" style="fill: #202b65;"/>
    <path d="M306.1,94.2c0-1.4,.5-2.6,1.4-3.5,.9-1,2.1-1.5,3.4-1.5s2.5,.5,3.4,1.5,1.4,2.2,1.4,3.6-.5,2.6-1.4,3.6c-1,1-2.1,1.5-3.4,1.5s-2.4-.5-3.4-1.5c-.9-1.2-1.4-2.4-1.4-3.7m.7,11.2h8.2v29.7h-8.2v-29.7Z" style="fill: #202b65;"/>
    <path d="M348.3,105.4l5.1,21.7,6-21.7h8.9l-9.8,29.7h-8.7s-5.7-21-6-22.4c-.3,1.4-5.8,22.4-5.8,22.4h-8.7l-9.8-29.7h8.9l5.9,21.7,5.1-21.7s8.9,0,8.9,0Z" style="fill: #202b65;"/>
    <path d="M409.4,135.1v-29.7h8v3.4c1.5-1.9,4.3-4.4,9.1-4.4,5.3,0,11.5,3.6,11.5,11.1v19.6h-8.2v-14.7c0-7.3-1.9-8.8-5.2-8.8-4.4,0-7,4.8-7,8.5v15h-8.2Z" style="fill: #202b65;"/>
    <path d="M290.9,105.4v2.9c-2.6-2.7-5.9-3.9-8.2-3.9-4.5,0-8.2,1.5-11.2,4.5s-4.4,6.8-4.4,11.3,1.5,8.3,4.4,11.3,6.7,4.5,11.2,4.5c2.3,0,5.6-.9,8.2-3.5v2.5h8.1v-29.7l-8.1,.1h0Zm-2.9,20.5c-1.3,1.4-3.1,2.2-5.3,2.2s-4-.7-5.3-2.2c-1.3-1.4-2-3.4-2-5.8s.7-4.3,2-5.8c1.3-1.4,3.1-2.1,5.3-2.1s4,.7,5.3,2.1,2,3.4,2,5.8-.7,4.4-2,5.8" style="fill: #202b65;"/>
    <path d="M393.5,105.4v2.9c-2.6-2.7-5.9-3.9-8.2-3.9-4.5,0-8.2,1.5-11.2,4.5s-4.4,6.8-4.4,11.3,1.5,8.3,4.4,11.3,6.7,4.5,11.2,4.5c2.3,0,5.6-.9,8.2-3.5v2.5h8.1v-29.7l-8.1,.1h0Zm-2.9,20.5c-1.3,1.4-3.1,2.2-5.3,2.2s-4-.7-5.3-2.2c-1.3-1.4-2-3.4-2-5.8s.7-4.3,2-5.8c1.3-1.4,3.1-2.1,5.3-2.1s4,.7,5.3,2.1,2,3.4,2,5.8-.7,4.4-2,5.8" style="fill: #202b65;"/>
    <path d="M450.8,43.6v2.9c-2.6-2.7-5.9-3.9-8.2-3.9-4.5,0-8.2,1.5-11.2,4.5s-4.4,6.8-4.4,11.3,1.5,8.3,4.4,11.3,6.7,4.5,11.2,4.5c2.3,0,5.6-.9,8.2-3.5v2.5h8.1v-29.6h-8.1Zm-2.9,20.5c-1.3,1.4-3.1,2.2-5.3,2.2s-4-.7-5.3-2.2c-1.3-1.4-2-3.4-2-5.8s.7-4.4,2-5.8c1.3-1.4,3.1-2.1,5.3-2.1s4,.7,5.4,2.2c1.3,1.4,2,3.4,2,5.8-.1,2.4-.8,4.3-2.1,5.7" style="fill: #202b65;"/>
    <path d="M303.3,43.6v2.9c-2.6-2.7-5.9-3.9-8.2-3.9-4.5,0-8.2,1.5-11.2,4.5s-4.4,6.8-4.4,11.3,1.5,8.3,4.4,11.3,6.7,4.5,11.2,4.5c2.3,0,5.6-.9,8.2-3.5v2.5h8.1v-29.6h-8.1Zm-2.9,20.5c-1.3,1.4-3.1,2.2-5.3,2.2s-4-.7-5.3-2.2c-1.3-1.4-2-3.4-2-5.8s.7-4.4,2-5.8c1.3-1.4,3.1-2.1,5.3-2.1s4,.7,5.4,2.2c1.3,1.4,2,3.4,2,5.8-.1,2.4-.8,4.3-2.1,5.7" style="fill: #202b65;"/>
    <polygon points="272.8 90.7 234 90.7 234 98.7 248.9 98.7 248.9 135 257.9 135 257.9 98.7 272.8 98.7 272.8 90.7" style="fill: #202b65;"/>
  </g>
</svg>