<svg class="res-img" xmlns="http://www.w3.org/2000/svg" viewBox="0 0 194 138">
    <g class="ani-poll" style="transform-origin: 78.35% 84.42%;">
        <polygon class="fill-m-light" points="177,34.7 127,34.7 127,54.7 151,54.7 151,116.5 153,116.5 153,54.7 177,54.7"/>
        <polyline class="fill-m-bg" points="175,36.7 175,52.7 129,52.7 129,36.7 175,36.7"/>
        <circle style="fill: #f5d5d5;" cx="139" cy="44.7" r="4.5"/>
        <circle style="fill: #fce5c2;" cx="152" cy="44.7" r="4.5"/>
        <circle style="fill: #cae4da;" cx="165" cy="44.7" r="4.5"/>
    </g>
    <rect class="fill-m" x="-3" y="115" width="200" height="3"/>
    <g class="ani-vehicle-vibrate">
        <path class="fill-m" d="M136.1,85.8l-28.4-15H67.2l-9.3,15.7V111h8.5c1,3.2,4,5.5,7.5,5.5s6.5-2.3,7.5-5.5h23.2c1,3.2,4,5.5,7.5,5.5s6.5-2.3,7.5-5.5H136L136.1,85.8L136.1,85.8z"/>
        <path class="fill-m-3" d="M106.6,75.3H69.7l-7.4,12.5v18.8h3.9c0.9-3.4,4-6,7.7-6s6.8,2.6,7.7,6h22.9c0.9-3.4,4-6,7.7-6s6.8,2.6,7.7,6h11.7V88.5L106.6,75.3L106.6,75.3z"/>
        <circle class="fill-m-bg" cx="74" cy="108.5" r="3.5"/>
        <circle class="fill-m-bg" cx="112.2" cy="108.5" r="3.5"/>
        <g class="ani-radar">
            <path class="fill-s" ani-wave="1" d="M49,97.5c0-1.2,0.2-2.3,0.4-3.4l-2.9-0.8C46.2,94.6,46,96,46,97.5s0.2,2.8,0.5,4.1l2.9-0.8C49.1,99.7,49,98.6,49,97.5L49,97.5z"/>
            <path class="fill-s" ani-wave="2" d="M37,97.5c0-2.3,0.3-4.5,0.8-6.7L35,90c-0.6,2.4-1,4.9-1,7.5s0.3,4.9,0.9,7.3l2.9-0.8C37.3,101.9,37,99.8,37,97.5L37,97.5z"/>
            <path class="fill-s" ani-wave="3" d="M25,97.5c0-3.4,0.5-6.7,1.3-9.9l-2.9-0.8c-0.9,3.4-1.4,7-1.4,10.7s0.5,7.1,1.4,10.5l2.9-0.8C25.4,104.1,25,100.9,25,97.5z"/>
        </g>
        <g class="ani-radar">
            <path class="fill-s" ani-wave="1" d="M145,97.5c0-1.2-0.2-2.3-0.4-3.4l2.9-0.8c0.3,1.4,0.5,2.8,0.5,4.2s-0.2,2.8-0.5,4.1l-2.9-0.8C144.9,99.7,145,98.6,145,97.5L145,97.5z"/>
            <path class="fill-s" ani-wave="2" d="M157,97.5c0-2.3-0.3-4.5-0.9-6.7L159,90c0.6,2.4,1,4.9,1,7.5s-0.3,4.9-0.9,7.3l-2.9-0.8C156.7,101.9,157,99.8,157,97.5L157,97.5z"/>
            <path class="fill-s" ani-wave="3" d="M169,97.5c0-3.4-0.4-6.7-1.3-9.9l2.9-0.8c0.9,3.4,1.4,7,1.4,10.7s-0.5,7.1-1.4,10.5l-2.9-0.8C168.6,104.1,169,100.9,169,97.5z"/>
        </g>
    </g>
</svg>