<svg xmlns="http://www.w3.org/2000/svg" viewBox="0 0 194 138" width="12.125rem">
    <rect class="fill-m" x="-3" y="115" width="200" height="3"/>
    <g>
        <polygon class="fill-m-light" points="83.9 63.77 81.9 63.77 77.13 63.77 77.13 61.77 81.9 61.77 81.9 57.77 83.9 57.77 83.9 61.77 89.13 61.77 89.13 69.77 79.13 69.77 79.13 73.77 89.13 73.77 89.13 75.77 83.9 75.77 83.9 80.23 81.9 80.23 81.9 75.77 77.13 75.77 77.13 67.77 87.13 67.77 87.13 63.77 83.9 63.77"/>
        <circle class="fill-m-bg" cx="83.13" cy="69" r="29"/>
        <path class="fill-m-light" d="M83.13,40c15.99,0,29,13.01,29,29s-13.01,29-29,29-29-13.01-29-29,13.01-29,29-29m0-3c-17.67,0-32,14.33-32,32s14.33,32,32,32,32-14.33,32-32-14.33-32-32-32h0Z"/>
        <polygon class="fill-m-light" points="76.38 74.5 65.38 74.5 65.38 60.5 76.38 60.5 76.38 62.5 67.38 62.5 67.38 72.5 76.38 72.5 76.38 74.5"/>
        <polygon class="fill-m-light" points="100.63 77.25 94.13 77.25 94.13 72.75 99.13 72.75 99.13 71.25 94.13 71.25 94.13 69.75 100.63 69.75 100.63 74.25 95.63 74.25 95.63 75.75 100.63 75.75 100.63 77.25"/>
        <path class="fill-m-light" d="M91.38,74.5h-12v-14h12v14Zm-10-2h8v-10h-8v10Z"/>
    </g>
    <polygon class="fill-m-light" points="142.16 76.42 133.87 84.71 133.87 50.88 131.87 50.88 131.87 84.71 123.58 76.42 122.16 77.83 132.87 88.54 143.58 77.83 142.16 76.42"/>
    <g>
        <polygon class="fill-m" points="102.17 79.01 102.17 74.58 91.83 74.58 91.83 79.01 86.66 79.01 86.66 120.38 107.34 120.38 107.34 79.01 102.17 79.01"/>
        <rect class="fill-m-3" x="89.61" y="81.97" width="14.77" height="35.46"/>
        <rect class="fill-m-3" x="94.78" y="77.54" width="4.43" height="1.48"/>
        <polygon class="fill-m" points="98.68 104.02 95.87 103.13 97.2 98.96 92.76 98.96 95.32 90.94 98.13 91.83 96.8 96 101.24 96 98.68 104.02"/>
    </g>
</svg>