<svg class="res-img ani-carbon-pricing" xmlns="http://www.w3.org/2000/svg" viewBox="0 0 238 168" style="--_svg-width: 14.875rem;">
    <line class="stroke-s stroke-3" x1="46" y1="80.51" x2="46" y2="160.51"/>
    <line class="stroke-s stroke-2 stick-1" style="transform-origin: 19.3% 47.5%;" x1="1.69" y1="87.59" x2="90.32" y2="71.96"/>
    <circle class="fill-s" cx="46" cy="79.77" r="5"/>
    <path class="fill-s platform-1" d="M105.16,127l-14.84-56.16-14.84,56.16h-1.16c2.96,5.85,9,9.86,16,9.86s13.04-4.02,16-9.86h-1.16Zm-27.6,0l12.77-48.33,12.77,48.33h-25.53Z"/>
    <path class="fill-s platform-2" d="M200.99,85.13L178.54,1.32l-22.46,83.81h-1.42c4.41,8.72,13.43,14.72,23.88,14.72s19.47-6,23.88-14.72h-1.42Zm-42.78,0L178.54,9.29l20.32,75.84h-40.64Z"/>
    <g class="ani-coin-flip" style="transform-origin: 50% 50%;">
        <circle class="fill-m" cx="119" cy="84" r="32"/>
        <circle class="fill-m-bg" cx="119" cy="84" r="29"/>
        <polygon class="backface fill-m" points="119.76 78.77 117.76 78.77 113 78.77 113 76.77 117.76 76.77 117.76 72.77 119.76 72.77 119.76 76.77 125 76.77 125 84.77 115 84.77 115 88.77 125 88.77 125 90.77 119.76 90.77 119.76 95.23 117.76 95.23 117.76 90.77 113 90.77 113 82.77 123 82.77 123 78.77 119.76 78.77"/>
        <g class="frontface">
            <polygon class="fill-m" points="112.25 89.5 101.25 89.5 101.25 75.5 112.25 75.5 112.25 77.5 103.25 77.5 103.25 87.5 112.25 87.5 112.25 89.5"/>
            <polygon class="fill-m" points="136.5 92.25 130 92.25 130 87.75 135 87.75 135 86.25 130 86.25 130 84.75 136.5 84.75 136.5 89.25 131.5 89.25 131.5 90.75 136.5 90.75 136.5 92.25"/>
            <path class="fill-m" d="M127.25,89.5h-12v-14h12v14Zm-10-2h8v-10h-8v10Z"/>
        </g>
    </g>
</svg>