<svg class="res-img" xmlns="http://www.w3.org/2000/svg" viewBox="0 0 194 138">
    <g>
        <polygon class="fill-m-light" points="-13 116.5 24.49 116.5 24.49 95.5 31.99 95.5 31.99 43 24.49 43 24.49 20.5 38.98 20.5 22.25 0 -13 0 -13 116.5"/>
        <rect class="fill-house-light" x="16.99" y="47.5" width="10.5" height="43.5"/>
        <polygon class="fill-house-dark" points="-13 112 19.99 112 19.99 95.5 12.49 95.5 12.49 43 19.99 43 19.99 20.5 -13 20.5 -13 112"/>
        <polygon class="fill-house-dark" points="-13 16 29.5 16 16.44 0 -13 0 -13 16"/>
    </g>
    <g>
        <polygon class="fill-m-light" points="212.94 46.69 114.25 46.69 112.94 54.2 102.65 54.2 91.78 116.5 192.72 116.5 192.72 116.5 200.76 116.5 212.94 46.69"/>
        <polygon class="fill-m-3-light" points="131.42 93.11 134.1 77.59 163.96 77.59 161.27 93.11 131.42 93.11"/>
        <polygon class="fill-m-3-light" points="160.51 97.54 157.99 112.07 128.14 112.07 130.65 97.54 160.51 97.54"/>
        <polygon class="fill-m-3-light" points="126.92 93.11 100.36 93.11 103.07 77.59 129.61 77.59 126.92 93.11"/>
        <polygon class="fill-m-3-light" points="134.87 73.16 137.39 58.63 167.24 58.63 164.72 73.16 134.87 73.16"/>
        <polygon class="fill-m-3-light" points="168.46 77.59 195.01 77.59 192.31 93.11 165.77 93.11 168.46 77.59"/>
        <polygon class="fill-m-3-light" points="169.22 73.16 171.74 58.63 198.32 58.63 195.79 73.16 169.22 73.16"/>
        <polygon class="fill-m-3-light" points="132.89 58.63 130.37 73.16 103.84 73.16 106.38 58.63 132.89 58.63"/>
        <polygon class="fill-m-3-light" points="99.59 97.54 126.15 97.54 123.64 112.07 97.05 112.07 99.59 97.54"/>
        <polygon class="fill-m-3-light" points="162.49 112.07 165 97.54 191.53 97.54 189 112.07 162.49 112.07"/>
        <polygon class="fill-m-bg" points="117.98 51.12 117.44 54.2 203.6 54.2 193.5 112.07 197.03 112.07 207.67 51.12 117.98 51.12"/>
    </g>
    <polyline class="stroke-s stroke-3" points="22.24 85 37.24 85 37.24 103 84 103"/>
    <polyline class="stroke-s-light stroke-3 ani-energy-through" style="animation-direction: alternate;" points="22.24 85 37.24 85 37.24 103 84 103"/>
    <rect class="fill-m" x="-3" y="115" width="200" height="3"/>
    <g>
        <path class="fill-m" d="M136.06,85.83l-28.4-14.96h-40.46l-9.26,15.7v24.43h8.5c1.04,3.18,4.01,5.51,7.53,5.51s6.49-2.32,7.53-5.51h23.2c1.04,3.18,4,5.51,7.53,5.51s6.49-2.32,7.53-5.51h16.29v-25.17Z"/>
        <path class="fill-m-3" d="M106.57,75.3h-36.83l-7.36,12.47v18.79h3.92c.89-3.43,3.98-5.98,7.68-5.98s6.79,2.55,7.68,5.98h22.9c.89-3.43,3.98-5.98,7.68-5.98s6.8,2.55,7.68,5.98h11.71v-18.06l-25.06-13.21Z"/>
        <path class="fill-m-bg" d="M73.97,105.01c-1.95,0-3.53,1.58-3.53,3.53s1.58,3.53,3.53,3.53,3.53-1.58,3.53-3.53-1.58-3.53-3.53-3.53Z"/>
        <path class="fill-m-bg" d="M112.24,105.01c-1.95,0-3.53,1.58-3.53,3.53s1.58,3.53,3.53,3.53,3.53-1.58,3.53-3.53-1.58-3.53-3.53-3.53Z"/>
    </g>
</svg>