<svg xmlns="http://www.w3.org/2000/svg" viewBox="0 0 256 138" width="16rem">
    <g>
        <rect class="fill-m-light" x="194.02" y="32.28" width="47.65" height="84.22"/>
        <rect class="fill-m-3-light" x="198.45" y="36.72" width="38.78" height="75.35"/>
        <polygon class="fill-m-light" points="220.37 72.02 216.15 70.67 218.14 64.42 211.49 64.42 215.32 52.39 219.54 53.73 217.55 59.99 224.2 59.99 220.37 72.02"/>
    </g>
    <rect class="fill-m" x="28" y="115" width="200" height="3"/>
    <polyline class="stroke-s stroke-3" points="194.02 57.2 184.14 57.2 184.14 103.08 152.34 103.08"/>
    <g>
        <path class="fill-m" d="M156.46,82.88l-13.7-23.1H3.54v51.21h12.97c1.04,3.18,4.01,5.51,7.53,5.51s6.49-2.32,7.53-5.51h96.85c1.04,3.18,4.01,5.51,7.53,5.51s6.49-2.32,7.53-5.51h12.97v-28.11Z"/>
        <path class="fill-m" d="M135.96,105.01c-1.95,0-3.53,1.58-3.53,3.53s1.58,3.53,3.53,3.53,3.53-1.58,3.53-3.53-1.58-3.53-3.53-3.53Z"/>
        <path class="fill-m-bg" d="M139.49,108.54c0-1.94-1.58-3.53-3.53-3.53s-3.53,1.58-3.53,3.53,1.58,3.53,3.53,3.53,3.53-1.58,3.53-3.53Z"/>
        <path class="fill-m-bg" d="M27.57,108.54c0-1.94-1.58-3.53-3.53-3.53s-3.53,1.58-3.53,3.53,1.58,3.53,3.53,3.53,3.53-1.58,3.53-3.53Z"/>
        <path class="fill-m-3" d="M140.24,64.22H7.97v42.35h8.39c.89-3.43,3.98-5.98,7.68-5.98s6.8,2.55,7.68,5.98h96.56c.89-3.43,3.98-5.98,7.68-5.98s6.8,2.55,7.68,5.98h8.39v-22.47l-11.79-19.88Z"/>
    </g>
    <g>
        <polygon class="fill-m" points="200 17.7 56 17.7 56 37.7 200 37.7 200 17.7 200 17.7"/>
        <polyline class="fill-m-bg" points="198 19.7 198 35.7 58 35.7 58 19.7 198 19.7"/>
        <line class="stroke-s stroke-2" x1="58" y1="31.48" x2="128" y2="31.48"/>
        <line class="stroke-m stroke-2" x1="128" y1="31.48" x2="179.85" y2="31.48"/>
        <line class="stroke-s stroke-2" x1="179.85" y1="31.48" x2="198" y2="31.48"/>
        <polygon class="fill-m" points="70.95 26.57 70.14 25.77 68.69 27.21 68.69 23.4 67.55 23.4 67.55 27.21 66.1 25.77 65.3 26.57 68.12 29.4 70.95 26.57"/>
    </g>
</svg>