<svg xmlns="http://www.w3.org/2000/svg" viewBox="0 0 194 138" width="12.125rem">
    <rect class="fill-m" x="-3" y="115" width="200" height="3"/>
    <g>
        <polygon class="fill-m-light" points="83.9 63.77 81.9 63.77 77.13 63.77 77.13 61.77 81.9 61.77 81.9 57.77 83.9 57.77 83.9 61.77 89.13 61.77 89.13 69.77 79.13 69.77 79.13 73.77 89.13 73.77 89.13 75.77 83.9 75.77 83.9 80.23 81.9 80.23 81.9 75.77 77.13 75.77 77.13 67.77 87.13 67.77 87.13 63.77 83.9 63.77"/>
        <circle class="fill-m-bg" cx="83.13" cy="69" r="29"/>
        <path class="fill-m-light" d="M83.13,40c15.99,0,29,13.01,29,29s-13.01,29-29,29-29-13.01-29-29,13.01-29,29-29m0-3c-17.67,0-32,14.33-32,32s14.33,32,32,32,32-14.33,32-32-14.33-32-32-32h0Z"/>
        <polygon class="fill-m-light" points="76.38 74.5 65.38 74.5 65.38 60.5 76.38 60.5 76.38 62.5 67.38 62.5 67.38 72.5 76.38 72.5 76.38 74.5"/>
        <polygon class="fill-m-light" points="100.63 77.25 94.13 77.25 94.13 72.75 99.13 72.75 99.13 71.25 94.13 71.25 94.13 69.75 100.63 69.75 100.63 74.25 95.63 74.25 95.63 75.75 100.63 75.75 100.63 77.25"/>
        <path class="fill-m-light" d="M91.38,74.5h-12v-14h12v14Zm-10-2h8v-10h-8v10Z"/>
    </g>
    <polygon class="fill-m-light" points="142.16 76.42 133.87 84.71 133.87 50.88 131.87 50.88 131.87 84.71 123.58 76.42 122.16 77.83 132.87 88.54 143.58 77.83 142.16 76.42"/>
    <g>
        <path class="fill-m" d="M124.11,100.89l-7.73-28.42h-15.27l9.35,34.35h-7.47v-17.73h-32.76v22.23h8.93c1.15,3.02,4.04,5.18,7.46,5.18s6.31-2.16,7.46-5.18h20.27c1.15,3.02,4.04,5.18,7.46,5.18,4.41,0,8-3.59,8-8,0-3.59-2.4-6.61-5.67-7.61Z"/>
        <path class="fill-m-3" d="M98.49,106.82h-4.07c-.77-3.6-3.98-6.32-7.81-6.32s-7.04,2.71-7.81,6.32h-4.07v-13.23h23.76v13.23Z"/>
        <path class="fill-m-bg" d="M121.78,112c-1.93,0-3.5-1.57-3.5-3.5s1.57-3.5,3.5-3.5,3.5,1.57,3.5,3.5-1.57,3.5-3.5,3.5Z"/>
        <path class="fill-m-bg" d="M86.6,112c-1.93,0-3.5-1.57-3.5-3.5s1.57-3.5,3.5-3.5,3.5,1.57,3.5,3.5-1.57,3.5-3.5,3.5Z"/>
        <path class="fill-m" d="M112.94,76.97l6.51,23.93c-2.12,.65-3.86,2.15-4.82,4.12l-7.63-28.04h5.94Z"/>
        <path class="fill-m-3" d="M119.44,100.9l-6.51-23.93h-5.94l7.63,28.04c.96-1.97,2.7-3.46,4.82-4.12Z"/>
    </g>
    <g>
        <line class="stroke-s stroke-3" x1="65.34" y1="105.2" x2="54.34" y2="105.2"/>
        <line class="stroke-s stroke-3" x1="65.34" y1="99.7" x2="50.84" y2="99.7"/>
    </g>
</svg>