<svg class="res-img" xmlns="http://www.w3.org/2000/svg" viewBox="0 0 194 138">
    <rect class="fill-m" x="-3" y="115" width="200" height="3"/>
    <g class="ani-vehicle-vibrate">
        <path class="fill-m" d="M151.3,47.04H70.34v23.82h-18.37l-9.26,15.7v24.43h8.5c1.04,3.18,4.01,5.51,7.53,5.51s6.49-2.32,7.53-5.51h56.44c1.04,3.18,4.01,5.51,7.53,5.51s6.49-2.32,7.53-5.51h13.52V47.04Z"/>
        <path class="fill-m-bg" d="M130.24,105.01c-1.95,0-3.53,1.58-3.53,3.53s1.58,3.53,3.53,3.53,3.53-1.58,3.53-3.53-1.58-3.53-3.53-3.53Z"/>
        <path class="fill-m-bg" d="M58.74,105.01c-1.95,0-3.53,1.58-3.53,3.53s1.58,3.53,3.53,3.53,3.53-1.58,3.53-3.53-1.58-3.53-3.53-3.53Z"/>
        <path class="fill-m-3-light" d="M74.77,51.47v55.09h47.79c.89-3.43,3.98-5.98,7.68-5.98s6.8,2.55,7.68,5.98h8.94V51.47H74.77Z"/>
        <path class="fill-m-3" d="M54.5,75.3l-7.36,12.47v18.79h3.92c.89-3.43,3.98-5.98,7.68-5.98s6.8,2.55,7.68,5.98h3.92v-31.26h-15.84Z"/>
        <circle class="fill-m-bg" cx="110.82" cy="79.02" r="14.5"/>
        <path class="fill-s" d="M109.57,91.52v-5.19l-4.06,4-1.75-1.75,5.81-5.81v-2.5h-2.5l-5.81,5.81-1.75-1.75,4-4.06h-5.19v-2.5h5.19l-4-4.06,1.75-1.75,5.81,5.81h2.5v-2.5l-5.81-5.81,1.75-1.75,4.06,4v-5.19h2.5v5.19l4.06-4,1.75,1.75-5.81,5.81v2.5h2.5l5.81-5.81,1.75,1.75-4,4.06h5.19v2.5h-5.19l4,4.06-1.75,1.75-5.81-5.81h-2.5v2.5l5.81,5.81-1.75,1.75-4.06-4v5.19h-2.5Z"/>
        <line class="stroke-s stroke-3 ani-line-dash" x1="155.3" y1="104.5" x2="166.3" y2="104.5"/>
        <line class="stroke-s stroke-3 ani-line-dash" x1="155.3" y1="97.5" x2="169.8" y2="97.5"/>
    </g>
</svg>