<svg class="res-img" xmlns="http://www.w3.org/2000/svg" viewBox="0 0 186 138" width="11.625rem">
    <line class="stroke-m-3 stroke-3" x1="77" y1="14" x2="77" y2="124"/>
    <line class="stroke-m-3 stroke-3" x1="109" y1="14" x2="109" y2="124"/>
    <line class="stroke-m-3 stroke-3" x1="148" y1="53" x2="38" y2="53"/>
    <line class="stroke-m-3 stroke-3" x1="148" y1="85" x2="38" y2="85"/>
    <line class="stroke-m stroke-3" x1="125" y1="14" x2="125" y2="124"/>
    <line class="stroke-m stroke-3" x1="61" y1="14" x2="61" y2="124"/>
    <line class="stroke-m stroke-3" x1="148" y1="101" x2="38" y2="101"/>
    <line class="stroke-m stroke-3" x1="148" y1="37" x2="38" y2="37"/>
    <line class="stroke-s stroke-3" x1="148" y1="69" x2="38" y2="69"/>
    <line class="stroke-s stroke-3" x1="93" y1="124" x2="93" y2="14"/>
    <polygon class="fill-m" points="110.5 51.5 75.5 51.5 75.5 86.5 110.5 86.5 110.5 51.5 110.5 51.5"/>
    <polyline class="fill-m-bg" points="107.5 54.5 107.5 83.5 78.5 83.5 78.5 54.5 107.5 54.5"/>
    <polygon class="fill-m" points="94.68 75.54 91.87 74.65 93.2 70.48 88.76 70.48 91.32 62.46 94.13 63.35 92.8 67.52 97.24 67.52 94.68 75.54"/>
    <polygon class="fill-s" points="162.68 123.54 159.87 122.65 161.2 118.48 156.76 118.48 159.32 110.46 162.13 111.35 160.8 115.52 165.24 115.52 162.68 123.54"/>
    <polygon class="fill-s" points="26.68 123.54 23.87 122.65 25.2 118.48 20.76 118.48 23.32 110.46 26.13 111.35 24.8 115.52 29.24 115.52 26.68 123.54"/>
    <polygon class="fill-s" points="26.68 27.54 23.87 26.65 25.2 22.48 20.76 22.48 23.32 14.46 26.13 15.35 24.8 19.52 29.24 19.52 26.68 27.54"/>
    <polygon class="fill-s" points="162.68 27.54 159.87 26.65 161.2 22.48 156.76 22.48 159.32 14.46 162.13 15.35 160.8 19.52 165.24 19.52 162.68 27.54"/>
</svg>