<svg class="res-img" xmlns="http://www.w3.org/2000/svg" viewBox="0 0 194 138">
    <rect class="fill-m-light" x="-3" y="115" width="200" height="3"/>
    <polygon class="fill-m-light" points="153.13 120 142.27 120 144.82 46.92 150.58 46.92 153.13 120"/>
    <polygon class="fill-m-bg" points="145.33 117.04 150.07 117.04 147.73 49.88 147.68 49.88 145.33 117.04"/>
    <g class="ani-rotate-360" style="transform-origin: 76.2% 35%;">
        <path class="fill-m-light" d="M151.94,51.16c.67-.96,.96-2.1,.88-3.23l3.17-1.3,19.22-19.22-6.48-6.48-19.22,19.22-1.28,3.14c-1.14-.09-2.3,.19-3.28,.87l-2.77-2.14-26.26-7.04-2.37,8.85,25.97,6.96,.29,.08,3.46-.47c.24,.52,.56,1.02,.99,1.45,.43,.43,.93,.75,1.45,.99l-.47,3.48,7.04,26.26,8.85-2.37-7.04-26.26-2.15-2.78Z"/>
        <path class="fill-m-3-light" d="M143.13,46.48l-2.28-1.76-22.83-6.12-.84,3.14,22.83,6.12,2.86-.39c.05-.34,.14-.67,.26-.99Z"/>
        <path class="fill-m-3-light" d="M151.39,55.28l-1.78-2.3c-.31,.12-.64,.2-.97,.26l-.39,2.89,6.12,22.83,3.14-.84-6.12-22.83Z"/>
        <path class="fill-m-3-light" d="M168.74,25.11l-16.71,16.71-1.05,2.57c.14,.11,.28,.21,.41,.33,.14,.14,.25,.3,.37,.45l2.57-1.05,16.71-16.71-2.3-2.3Z"/>
        <circle class="fill-m-bg" cx="147.82" cy="48.28" r="2.08"/>
    </g>
    <polygon class="fill-m-light" points="56.13 120 45.27 120 47.82 46.92 53.58 46.92 56.13 120"/>
    <polygon class="fill-m-bg" points="48.33 117.04 53.07 117.04 50.73 49.88 50.68 49.88 48.33 117.04"/>
    <g class="ani-rotate-360" style="transform-origin: 26.2% 35%;">
        <path class="fill-m-light" d="M54.94,51.16c.67-.96,.96-2.1,.88-3.23l3.17-1.3,19.22-19.22-6.48-6.48-19.22,19.22-1.28,3.14c-1.14-.09-2.3,.19-3.28,.87l-2.77-2.14-26.26-7.04-2.37,8.85,25.97,6.96,.29,.08,3.46-.47c.24,.52,.56,1.02,.99,1.45,.43,.43,.93,.75,1.45,.99l-.47,3.48,7.04,26.26,8.85-2.37-7.04-26.26-2.15-2.78Z"/>
        <path class="fill-m-3-light" d="M46.13,46.48l-2.28-1.76-22.83-6.12-.84,3.14,22.83,6.12,2.86-.39c.05-.34,.14-.67,.26-.99Z"/>
        <path class="fill-m-3-light" d="M54.39,55.28l-1.78-2.3c-.31,.12-.64,.2-.97,.26l-.39,2.89,6.12,22.83,3.14-.84-6.12-22.83Z"/>
        <path class="fill-m-3-light" d="M71.74,25.11l-16.71,16.71-1.05,2.57c.14,.11,.28,.21,.41,.33,.14,.14,.25,.3,.37,.45l2.57-1.05,16.71-16.71-2.3-2.3Z"/>
        <circle class="fill-m-bg" cx="50.82" cy="48.28" r="2.08"/>
    </g>
    <g class="ani-wind-move">
        <rect class="fill-s-light" x="19" y="28.51" width="25" height="2"/>
        <rect class="fill-s-light" x="14" y="28.51" width="2" height="2"/>
    </g>
    <g class="ani-wind-move" style="animation-delay: -1.5s;">
        <rect class="fill-s-light" x="109" y="58.51" width="25" height="2"/>
        <rect class="fill-s-light" x="137" y="58.51" width="2" height="2"/>
    </g>
    <polygon class="fill-m" points="105.12 165.99 88.83 165.99 92.65 56.38 101.29 56.38 105.12 165.99"/>
    <polygon class="fill-m-bg" points="93.42 161.56 100.52 161.56 97.01 60.81 96.93 60.81 93.42 161.56"/>
    <g class="ani-rotate-360" style="transform-origin: 50.1% 42.3%;">
        <path class="fill-m" d="M103.32,62.73c1.01-1.44,1.44-3.16,1.33-4.85l4.76-1.95,28.83-28.83-9.72-9.72-28.83,28.83-1.93,4.7c-1.71-.14-3.45,.28-4.92,1.3l-4.15-3.21-39.39-10.55-3.56,13.27,38.96,10.44,.43,.12,5.19-.7c.36,.78,.84,1.53,1.48,2.17,.65,.65,1.39,1.12,2.17,1.49l-.71,5.22,10.55,39.39,13.27-3.56-10.55-39.39-3.23-4.17Z"/>
        <path class="fill-m-3" d="M90.11,55.71l-3.42-2.65-34.25-9.18-1.26,4.71,34.25,9.18,4.29-.58c.08-.5,.21-1,.39-1.48Z"/>
        <path class="fill-m-3" d="M102.5,68.91l-2.67-3.45c-.47,.18-.96,.3-1.45,.39l-.59,4.33,9.18,34.25,4.71-1.26-9.18-34.25Z"/>
        <path class="fill-m-3" d="M128.53,23.65l-25.07,25.07-1.58,3.85c.2,.17,.42,.31,.61,.5,.21,.21,.37,.45,.56,.68l3.86-1.58,25.07-25.07-3.45-3.45Z"/>
        <circle class="fill-m-bg" cx="97.15" cy="58.41" r="3.12"/>
    </g>
    <g class="ani-wind-move" style="animation-delay: -0.5s;">
        <rect class="fill-s" x="33.75" y="72.51" width="32" height="3"/>
        <rect class="fill-s" x="70" y="72.51" width="3" height="3"/>
    </g>
    <g class="ani-wind-move" style="animation-delay: -1s;">
        <rect class="fill-s" x="146" y="38.51" width="32" height="3"/>
        <rect class="fill-s" x="138.75" y="38.51" width="3" height="3"/>
    </g>
</svg>