<?xml version="1.0" encoding="utf-8"?>
<!-- Generator: Adobe Illustrator 27.0.0, SVG Export Plug-In . SVG Version: 6.00 Build 0)  -->
<svg version="1.1" id="uuid-cfeb6339-8f09-4671-a1ec-ee39765ff389"
	 xmlns="http://www.w3.org/2000/svg" xmlns:xlink="http://www.w3.org/1999/xlink" x="0px" y="0px" viewBox="0 0 264.8 129"
	 style="enable-background:new 0 0 264.8 129;" xml:space="preserve">
<style type="text/css">
	.st0{fill:#D3D6A3;}
	.st1{fill:#1F5979;}
	.st2{fill:#BFCEAA;}
	.st3{fill:#AAB157;}
	.st4{fill:#AABDBF;}
	.st5{fill:#237A74;}
	.st6{fill:#09527A;}
</style>
<g>
	<polygon class="st0" points="0,41.5 6.9,41.5 13.9,29.2 7.1,29.2 	"/>
	<polygon class="st0" points="27,41.5 33.9,41.5 41,29.2 34.1,29.2 	"/>
	<polygon class="st0" points="13.5,41.5 20.4,41.5 27.5,29.2 20.6,29.2 	"/>
	<polygon class="st1" points="54.4,5.9 57.8,0 23.9,0 7,29.2 41,29.2 44.3,23.5 15.9,23.5 19.4,17.4 47.8,17.4 50.9,12 22.7,12 
		26.2,5.9 	"/>
	<polygon class="st2" points="64.8,70.8 61.4,64.9 47.3,64.9 50.7,70.8 	"/>
	<polygon class="st2" points="51.3,47.4 47.9,41.5 33.7,41.5 37.2,47.4 	"/>
	<polygon class="st2" points="58.1,59.1 54.6,53.2 40.5,53.2 43.9,59.1 	"/>
	<polygon class="st3" points="6.9,41.5 0,41.5 17,70.9 50.7,70.9 33.7,41.5 27.1,41.5 41.3,66 34.3,66 20.1,41.5 13.8,41.5 
		27.9,65.9 21,65.9 	"/>
	<polygon class="st4" points="57.8,0 54.4,6 61.5,18.2 64.9,12.3 	"/>
	<polygon class="st4" points="44.3,23.5 40.9,29.4 48,41.6 51.4,35.7 	"/>
	<polygon class="st4" points="51.1,11.7 47.7,17.7 54.7,29.9 58.2,24 	"/>
	<polygon class="st5" points="61.4,64.9 64.8,70.9 81.8,41.5 64.9,12.3 48,41.6 51.3,47.4 65.5,22.8 68.9,28.9 54.8,53.4 57.9,58.9 
		72,34.5 75.5,40.5 	"/>
</g>
<g>
	<polygon class="st6" points="91.8,10.2 99.8,10.2 99.8,8.2 91.8,8.2 91.8,3.1 100.5,3.1 100.5,1 91.8,1 91.1,1 89.5,1 89.5,17.7 
		91.1,17.7 91.8,17.7 100.6,17.7 100.6,15.6 91.8,15.6 	"/>
	<path class="st6" d="M111.4,6.7c-0.7-0.4-1.4-0.7-2.3-0.7s-1.6,0.2-2.3,0.6c-0.5,0.3-0.9,0.7-1.3,1.1V6.3h-2.2v11.4h2.2V11
		c0-0.6,0.1-1.1,0.4-1.5s0.6-0.8,1.1-1.1c0.4-0.2,1-0.4,1.5-0.4c0.9,0,1.6,0.3,2.1,0.8s0.8,1.3,0.8,2.1v6.6h2.2v-7.1
		c0-0.8-0.2-1.5-0.6-2.2C112.5,7.7,112,7.1,111.4,6.7C111.4,6.7,111.4,6.7,111.4,6.7z"/>
	<path class="st6" d="M124.4,6.7c-0.8-0.5-1.7-0.7-2.8-0.7c-1.1,0-2.1,0.3-3,0.8S117,8,116.5,8.9c-0.5,0.9-0.8,1.9-0.8,3
		s0.3,2.1,0.8,3.1s1.2,1.6,2.2,2.1c0.9,0.5,1.9,0.8,3.1,0.8c0.9,0,1.7-0.2,2.5-0.5s1.5-0.8,2-1.5l-1.4-1.4c-0.4,0.4-0.8,0.8-1.4,1
		c-0.5,0.2-1.1,0.3-1.8,0.3c-0.8,0-1.4-0.2-2-0.5c-0.6-0.3-1.1-0.8-1.4-1.4c-0.2-0.4-0.3-0.8-0.4-1.2h8.9c0.1-0.2,0.1-0.4,0.1-0.6
		c0-0.2,0-0.4,0-0.5c0-1.1-0.2-2.1-0.7-2.9C125.8,7.9,125.2,7.2,124.4,6.7L124.4,6.7L124.4,6.7z M119.6,8.5c0.6-0.3,1.2-0.5,1.9-0.5
		s1.3,0.1,1.8,0.4c0.5,0.3,0.9,0.7,1.2,1.2c0.2,0.4,0.3,0.8,0.3,1.3h-6.9c0.1-0.4,0.2-0.8,0.4-1.1C118.6,9.2,119,8.8,119.6,8.5
		L119.6,8.5L119.6,8.5z"/>
	<path class="st6" d="M134.6,6c-1.3,0-2.2,0.4-2.9,1.3c-0.1,0.1-0.1,0.2-0.2,0.3V6.3h-2.2v11.4h2.2v-6.5c0-1.1,0.3-1.8,0.8-2.4
		c0.5-0.5,1.2-0.8,2-0.8c0.4,0,0.7,0.1,1,0.2s0.6,0.3,0.8,0.6l1.4-1.5c-0.4-0.5-0.8-0.8-1.3-1C135.7,6.1,135.1,6,134.6,6L134.6,6
		L134.6,6z"/>
	<path class="st6" d="M147.1,7.8c-0.4-0.5-0.9-1-1.5-1.3C145,6.2,144.2,6,143.3,6c-1,0-1.9,0.2-2.8,0.8s-1.5,1.2-2,2
		c-0.5,0.9-0.7,1.8-0.7,2.9s0.2,2.1,0.7,2.9s1.1,1.6,2,2s1.8,0.7,2.8,0.7c0.9,0,1.7-0.2,2.4-0.5c0.6-0.3,1.1-0.8,1.5-1.3v1.6
		c0,1-0.3,1.9-1,2.5c-0.7,0.6-1.6,0.9-2.8,0.9c-0.9,0-1.6-0.2-2.3-0.5s-1.2-0.8-1.7-1.4l-1.4,1.4c0.6,0.8,1.3,1.4,2.2,1.8
		c0.9,0.4,1.9,0.6,3.1,0.6s2.2-0.2,3.1-0.7c0.9-0.5,1.6-1.1,2.1-1.9s0.8-1.8,0.8-2.9V6.3h-2.2L147.1,7.8L147.1,7.8L147.1,7.8z
		 M145.6,15c-0.5,0.3-1.1,0.5-1.9,0.5s-1.3-0.2-1.9-0.5s-1-0.8-1.3-1.3c-0.3-0.6-0.5-1.2-0.5-1.9s0.2-1.4,0.5-1.9s0.7-1,1.3-1.3
		c0.5-0.3,1.2-0.5,1.9-0.5s1.3,0.2,1.9,0.5s0.9,0.7,1.2,1.3s0.4,1.2,0.4,1.9s-0.1,1.4-0.4,1.9S146.1,14.7,145.6,15L145.6,15
		L145.6,15z"/>
	<polygon class="st6" points="160.4,6.3 156.9,14.3 153.6,6.3 151.2,6.3 155.7,16.7 152.9,22.4 155.3,22.4 157.5,17.8 162.8,6.3 	
		"/>
</g>
<g>
	<polygon class="st6" points="105.7,36.1 113.7,36.1 113.7,34.1 105.7,34.1 105.7,29.1 114.4,29.1 114.4,27 105.7,27 105,27 
		103.4,27 103.4,43.6 105,43.6 105.7,43.6 114.5,43.6 114.5,41.6 105.7,41.6 	"/>
	<path class="st6" d="M120.5,34.6c0.6-0.3,1.2-0.5,1.9-0.5c0.6,0,1.1,0.1,1.7,0.3c0.5,0.2,0.9,0.5,1.3,1l1.4-1.4
		c-0.5-0.6-1.2-1.1-1.9-1.4c-0.8-0.3-1.6-0.5-2.4-0.5c-1.1,0-2.1,0.3-3,0.8c-0.9,0.5-1.6,1.2-2.1,2.1c-0.5,0.9-0.8,1.9-0.8,3
		s0.3,2.1,0.8,3c0.5,0.9,1.2,1.6,2.1,2.2s1.9,0.8,3,0.8c0.9,0,1.7-0.2,2.5-0.5s1.4-0.8,1.9-1.4l-1.4-1.4c-0.4,0.4-0.8,0.7-1.3,1
		s-1.1,0.3-1.7,0.3c-0.7,0-1.4-0.2-1.9-0.5c-0.6-0.3-1-0.8-1.3-1.4s-0.5-1.2-0.5-2s0.2-1.4,0.5-2C119.5,35.4,119.9,34.9,120.5,34.6
		L120.5,34.6L120.5,34.6z"/>
	<path class="st6" d="M137.2,32.8c-0.9-0.5-1.9-0.8-3-0.8s-2.1,0.3-3,0.8c-0.9,0.5-1.6,1.2-2.1,2.1s-0.8,1.9-0.8,3s0.3,2.1,0.8,3
		c0.5,0.9,1.2,1.6,2.1,2.2c0.9,0.5,1.9,0.8,3,0.8s2.1-0.3,3-0.8s1.6-1.2,2.1-2.2c0.5-0.9,0.8-1.9,0.8-3s-0.3-2.1-0.8-3
		S138.1,33.3,137.2,32.8z M137.4,39.9c-0.3,0.6-0.8,1-1.3,1.4c-0.6,0.3-1.2,0.5-1.9,0.5s-1.3-0.2-1.9-0.5c-0.6-0.3-1-0.8-1.3-1.4
		s-0.5-1.2-0.5-2s0.2-1.4,0.5-2s0.8-1,1.3-1.4s1.2-0.5,1.9-0.5s1.4,0.2,1.9,0.5s1,0.8,1.3,1.4s0.5,1.2,0.5,2S137.7,39.3,137.4,39.9z
		"/>
	<path class="st6" d="M150.6,32.7c-0.7-0.4-1.4-0.6-2.3-0.6s-1.6,0.2-2.3,0.6c-0.5,0.3-0.9,0.7-1.3,1.1v-1.5h-2.2v11.4h2.2V37
		c0-0.6,0.1-1.1,0.4-1.5s0.6-0.8,1.1-1.1c0.4-0.2,1-0.4,1.5-0.4c0.9,0,1.6,0.3,2.1,0.8c0.5,0.6,0.8,1.3,0.8,2.1v6.7h2.2v-7.1
		c0-0.8-0.2-1.5-0.6-2.2C151.8,33.6,151.2,33.1,150.6,32.7L150.6,32.7L150.6,32.7z"/>
	<path class="st6" d="M163.9,32.8c-0.9-0.5-1.9-0.8-3-0.8s-2.1,0.3-3,0.8c-0.9,0.5-1.6,1.2-2.1,2.1s-0.8,1.9-0.8,3s0.3,2.1,0.8,3
		c0.5,0.9,1.2,1.6,2.1,2.2c0.9,0.5,1.9,0.8,3,0.8s2.1-0.3,3-0.8s1.6-1.2,2.1-2.2c0.5-0.9,0.8-1.9,0.8-3s-0.3-2.1-0.8-3
		S164.8,33.3,163.9,32.8z M164.1,39.9c-0.3,0.6-0.8,1-1.3,1.4c-0.6,0.3-1.2,0.5-1.9,0.5s-1.3-0.2-1.9-0.5c-0.6-0.3-1-0.8-1.3-1.4
		s-0.5-1.2-0.5-2s0.2-1.4,0.5-2c0.3-0.6,0.8-1,1.3-1.4c0.6-0.3,1.2-0.5,1.9-0.5s1.4,0.2,1.9,0.5s1,0.8,1.3,1.4s0.5,1.2,0.5,2
		S164.4,39.3,164.1,39.9z"/>
	<path class="st6" d="M184.6,32.5c-0.7-0.3-1.4-0.5-2.2-0.5s-1.5,0.2-2.2,0.5c-0.7,0.4-1.2,0.9-1.6,1.5c0,0,0,0,0,0c0,0,0,0,0,0
		c-0.4-0.6-0.9-1.1-1.5-1.5c-0.6-0.4-1.4-0.5-2.2-0.5s-1.6,0.2-2.2,0.5c-0.5,0.3-0.9,0.7-1.2,1.1v-1.4h-2.2v11.4h2.2v-6.9
		c0-0.6,0.1-1.1,0.4-1.5s0.6-0.7,1-0.9c0.4-0.2,0.9-0.3,1.4-0.3c0.8,0,1.4,0.2,2,0.7s0.8,1.2,0.8,2v6.9h2.2v-6.9
		c0-0.6,0.1-1.1,0.4-1.5s0.6-0.7,1-0.9c0.4-0.2,0.9-0.3,1.4-0.3c0.8,0,1.4,0.2,1.9,0.7c0.5,0.5,0.8,1.2,0.8,2v6.9h2.2v-7.3
		c0-0.9-0.2-1.7-0.6-2.3S185.3,32.9,184.6,32.5L184.6,32.5L184.6,32.5z"/>
	<polygon class="st6" points="197.7,32.2 194.2,40.3 190.9,32.2 188.5,32.2 193,42.7 190.2,48.4 192.6,48.4 194.8,43.7 200.1,32.2 	
		"/>
</g>
<g>
	<polygon class="st6" points="119.7,62.1 127.7,62.1 127.7,60.1 119.7,60.1 119.7,55 128.4,55 128.4,53 119.7,53 119,53 117.4,53 
		117.4,69.6 119,69.6 119.7,69.6 128.5,69.6 128.5,67.6 119.7,67.6 	"/>
	<path class="st6" d="M139.3,58.6c-0.7-0.4-1.4-0.7-2.3-0.7s-1.6,0.2-2.3,0.6c-0.5,0.3-0.9,0.7-1.3,1.1v-1.5h-2.2v11.4h2.2V63
		c0-0.6,0.1-1.1,0.4-1.5s0.6-0.8,1.1-1.1c0.4-0.2,1-0.4,1.5-0.4c0.9,0,1.6,0.3,2.1,0.8c0.5,0.6,0.8,1.3,0.8,2.1v6.6h2.2v-7.1
		c0-0.8-0.2-1.5-0.6-2.2C140.5,59.6,139.9,59.1,139.3,58.6L139.3,58.6L139.3,58.6z"/>
	<polygon class="st6" points="148.9,66.3 145.4,58.2 143,58.2 148.3,69.6 149.5,69.6 154.8,58.2 152.5,58.2 	"/>
	<path class="st6" d="M157.7,53.2c-0.4,0-0.7,0.1-1,0.4c-0.3,0.3-0.4,0.6-0.4,1s0.1,0.7,0.4,1c0.3,0.3,0.6,0.4,1,0.4s0.7-0.1,1-0.4
		c0.3-0.3,0.4-0.6,0.4-1s-0.1-0.7-0.4-1C158.4,53.3,158.1,53.2,157.7,53.2z"/>
	<rect x="156.6" y="58.2" class="st6" width="2.2" height="11.4"/>
	<path class="st6" d="M167.2,58c-1.3,0-2.2,0.4-2.9,1.3c-0.1,0.1-0.1,0.2-0.2,0.3v-1.4H162v11.4h2.2v-6.5c0-1.1,0.3-1.8,0.8-2.3
		c0.5-0.5,1.2-0.8,2-0.8c0.4,0,0.7,0.1,1,0.2s0.6,0.3,0.8,0.5l1.4-1.5c-0.4-0.5-0.8-0.8-1.3-1C168.4,58.1,167.8,58,167.2,58
		L167.2,58L167.2,58z"/>
	<path class="st6" d="M179.5,58.8c-0.9-0.5-1.9-0.8-3-0.8s-2.1,0.3-3,0.8c-0.9,0.5-1.6,1.2-2.1,2.1s-0.8,1.9-0.8,3s0.3,2.1,0.8,3
		c0.5,0.9,1.2,1.6,2.1,2.1s1.9,0.8,3,0.8s2.1-0.3,3-0.8s1.6-1.2,2.1-2.2c0.5-0.9,0.8-1.9,0.8-3c0-1.1-0.3-2.1-0.8-3
		S180.4,59.3,179.5,58.8z M179.7,65.9c-0.3,0.6-0.8,1-1.3,1.4c-0.6,0.3-1.2,0.5-1.9,0.5s-1.3-0.2-1.9-0.5c-0.6-0.3-1-0.8-1.3-1.4
		s-0.5-1.2-0.5-2s0.2-1.4,0.5-2c0.3-0.6,0.8-1,1.3-1.4c0.6-0.3,1.2-0.5,1.9-0.5s1.4,0.2,1.9,0.5s1,0.8,1.3,1.4s0.5,1.2,0.5,2
		C180.2,64.6,180,65.3,179.7,65.9z"/>
	<path class="st6" d="M192.9,58.6c-0.7-0.4-1.4-0.7-2.3-0.7s-1.6,0.2-2.3,0.6c-0.5,0.3-0.9,0.7-1.3,1.1v-1.5h-2.2v11.4h2.2V63
		c0-0.6,0.1-1.1,0.4-1.5s0.6-0.8,1.1-1.1c0.4-0.2,1-0.4,1.5-0.4c0.9,0,1.6,0.3,2.1,0.8c0.5,0.6,0.8,1.3,0.8,2.1v6.6h2.2v-7.1
		c0-0.8-0.2-1.5-0.6-2.2C194.1,59.6,193.5,59.1,192.9,58.6L192.9,58.6L192.9,58.6z"/>
	<path class="st6" d="M213.4,58.5c-0.7-0.3-1.4-0.5-2.2-0.5s-1.5,0.2-2.2,0.5c-0.7,0.4-1.2,0.9-1.6,1.5c0,0,0,0,0,0c0,0,0,0,0,0
		c-0.4-0.6-0.9-1.1-1.5-1.5c-0.6-0.3-1.4-0.5-2.2-0.5s-1.6,0.2-2.2,0.5c-0.5,0.3-0.9,0.7-1.2,1.1v-1.4H198v11.4h2.2v-6.9
		c0-0.6,0.1-1.1,0.4-1.5s0.6-0.7,1-0.9c0.4-0.2,0.9-0.3,1.4-0.3c0.8,0,1.4,0.2,2,0.7s0.8,1.2,0.8,2v6.9h2.2v-6.9
		c0-0.6,0.1-1.1,0.4-1.5s0.6-0.7,1-0.9c0.4-0.2,0.9-0.3,1.4-0.3c0.8,0,1.4,0.2,1.9,0.7c0.5,0.5,0.8,1.2,0.8,2v6.9h2.2v-7.3
		c0-0.9-0.2-1.7-0.6-2.3S214.1,58.8,213.4,58.5L213.4,58.5L213.4,58.5z"/>
	<path class="st6" d="M226.4,58.7c-0.8-0.5-1.7-0.7-2.8-0.7c-1.1,0-2.1,0.3-3,0.8s-1.6,1.2-2.1,2.1c-0.5,0.9-0.8,1.9-0.8,3
		s0.3,2.1,0.8,3c0.5,0.9,1.2,1.6,2.1,2.1c0.9,0.5,1.9,0.8,3.1,0.8c0.9,0,1.7-0.2,2.5-0.5s1.5-0.8,2-1.5l-1.4-1.4
		c-0.4,0.5-0.8,0.8-1.4,1c-0.5,0.2-1.1,0.3-1.8,0.3c-0.8,0-1.4-0.2-2-0.5s-1.1-0.8-1.4-1.4c-0.2-0.4-0.3-0.8-0.4-1.2h8.9
		c0.1-0.2,0.1-0.4,0.1-0.6s0-0.4,0-0.5c0-1.1-0.2-2.1-0.7-2.9C227.9,59.9,227.2,59.2,226.4,58.7L226.4,58.7L226.4,58.7z M221.6,60.4
		c0.6-0.3,1.2-0.5,1.9-0.5s1.3,0.2,1.8,0.4c0.5,0.3,0.9,0.7,1.1,1.2c0.2,0.4,0.3,0.8,0.3,1.3h-6.9c0.1-0.4,0.2-0.8,0.4-1.1
		C220.6,61.2,221.1,60.8,221.6,60.4L221.6,60.4L221.6,60.4z"/>
	<path class="st6" d="M239.4,58.6c-0.7-0.4-1.4-0.7-2.3-0.7s-1.6,0.2-2.3,0.6c-0.5,0.3-0.9,0.7-1.3,1.1v-1.5h-2.2v11.4h2.2V63
		c0-0.6,0.1-1.1,0.4-1.5s0.6-0.8,1.1-1.1c0.4-0.2,1-0.4,1.5-0.4c0.9,0,1.6,0.3,2.1,0.8c0.5,0.6,0.8,1.3,0.8,2.1v6.6h2.2v-7.1
		c0-0.8-0.2-1.5-0.6-2.2C240.6,59.6,240.1,59.1,239.4,58.6L239.4,58.6L239.4,58.6z"/>
	<polygon class="st6" points="251.2,58.2 248.4,58.2 248.4,53.4 246.3,53.4 246.3,58.2 243.4,58.2 243.4,60.2 246.3,60.2 
		246.3,69.6 248.4,69.6 248.4,60.2 251.2,60.2 	"/>
</g>
<g>
	<polygon class="st6" points="12.8,110 32.1,110 32.1,103.9 12.8,103.9 12.8,92.7 33.8,92.7 33.8,86.4 12.8,86.4 10.6,86.4 
		5.9,86.4 5.9,128.4 10.6,128.4 12.8,128.4 34.1,128.4 34.1,122.1 12.8,122.1 	"/>
	<path class="st6" d="M61,104.2c-1.6-1-3.5-1.5-5.5-1.5l10.7-12.3v-4.1h-26v6.2h16.1l-9.6,11.2v4.1c0.6-0.2,1.3-0.3,2-0.5
		c0.8-0.1,1.5-0.1,2.2-0.1c1.8,0,3.4,0.3,4.7,0.9c1.3,0.6,2.3,1.5,3,2.6c0.7,1.1,1,2.5,1,4.1c0,1.5-0.4,2.9-1,4
		c-0.7,1.2-1.7,2.1-2.9,2.7c-1.2,0.6-2.7,1-4.4,1c-1.8,0-3.5-0.4-5-1.1c-1.5-0.8-2.7-1.8-3.5-3.1l-4.7,4.7c1.6,2,3.5,3.5,5.7,4.5
		c2.3,1,4.8,1.5,7.6,1.5c3,0,5.7-0.6,8-1.7c2.3-1.2,4.1-2.8,5.3-4.9c1.3-2.1,1.9-4.5,1.9-7.2c0-2.5-0.5-4.7-1.5-6.6
		C64.2,106.7,62.8,105.3,61,104.2z"/>
	<path class="st6" d="M111.3,121.2c-1.8,0.8-4,1.2-6.5,1.2c-2.1,0-4-0.4-5.7-1.1c-1.7-0.7-3.2-1.7-4.5-3.1c-1.3-1.3-2.2-2.9-2.9-4.8
		c-0.7-1.8-1-3.9-1-6.1c0-2.2,0.3-4.2,1-6.1c0.7-1.8,1.7-3.4,2.9-4.8c1.3-1.3,2.8-2.4,4.5-3.1c1.7-0.7,3.6-1.1,5.7-1.1
		c2.4,0,4.4,0.4,6.2,1.1c1.8,0.8,3.3,1.8,4.5,3.2l4.7-4.7c-1.9-1.9-4.1-3.4-6.6-4.6c-2.5-1.1-5.4-1.7-8.8-1.7c-3,0-5.8,0.6-8.4,1.7
		c-2.6,1.1-4.8,2.7-6.8,4.6s-3.4,4.2-4.4,6.9c-1,2.6-1.6,5.4-1.6,8.4s0.5,5.8,1.6,8.4c1,2.6,2.5,4.9,4.4,6.9c1.9,2,4.2,3.5,6.8,4.6
		c2.6,1.1,5.4,1.6,8.4,1.6c3.4,0,6.3-0.6,8.9-1.7c2.6-1.1,4.9-2.7,6.8-4.6l-4.7-4.7C114.5,119.4,113,120.4,111.3,121.2z"/>
	<path class="st6" d="M145,100.8c-2.1-1.2-4.4-1.9-7.1-1.9c-2.8,0-5.3,0.7-7.5,2c-2.3,1.3-4.1,3.1-5.4,5.4c-1.3,2.3-2,4.8-2,7.6
		c0,2.8,0.7,5.4,2,7.7c1.3,2.3,3.2,4.1,5.5,5.4c2.3,1.3,4.9,1.9,7.8,1.9c2.2,0,4.4-0.4,6.4-1.3c2-0.8,3.7-2.1,5.1-3.7l-4.2-4.3
		c-0.9,1-2,1.8-3.2,2.3c-1.3,0.5-2.6,0.8-4.1,0.8c-1.7,0-3.2-0.4-4.6-1.1c-1.3-0.7-2.3-1.8-3.1-3.1c-0.3-0.6-0.6-1.4-0.8-2.1h21.5
		c0.1-0.6,0.2-1.1,0.3-1.6c0.1-0.5,0.1-1,0.1-1.5c0-2.8-0.6-5.2-1.8-7.4C148.7,103.8,147.1,102.1,145,100.8z M130.5,109.1
		c0.7-1.3,1.6-2.3,2.9-3c1.2-0.7,2.7-1.1,4.4-1.1c1.6,0,3,0.3,4.1,1c1.1,0.6,1.9,1.6,2.5,2.8c0.3,0.7,0.6,1.4,0.8,2.3h-15.3
		C130,110.4,130.2,109.7,130.5,109.1z"/>
	<path class="st6" d="M177.9,100.6c-1.7-1.1-3.6-1.7-5.8-1.7c-2.1,0-4,0.5-5.7,1.5c-1.1,0.6-2.1,1.5-2.9,2.4v-3.3h-6.6v28.8h6.6
		v-16.6c0-1.3,0.3-2.4,0.8-3.4c0.6-1,1.3-1.8,2.3-2.3c1-0.6,2.1-0.8,3.4-0.8c1.9,0,3.5,0.6,4.7,1.9c1.2,1.2,1.8,2.8,1.8,4.7v16.6
		h6.6v-18.1c0-1.9-0.5-3.7-1.4-5.4S179.6,101.7,177.9,100.6z"/>
	<polygon class="st6" points="200.6,87.6 194,87.6 194,99.6 187.1,99.6 187.1,105.6 194,105.6 194,128.4 200.6,128.4 200.6,105.6 
		207.5,105.6 207.5,99.6 200.6,99.6 	"/>
	<path class="st6" d="M231.6,100.8c-2.1-1.2-4.4-1.9-7.1-1.9c-2.8,0-5.3,0.7-7.5,2c-2.3,1.3-4.1,3.1-5.4,5.4c-1.3,2.3-2,4.8-2,7.6
		c0,2.8,0.7,5.4,2,7.7c1.3,2.3,3.2,4.1,5.5,5.4c2.3,1.3,4.9,1.9,7.8,1.9c2.2,0,4.4-0.4,6.4-1.3c2-0.8,3.7-2.1,5.1-3.7l-4.2-4.3
		c-0.9,1-2,1.8-3.2,2.3c-1.3,0.5-2.6,0.8-4.1,0.8c-1.7,0-3.2-0.4-4.6-1.1c-1.3-0.7-2.3-1.8-3.1-3.1c-0.3-0.6-0.6-1.4-0.8-2.1h21.5
		c0.1-0.6,0.2-1.1,0.3-1.6c0.1-0.5,0.1-1,0.1-1.5c0-2.8-0.6-5.2-1.8-7.4C235.3,103.8,233.7,102.1,231.6,100.8z M217.1,109.1
		c0.7-1.3,1.6-2.3,2.9-3c1.2-0.7,2.7-1.1,4.4-1.1c1.6,0,3,0.3,4.1,1c1.1,0.6,1.9,1.6,2.5,2.8c0.3,0.7,0.6,1.4,0.8,2.3h-15.3
		C216.6,110.4,216.8,109.7,217.1,109.1z"/>
	<path class="st6" d="M261.5,99.7c-1.2-0.5-2.5-0.8-3.9-0.8c-3.3,0-5.7,1.1-7.3,3.4c-0.1,0.1-0.1,0.2-0.2,0.2v-3h-6.6v28.8h6.6v-16
		c0-2.5,0.6-4.3,1.8-5.5c1.2-1.2,2.7-1.7,4.6-1.7c0.8,0,1.6,0.1,2.2,0.4c0.6,0.2,1.2,0.6,1.7,1.2l4.3-4.4
		C263.8,101.1,262.7,100.3,261.5,99.7z"/>
</g>
</svg>
