<?xml version="1.0" encoding="UTF-8"?>
<svg xmlns="http://www.w3.org/2000/svg" viewBox="0 0 700 700">
  <path d="M188.07,295.39l208.54-55.88,16.44,61.37,47.33-12.68,34.69,34.04,16.86,62.93-21.9,5.87c-.49,8.92-6.52,16.95-15.6,19.38s-18.32-1.5-23.2-8.98l-145.38,38.96c-.49,8.92-6.52,16.95-15.6,19.38-9.09,2.43-18.32-1.5-23.2-8.98l-34.83,9.33-44.14-164.74Z" fill="#0a557e"/>
  <path d="M282.31,430.18c5.01-1.34,10.18,1.64,11.52,6.65,1.34,5.01-1.64,10.18-6.65,11.52s-10.18-1.64-11.52-6.65c-1.34-5.01,1.64-10.18,6.65-11.52Z" fill="#fff"/>
  <path d="M466.5,380.83c5.01-1.34,10.18,1.64,11.52,6.65,1.34,5.01-1.64,10.18-6.65,11.52s-10.18-1.64-11.52-6.65c-1.34-5.01,1.64-10.18,6.65-11.52Z" fill="#fff"/>
  <path d="M388.25,253.99l38.02,141.9-123.1,32.99c-4.65-8.22-14.38-12.66-23.91-10.1-9.54,2.56-15.74,11.26-15.66,20.71l-23.03,6.17-38.02-141.9,185.7-49.76Z" fill="#b8dae8"/>
  <path d="M456.91,301.36l27.57,27.05,12.97,48.4-10.1,2.71c-4.65-8.22-14.38-12.66-23.91-10.1-9.54,2.56-15.74,11.26-15.66,20.71l-10.1,2.71-21.58-80.53,40.8-10.93Z" fill="#b8dae8"/>
  <path d="M631.34,64.25l22.99-6.16c5.03,6.98,13.99,10.54,22.78,8.18,8.79-2.36,14.77-9.92,15.63-18.48l7.26-1.94V0h-57.93l-26.07,6.99,15.34,57.27Z" fill="#0a557e"/>
  <path d="M639.83,49.55l10.49-2.81c-.49-9.82,5.89-19.02,15.76-21.66,9.87-2.64,20,2.13,24.48,10.88l9.45-2.53v-4.15l-7.85-29.28h-3.72l-57.74,15.47,9.13,34.08Z" fill="#badcea"/>
  <path d="M674.01,54.68c-4.97,1.33-10.08-1.62-11.42-6.59-1.33-4.97,1.62-10.09,6.59-11.42,4.97-1.33,10.09,1.63,11.42,6.59,1.33,4.97-1.62,10.08-6.59,11.42Z" fill="#fff"/>
  <path d="M31.36,24.39l-19.23,5.15L4.21,0H0V45.22l9.44-2.53,5.8-1.55,22.39-6,4.47-1.2,2.36-.63c5.03,6.98,13.99,10.54,22.78,8.18,11.36-3.04,18.12-14.75,15.08-26.11-2.22-8.28-9.06-14.03-17-15.38H17.15l14.21,24.39Z" fill="#0a557e"/>
  <path d="M50.43,2.92l-1.7-2.92H31.04l9.81,16.85c1.12-5.73,4.57-10.78,9.58-13.93Z" fill="#badcea"/>
  <polygon points=".54 32.65 0 30.65 0 32.8 .54 32.65" fill="#badcea"/>
  <path d="M64.12,29.91c-4.97,1.33-10.08-1.62-11.42-6.59s1.62-10.09,6.59-11.42c4.97-1.33,10.09,1.63,11.42,6.59,1.33,4.97-1.62,10.08-6.59,11.42Z" fill="#fff"/>
  <polygon points="17.36 700 62.83 700 23.41 632.32 0 638.59 0 670.19 17.36 700" fill="#0a557e"/>
  <polygon points="4.58 700 .39 684.37 0 684.48 0 700 4.58 700" fill="#0a557e"/>
  <polygon points="2.35 650.38 31.25 700 48.94 700 17.66 646.28 2.35 650.38" fill="#badcea"/>
  <polygon points="688.44 700 691.9 699.07 692.15 700 700 700 700 684.48 642.07 700 688.44 700" fill="#0a557e"/>
  <polygon points="700 670.19 700 638.59 684.08 642.86 700 670.19" fill="#0a557e"/>
</svg>