<?xml version="1.0" encoding="UTF-8"?>
<svg xmlns="http://www.w3.org/2000/svg" viewBox="0 0 700 700">
  <polygon points="481.05 218.28 226.85 286.39 228.65 306.65 202.15 313.75 217.14 481.72 477.15 412.05 477.15 412.05 497.85 406.51 481.05 218.28" fill="#0a557e"/>
  <polygon points="303.1 394.11 299.31 352.3 376.21 331.69 380 373.5 303.1 394.11" fill="#b8dae8"/>
  <polygon points="381.08 385.45 384.63 424.61 307.74 445.21 304.19 406.06 381.08 385.45" fill="#b8dae8"/>
  <polygon points="291.52 397.21 223.11 415.54 219.37 373.71 287.72 355.4 291.52 397.21" fill="#b8dae8"/>
  <polygon points="298.23 340.35 294.68 301.19 371.57 280.59 375.12 319.74 298.23 340.35" fill="#b8dae8"/>
  <polygon points="387.79 328.59 456.2 310.26 459.94 352.08 391.59 370.4 387.79 328.59" fill="#b8dae8"/>
  <polygon points="386.71 316.64 383.16 277.48 451.64 259.13 455.14 298.31 386.71 316.64" fill="#b8dae8"/>
  <polygon points="283.09 304.3 286.64 343.45 218.31 361.76 214.81 322.59 283.09 304.3" fill="#b8dae8"/>
  <polygon points="224.17 427.49 292.6 409.16 296.15 448.32 227.67 466.66 224.17 427.49" fill="#b8dae8"/>
  <polygon points="396.22 421.5 392.67 382.35 461 364.04 464.5 403.21 396.22 421.5" fill="#b8dae8"/>
  <polygon points="239.5 295.24 240.24 303.54 462.16 244.08 476.09 400.1 485.19 397.66 470.52 233.34 239.5 295.24" fill="#fff"/>
  <polygon points="693.83 603.49 653.87 614.19 658.46 631.32 638.48 636.67 655.45 700 700 700 700 620.19 698.42 620.61 693.83 603.49" fill="#0a557e"/>
  <polygon points="667.68 700 700 700 700 632.43 652.95 645.03 667.68 700" fill="#b8dae8"/>
  <polygon points="696.08 674.34 684.27 673.79 683.06 700 700 700 700 690.55 695.27 691.82 696.08 674.34" fill="#0a557e"/>
  <rect x="668.81" y="620.16" width="17.73" height="5.91" transform="translate(-138.18 196.63) rotate(-15)" fill="#b8dae8"/>
  <polygon points="41.1 700 18.4 615.26 0 620.19 0 700 41.1 700" fill="#0a557e"/>
  <polygon points="28.87 700 10.04 629.74 0 632.43 0 700 28.87 700" fill="#b8dae8"/>
  <polygon points="11.81 700 12.4 687.23 0 690.55 0 700 11.81 700" fill="#0a557e"/>
  <polygon points="0 91.5 61.23 75.1 41.1 0 0 0 0 91.5" fill="#0a557e"/>
  <polygon points="0 79.27 46.75 66.74 28.87 0 0 0 0 79.27" fill="#b8dae8"/>
  <polygon points="0 20.36 10.84 20.86 11.81 0 0 0 0 20.36" fill="#0a557e"/>
  <polygon points="700 91.5 700 0 655.45 0 681.31 96.51 700 91.5" fill="#0a557e"/>
  <polygon points="700 79.27 700 0 667.68 0 689.66 82.04 700 79.27" fill="#b8dae8"/>
  <polygon points="699.84 2.83 699.03 20.31 700 20.36 700 0 683.06 0 682.72 7.42 699.84 2.83" fill="#0a557e"/>
</svg>