<?xml version="1.0" encoding="UTF-8"?>
<svg xmlns="http://www.w3.org/2000/svg" viewBox="0 0 700 700">
  <polygon points="0 116.62 90.58 92.35 65.83 0 0 0 0 116.62" fill="#0a557e"/>
  <polygon points="0 104.39 76.1 83.99 53.59 0 0 0 0 104.39" fill="#b8dae8"/>
  <polygon points="32.45 575.43 0 584.12 0 700 65.83 700 32.45 575.43" fill="#0a557e"/>
  <polygon points="53.59 700 24.09 589.9 0 596.36 0 700 53.59 700" fill="#b8dae8"/>
  <polygon points="5.02 692.47 6.58 658.84 0 660.6 0 692.24 5.02 692.47" fill="#0a557e"/>
  <polygon points="700 584.12 609.72 608.31 634.29 700 700 700 700 584.12" fill="#0a557e"/>
  <polygon points="646.52 700 700 700 700 596.36 624.2 616.67 646.52 700" fill="#b8dae8"/>
  <polygon points="690.26 645.95 678.45 645.4 676.89 679.03 694.02 674.44 693.21 691.92 700 692.24 700 660.6 689.45 663.43 690.26 645.95" fill="#0a557e"/>
  <polygon points="667.84 125.24 700 116.62 700 0 634.29 0 667.84 125.24" fill="#0a557e"/>
  <polygon points="700 104.39 700 0 646.52 0 676.2 110.76 700 104.39" fill="#b8dae8"/>
  <polygon points="432.88 543.85 390.92 555.09 325.12 270.11 347.37 264.14 432.88 543.85" fill="#0a557e"/>
  <polygon points="399.69 540.51 418 535.6 339.41 278.51 339.2 278.57 399.69 540.51" fill="#fff"/>
  <path d="M357,279.11c1.61-4.42,1.54-9.13,.07-13.4l10.92-8.31,54.37-94.17-31.73-18.32-54.37,94.17-1.72,13.45c-4.5,.82-8.69,3.11-11.76,6.75l-12.91-5.41h-108.73s0,36.64,0,36.64h107.55s1.19,0,1.19,0l12.87-5.39c1.47,1.77,3.22,3.35,5.32,4.57,2.11,1.22,4.36,1.93,6.63,2.33l1.78,13.94,54.37,94.16,31.73-18.32-54.37-94.17-11.19-8.52Z" fill="#0a557e"/>
  <path d="M318.12,270.14l-10.64-4.45h-94.54s0,13,0,13h94.54s10.65-4.46,10.65-4.46c-.14-1.36-.15-2.72,0-4.09Z" fill="#b8dae8"/>
  <path d="M359.14,295.59l-9.27-7.05c-1.09,.79-2.26,1.45-3.47,1.99l1.48,11.56,47.27,81.88,11.26-6.5-47.27-81.88Z" fill="#b8dae8"/>
  <path d="M394.94,161.05l-47.27,81.87-1.41,11.01c.64,.29,1.3,.5,1.92,.86,.69,.4,1.28,.9,1.9,1.37l8.85-6.74,47.27-81.88-11.26-6.5Z" fill="#b8dae8"/>
  <path d="M335.97,264.21c-2.06,.55-3.91,1.89-5.05,3.87-2.29,3.97-.93,9.07,3.05,11.36,3.97,2.29,9.07,.93,11.36-3.05,2.29-3.97,.93-9.07-3.05-11.37-1.99-1.15-4.25-1.38-6.31-.82Z" fill="#fff"/>
</svg>