<?xml version="1.0" encoding="UTF-8"?>
<svg id="a" data-name="圖層 1" xmlns="http://www.w3.org/2000/svg" viewBox="0 0 600 600">
  <path d="M138.07,245.39l208.54-55.88,16.44,61.37,47.33-12.68,34.69,34.04,16.86,62.93-21.9,5.87c-.49,8.92-6.52,16.95-15.6,19.38s-18.32-1.5-23.2-8.98l-145.38,38.96c-.49,8.92-6.52,16.95-15.6,19.38-9.09,2.43-18.32-1.5-23.2-8.98l-34.83,9.33-44.14-164.74Z" style="fill: #0a557e;"/>
  <path d="M232.31,380.18c5.01-1.34,10.18,1.64,11.52,6.65,1.34,5.01-1.64,10.18-6.65,11.52-5.01,1.34-10.18-1.64-11.52-6.65-1.34-5.01,1.64-10.18,6.65-11.52Z" style="fill: #fff;"/>
  <path d="M416.5,330.83c5.01-1.34,10.18,1.64,11.52,6.65,1.34,5.01-1.64,10.18-6.65,11.52-5.01,1.34-10.18-1.64-11.52-6.65-1.34-5.01,1.64-10.18,6.65-11.52Z" style="fill: #fff;"/>
  <path d="M338.25,203.99l38.02,141.9-123.1,32.99c-4.65-8.22-14.38-12.66-23.91-10.1-9.54,2.56-15.74,11.26-15.66,20.71l-23.03,6.17-38.02-141.9,185.7-49.76Z" style="fill: #b8dae8;"/>
  <path d="M406.91,251.36l27.57,27.05,12.97,48.4-10.1,2.71c-4.65-8.22-14.38-12.66-23.91-10.1-9.54,2.56-15.74,11.26-15.66,20.71l-10.1,2.71-21.58-80.53,40.8-10.93Z" style="fill: #b8dae8;"/>
  <path d="M531.34,64.25l22.99-6.16c5.03,6.98,13.99,10.54,22.78,8.18,8.79-2.36,14.77-9.92,15.63-18.48l7.26-1.94V0h-57.93l-26.07,6.99,15.34,57.27Z" style="fill: #0a557e;"/>
  <path d="M539.83,49.55l10.49-2.81c-.49-9.82,5.89-19.02,15.76-21.66,9.87-2.64,20,2.13,24.48,10.88l9.45-2.53v-4.15l-7.85-29.28h-3.72l-57.74,15.47,9.13,34.08Z" style="fill: #badcea;"/>
  <path d="M574.01,54.68c-4.97,1.33-10.08-1.62-11.42-6.59-1.33-4.97,1.62-10.09,6.59-11.42,4.97-1.33,10.09,1.63,11.42,6.59,1.33,4.97-1.62,10.08-6.59,11.42Z" style="fill: #fff;"/>
  <path d="M31.36,24.39l-19.23,5.15L4.21,0H0V45.22l9.44-2.53,5.8-1.55,22.39-6,4.47-1.2,2.36-.63c5.03,6.98,13.99,10.54,22.78,8.18,11.36-3.04,18.12-14.75,15.08-26.11-2.22-8.28-9.06-14.03-17-15.38H17.15l14.21,24.39Z" style="fill: #0a557e;"/>
  <path d="M50.43,2.92l-1.7-2.92H31.04l9.81,16.85c1.12-5.73,4.57-10.78,9.58-13.93Z" style="fill: #badcea;"/>
  <polygon points=".54 32.65 0 30.65 0 32.8 .54 32.65" style="fill: #badcea;"/>
  <path d="M64.12,29.91c-4.97,1.33-10.08-1.62-11.42-6.59-1.33-4.97,1.62-10.09,6.59-11.42,4.97-1.33,10.09,1.63,11.42,6.59,1.33,4.97-1.62,10.08-6.59,11.42Z" style="fill: #fff;"/>
  <polygon points="17.36 600 62.83 600 23.41 532.32 0 538.59 0 570.19 17.36 600" style="fill: #0a557e;"/>
  <polygon points="4.58 600 .39 584.37 0 584.48 0 600 4.58 600" style="fill: #0a557e;"/>
  <polygon points="2.35 550.38 31.25 600 48.94 600 17.66 546.28 2.35 550.38" style="fill: #badcea;"/>
  <polygon points="588.44 600 591.9 599.07 592.15 600 600 600 600 584.48 542.07 600 588.44 600" style="fill: #0a557e;"/>
  <polygon points="600 570.19 600 538.59 584.08 542.86 600 570.19" style="fill: #0a557e;"/>
</svg>