<?xml version="1.0" encoding="UTF-8"?>
<svg id="a" data-name="圖層 1" xmlns="http://www.w3.org/2000/svg" viewBox="0 0 600 600">
  <polygon points="431.05 168.28 176.85 236.39 178.65 256.65 152.15 263.75 167.14 431.72 427.15 362.05 427.15 362.05 447.85 356.51 431.05 168.28" style="fill: #0a557e;"/>
  <polygon points="253.1 344.11 249.31 302.3 326.21 281.69 330 323.5 253.1 344.11" style="fill: #b8dae8;"/>
  <polygon points="331.08 335.45 334.63 374.61 257.74 395.21 254.19 356.06 331.08 335.45" style="fill: #b8dae8;"/>
  <polygon points="241.52 347.21 173.11 365.54 169.37 323.71 237.72 305.4 241.52 347.21" style="fill: #b8dae8;"/>
  <polygon points="248.23 290.35 244.68 251.19 321.57 230.59 325.12 269.74 248.23 290.35" style="fill: #b8dae8;"/>
  <polygon points="337.79 278.59 406.2 260.26 409.94 302.08 341.59 320.4 337.79 278.59" style="fill: #b8dae8;"/>
  <polygon points="336.71 266.64 333.16 227.48 401.64 209.13 405.14 248.31 336.71 266.64" style="fill: #b8dae8;"/>
  <polygon points="233.09 254.3 236.64 293.45 168.31 311.76 164.81 272.59 233.09 254.3" style="fill: #b8dae8;"/>
  <polygon points="174.17 377.49 242.6 359.16 246.15 398.32 177.67 416.66 174.17 377.49" style="fill: #b8dae8;"/>
  <polygon points="346.22 371.5 342.67 332.35 411 314.04 414.5 353.21 346.22 371.5" style="fill: #b8dae8;"/>
  <polygon points="189.5 245.24 190.24 253.54 412.16 194.08 426.09 350.1 435.19 347.66 420.52 183.34 189.5 245.24" style="fill: #fff;"/>
  <polygon points="593.83 503.49 553.87 514.19 558.46 531.32 538.48 536.67 555.45 600 600 600 600 520.19 598.42 520.61 593.83 503.49" style="fill: #0a557e;"/>
  <polygon points="567.68 600 600 600 600 532.43 552.95 545.03 567.68 600" style="fill: #b8dae8;"/>
  <polygon points="596.08 574.34 584.27 573.79 583.06 600 600 600 600 590.55 595.27 591.82 596.08 574.34" style="fill: #0a557e;"/>
  <rect x="568.81" y="520.16" width="17.73" height="5.91" transform="translate(-115.71 167.34) rotate(-15)" style="fill: #b8dae8;"/>
  <polygon points="41.1 600 18.4 515.26 0 520.19 0 600 41.1 600" style="fill: #0a557e;"/>
  <polygon points="28.87 600 10.04 529.74 0 532.43 0 600 28.87 600" style="fill: #b8dae8;"/>
  <polygon points="11.81 600 12.4 587.23 0 590.55 0 600 11.81 600" style="fill: #0a557e;"/>
  <polygon points="0 91.5 61.23 75.1 41.1 0 0 0 0 91.5" style="fill: #0a557e;"/>
  <polygon points="0 79.27 46.75 66.74 28.87 0 0 0 0 79.27" style="fill: #b8dae8;"/>
  <polygon points="0 20.36 10.84 20.86 11.81 0 0 0 0 20.36" style="fill: #0a557e;"/>
  <polygon points="600 91.5 600 0 555.45 0 581.31 96.51 600 91.5" style="fill: #0a557e;"/>
  <polygon points="600 79.27 600 0 567.68 0 589.66 82.04 600 79.27" style="fill: #b8dae8;"/>
  <polygon points="599.84 2.83 599.03 20.31 600 20.36 600 0 583.06 0 582.72 7.42 599.84 2.83" style="fill: #0a557e;"/>
</svg>