<?xml version="1.0" encoding="UTF-8"?>
<svg id="a" data-name="圖層 1" xmlns="http://www.w3.org/2000/svg" viewBox="0 0 600 600">
  <polygon points="0 116.62 90.58 92.35 65.83 0 0 0 0 116.62" style="fill: #0a557e;"/>
  <polygon points="0 104.39 76.1 83.99 53.59 0 0 0 0 104.39" style="fill: #b8dae8;"/>
  <polygon points="32.45 475.43 0 484.12 0 600 65.83 600 32.45 475.43" style="fill: #0a557e;"/>
  <polygon points="53.59 600 24.09 489.9 0 496.36 0 600 53.59 600" style="fill: #b8dae8;"/>
  <polygon points="5.02 592.47 6.58 558.84 0 560.6 0 592.24 5.02 592.47" style="fill: #0a557e;"/>
  <polygon points="600 484.12 509.72 508.31 534.29 600 600 600 600 484.12" style="fill: #0a557e;"/>
  <polygon points="546.52 600 600 600 600 496.36 524.2 516.67 546.52 600" style="fill: #b8dae8;"/>
  <polygon points="590.26 545.95 578.45 545.4 576.89 579.03 594.02 574.44 593.21 591.92 600 592.24 600 560.6 589.45 563.43 590.26 545.95" style="fill: #0a557e;"/>
  <polygon points="567.84 125.24 600 116.62 600 0 534.29 0 567.84 125.24" style="fill: #0a557e;"/>
  <polygon points="600 104.39 600 0 546.52 0 576.2 110.76 600 104.39" style="fill: #b8dae8;"/>
  <polygon points="382.88 493.85 340.92 505.09 275.12 220.11 297.37 214.14 382.88 493.85" style="fill: #0a557e;"/>
  <polygon points="349.69 490.51 368 485.6 289.41 228.51 289.2 228.57 349.69 490.51" style="fill: #fff;"/>
  <path d="M307,229.11c1.61-4.42,1.54-9.13,.07-13.4l10.92-8.31,54.37-94.17-31.73-18.32-54.37,94.17-1.72,13.45c-4.5,.82-8.69,3.11-11.76,6.75l-12.91-5.41h-108.73s0,36.64,0,36.64h107.55s1.19,0,1.19,0l12.87-5.39c1.47,1.77,3.22,3.35,5.32,4.57,2.11,1.22,4.36,1.93,6.63,2.33l1.78,13.94,54.37,94.16,31.73-18.32-54.37-94.17-11.19-8.52Z" style="fill: #0a557e;"/>
  <path d="M268.12,220.14l-10.64-4.45h-94.54s0,13,0,13h94.54s10.65-4.46,10.65-4.46c-.14-1.36-.15-2.72,0-4.09Z" style="fill: #b8dae8;"/>
  <path d="M309.14,245.59l-9.27-7.05c-1.09,.79-2.26,1.45-3.47,1.99l1.48,11.56,47.27,81.88,11.26-6.5-47.27-81.88Z" style="fill: #b8dae8;"/>
  <path d="M344.94,111.05l-47.27,81.87-1.41,11.01c.64,.29,1.3,.5,1.92,.86,.69,.4,1.28,.9,1.9,1.37l8.85-6.74,47.27-81.88-11.26-6.5Z" style="fill: #b8dae8;"/>
  <path d="M285.97,214.21c-2.06,.55-3.91,1.89-5.05,3.87-2.29,3.97-.93,9.07,3.05,11.36,3.97,2.29,9.07,.93,11.36-3.05,2.29-3.97,.93-9.07-3.05-11.37-1.99-1.15-4.25-1.38-6.31-.82Z" style="fill: #fff;"/>
</svg>