<svg id="圖層_1" data-name="圖層 1" xmlns="http://www.w3.org/2000/svg" viewBox="0 0 200 173.27"><defs><style>.cls-1{fill:#d8daa5;}.cls-2{fill:#1e5b7d;}.cls-3{fill:#c2d2ac;}.cls-4{fill:#aeb657;}.cls-5{fill:#abbfc1;}.cls-6{fill:#217e77;}</style></defs><polygon class="cls-1" points="0 101.39 16.77 101.39 34.06 71.44 17.3 71.44 0 101.39"/><polygon class="cls-1" points="66.14 101.39 82.9 101.39 100.2 71.44 83.43 71.44 66.14 101.39"/><polygon class="cls-1" points="33.07 101.39 49.84 101.39 67.13 71.44 50.36 71.44 33.07 101.39"/><polygon class="cls-2" points="133.06 14.52 141.44 0 58.45 0 17.21 71.44 100.2 71.44 108.32 57.38 38.97 57.38 47.49 42.63 116.83 42.63 124.55 29.27 55.57 29.27 64.08 14.52 133.06 14.52"/><polygon class="cls-3" points="158.53 173.19 150.15 158.67 115.56 158.67 123.94 173.19 158.53 173.19"/><polygon class="cls-3" points="125.46 115.92 117.08 101.39 82.49 101.39 90.87 115.92 125.46 115.92"/><polygon class="cls-3" points="142 144.55 133.61 130.03 99.02 130.03 107.41 144.55 142 144.55"/><polygon class="cls-4" points="16.76 101.39 0 101.39 41.5 173.27 123.98 173.27 82.49 101.39 66.26 101.39 100.93 161.44 83.9 161.44 49.23 101.39 33.79 101.39 68.28 161.13 51.26 161.13 16.76 101.39"/><polygon class="cls-5" points="141.42 0.08 133.03 14.6 150.33 44.55 158.71 30.03 141.42 0.08"/><polygon class="cls-5" points="108.35 57.35 99.97 71.87 117.26 101.83 125.64 87.31 108.35 57.35"/><polygon class="cls-5" points="124.88 28.71 116.5 43.23 133.79 73.19 142.18 58.67 124.88 28.71"/><polygon class="cls-6" points="150.12 158.75 158.5 173.27 200 101.39 158.76 29.96 117.26 101.83 125.38 115.89 160.05 55.84 168.56 70.58 133.89 130.64 141.61 144 176.1 84.26 184.61 99.01 150.12 158.75"/></svg>