<?xml version="1.0" encoding="utf-8"?>
<svg xmlns="http://www.w3.org/2000/svg">
<def>
    <symbol id="svg-e3-logo" viewBox="0 0 200 173.27">
        <polygon fill="#d8daa5" points="0 101.39 16.77 101.39 34.06 71.44 17.3 71.44 0 101.39"/>
        <polygon fill="#d8daa5" points="66.14 101.39 82.9 101.39 100.2 71.44 83.43 71.44 66.14 101.39"/>
        <polygon fill="#d8daa5" points="33.07 101.39 49.84 101.39 67.13 71.44 50.36 71.44 33.07 101.39"/>
        <polygon fill="#1e5b7d" points="133.06 14.52 141.44 0 58.45 0 17.21 71.44 100.2 71.44 108.32 57.38 38.97 57.38 47.49 42.63 116.83 42.63 124.55 29.27 55.57 29.27 64.08 14.52 133.06 14.52"/>
        <polygon fill="#c2d2ac" points="158.53 173.19 150.15 158.67 115.56 158.67 123.94 173.19 158.53 173.19"/>
        <polygon fill="#c2d2ac" points="125.46 115.92 117.08 101.39 82.49 101.39 90.87 115.92 125.46 115.92"/>
        <polygon fill="#c2d2ac" points="142 144.55 133.61 130.03 99.02 130.03 107.41 144.55 142 144.55"/>
        <polygon fill="#aeb657" points="16.76 101.39 0 101.39 41.5 173.27 123.98 173.27 82.49 101.39 66.26 101.39 100.93 161.44 83.9 161.44 49.23 101.39 33.79 101.39 68.28 161.13 51.26 161.13 16.76 101.39"/>
        <polygon fill="#abbfc1" points="141.42 0.08 133.03 14.6 150.33 44.55 158.71 30.03 141.42 0.08"/>
        <polygon fill="#abbfc1" points="108.35 57.35 99.97 71.87 117.26 101.83 125.64 87.31 108.35 57.35"/>
        <polygon fill="#abbfc1" points="124.88 28.71 116.5 43.23 133.79 73.19 142.18 58.67 124.88 28.71"/>
        <polygon fill="#217e77" points="150.12 158.75 158.5 173.27 200 101.39 158.76 29.96 117.26 101.83 125.38 115.89 160.05 55.84 168.56 70.58 133.89 130.64 141.61 144 176.1 84.26 184.61 99.01 150.12 158.75"/>
    </symbol>
    
    <symbol id="svg-energy" view-box="0 0 15 18">
        <path fill="#f5a936" d="M6.19,14.58l4.66-5.58h-3.6l.65-5.11L3.74,9.9h3.13l-.68,4.68Zm-2.3,3.42l.9-6.3H.3L8.4,0h1.8l-.9,7.2h5.4L5.7,18h-1.8Z"/>
    </symbol>
    
    <symbol id="svg-economics" view-box="0 0 10 18">
        <path fill="#ed8c37" d="M4.02,18v-2.15c-.88-.2-1.65-.58-2.29-1.15-.64-.57-1.11-1.37-1.41-2.4l1.85-.75c.25,.8,.62,1.41,1.11,1.83s1.14,.63,1.94,.63c.68,0,1.26-.15,1.74-.46s.71-.79,.71-1.44c0-.58-.18-1.05-.55-1.39s-1.22-.73-2.55-1.16c-1.43-.45-2.42-.99-2.95-1.61s-.8-1.39-.8-2.29c0-1.08,.35-1.93,1.05-2.53s1.42-.94,2.15-1.03V0h2V2.1c.83,.13,1.52,.44,2.06,.91s.94,1.05,1.19,1.74l-1.85,.8c-.2-.53-.48-.93-.85-1.2s-.87-.4-1.5-.4c-.73,0-1.29,.16-1.68,.49s-.58,.73-.58,1.21c0,.55,.25,.98,.75,1.3s1.37,.65,2.6,1c1.15,.33,2.02,.86,2.61,1.59s.89,1.56,.89,2.51c0,1.18-.35,2.08-1.05,2.7-.7,.62-1.57,1-2.6,1.15v2.1h-2Z"/>
    </symbol>
    
    <symbol id="svg-environment" view-box="0 0 18 18">
        <path fill="#51a885" d="M8,18v-7.98c-1.07,0-2.09-.2-3.08-.61s-1.85-.99-2.6-1.74c-.75-.75-1.33-1.62-1.73-2.6S0,3.07,0,2V0H2C3.05,0,4.07,.2,5.05,.61s1.85,.99,2.6,1.74c.52,.52,.95,1.08,1.29,1.7s.6,1.28,.79,1.98c.08-.12,.18-.23,.28-.34s.21-.22,.33-.34c.75-.75,1.62-1.33,2.6-1.74s2.01-.61,3.08-.61h2v2c0,1.07-.2,2.09-.61,3.08-.41,.98-.99,1.85-1.74,2.6-.75,.75-1.61,1.33-2.59,1.73s-2,.6-3.06,.6v5h-2Zm0-10c0-.8-.15-1.56-.46-2.29s-.75-1.37-1.31-1.94-1.21-1-1.94-1.31-1.49-.46-2.29-.46c0,.8,.15,1.57,.45,2.3,.3,.73,.73,1.38,1.3,1.95,.57,.57,1.22,1,1.95,1.3s1.5,.45,2.3,.45Zm2,3c.8,0,1.56-.15,2.29-.45s1.37-.73,1.94-1.3c.57-.57,1-1.22,1.31-1.95,.31-.73,.46-1.5,.46-2.3-.8,0-1.57,.15-2.3,.46s-1.38,.75-1.95,1.31c-.57,.57-1,1.21-1.3,1.94s-.45,1.49-.45,2.29Z"/>
    </symbol>
    
    <symbol id="svg-arrow-top-right" viewBox="0 0 10 10">
        <polygon fill="#c4c691" points="1.45 .06 1.45 2.49 5.8 2.49 .06 8.22 1.78 9.94 7.51 4.2 7.51 8.55 9.94 8.55 9.94 .06 1.45 .06"/>
    </symbol>

    <symbol id="svg-master" viewBox="0 0 27 26">
        <path fill="#0a557e" d="M15.52,17.6l-6-3.26c-.32-.17-.52-.51-.52-.88v-5.41l-2.4-1.32c-.69-.38-.69-1.38,0-1.75L15.52,.12c.3-.16,.66-.16,.96,0l10,5.45c.32,.18,.52,.51,.52,.88v6.41c0,.55-.45,1-1,1h0c-.55,0-1-.45-1-1V6.96l-2,1.1v5.41c0,.37-.2,.7-.52,.88l-6,3.26c-.3,.16-.66,.16-.95,0Zm.48-8.04l6.85-3.7-6.85-3.7-6.85,3.7,6.85,3.7Zm0,6.03l5-2.7v-3.78l-4.52,2.48c-.3,.17-.66,.17-.96,0l-4.52-2.48v3.78l5,2.7Z"/>
        <path fill="#0a557e" d="M15.14,22.17L3.83,10.86c-.2-.2-.48-.29-.8-.29-.62,0-1.39,.36-2.03,1C.39,12.17,.04,12.9,0,13.5c-.01,.24,.02,.46,.11,.65,.05,.09,.1,.18,.18,.25l11.31,11.31c.2,.2,.48,.29,.8,.29,.62,0,1.39-.36,2.03-1,.98-.98,1.29-2.24,.71-2.83Z"/>
        <path fill="#fff" d="M13.38,23.94c-.34,.34-.68,.5-.87,.55L2.32,14.29c.28-.16,.55-.36,.8-.61s.46-.52,.62-.8l10.18,10.18c-.05,.18-.2,.52-.55,.87Z"/>
        <path fill="#fff" d="M3.12,11.56s0,0-.02,0c-.01,0-.04,0-.06,0-.31,0-.84,.22-1.33,.71-.63,.63-.75,1.26-.7,1.42,0,0,0,0,.02,0,.01,0,.04,0,.06,0,.31,0,.84-.22,1.33-.71,.63-.63,.75-1.26,.7-1.42Z"/>
    </symbol>

    <symbol id="svg-master-1" view-box="0 0 27 26">
        <use href="#svg-master"/>
        <rect fill="#ed8c37" x="23" y="23" width="2" height="2"/>
    </symbol>
</def>
</svg>