<?xml version="1.0" encoding="utf-8"?>
<svg xmlns="http://www.w3.org/2000/svg">
<def>
    <symbol id="svg-e3-logo" viewBox="0 0 200 173.27">
        <polygon fill="#d8daa5" points="0 101.39 16.77 101.39 34.06 71.44 17.3 71.44 0 101.39"/>
        <polygon fill="#d8daa5" points="66.14 101.39 82.9 101.39 100.2 71.44 83.43 71.44 66.14 101.39"/>
        <polygon fill="#d8daa5" points="33.07 101.39 49.84 101.39 67.13 71.44 50.36 71.44 33.07 101.39"/>
        <polygon fill="#1e5b7d" points="133.06 14.52 141.44 0 58.45 0 17.21 71.44 100.2 71.44 108.32 57.38 38.97 57.38 47.49 42.63 116.83 42.63 124.55 29.27 55.57 29.27 64.08 14.52 133.06 14.52"/>
        <polygon fill="#c2d2ac" points="158.53 173.19 150.15 158.67 115.56 158.67 123.94 173.19 158.53 173.19"/>
        <polygon fill="#c2d2ac" points="125.46 115.92 117.08 101.39 82.49 101.39 90.87 115.92 125.46 115.92"/>
        <polygon fill="#c2d2ac" points="142 144.55 133.61 130.03 99.02 130.03 107.41 144.55 142 144.55"/>
        <polygon fill="#aeb657" points="16.76 101.39 0 101.39 41.5 173.27 123.98 173.27 82.49 101.39 66.26 101.39 100.93 161.44 83.9 161.44 49.23 101.39 33.79 101.39 68.28 161.13 51.26 161.13 16.76 101.39"/>
        <polygon fill="#abbfc1" points="141.42 0.08 133.03 14.6 150.33 44.55 158.71 30.03 141.42 0.08"/>
        <polygon fill="#abbfc1" points="108.35 57.35 99.97 71.87 117.26 101.83 125.64 87.31 108.35 57.35"/>
        <polygon fill="#abbfc1" points="124.88 28.71 116.5 43.23 133.79 73.19 142.18 58.67 124.88 28.71"/>
        <polygon fill="#217e77" points="150.12 158.75 158.5 173.27 200 101.39 158.76 29.96 117.26 101.83 125.38 115.89 160.05 55.84 168.56 70.58 133.89 130.64 141.61 144 176.1 84.26 184.61 99.01 150.12 158.75"/>
    </symbol>
    
    <symbol id="svg-energy" viewBox="0 0 15 18">
        <path fill="#f5a936" d="M6.19,14.58l4.66-5.58h-3.6l.65-5.11L3.74,9.9h3.13l-.68,4.68Zm-2.3,3.42l.9-6.3H.3L8.4,0h1.8l-.9,7.2h5.4L5.7,18h-1.8Z"/>
    </symbol>
    
    <symbol id="svg-economics" viewBox="0 0 10 18">
        <path fill="#ed8c37" d="M4.02,18v-2.15c-.88-.2-1.65-.58-2.29-1.15-.64-.57-1.11-1.37-1.41-2.4l1.85-.75c.25,.8,.62,1.41,1.11,1.83s1.14,.63,1.94,.63c.68,0,1.26-.15,1.74-.46s.71-.79,.71-1.44c0-.58-.18-1.05-.55-1.39s-1.22-.73-2.55-1.16c-1.43-.45-2.42-.99-2.95-1.61s-.8-1.39-.8-2.29c0-1.08,.35-1.93,1.05-2.53s1.42-.94,2.15-1.03V0h2V2.1c.83,.13,1.52,.44,2.06,.91s.94,1.05,1.19,1.74l-1.85,.8c-.2-.53-.48-.93-.85-1.2s-.87-.4-1.5-.4c-.73,0-1.29,.16-1.68,.49s-.58,.73-.58,1.21c0,.55,.25,.98,.75,1.3s1.37,.65,2.6,1c1.15,.33,2.02,.86,2.61,1.59s.89,1.56,.89,2.51c0,1.18-.35,2.08-1.05,2.7-.7,.62-1.57,1-2.6,1.15v2.1h-2Z"/>
    </symbol>
    
    <symbol id="svg-environment" viewBox="0 0 18 18">
        <path fill="#51a885" d="M8,18v-7.98c-1.07,0-2.09-.2-3.08-.61s-1.85-.99-2.6-1.74c-.75-.75-1.33-1.62-1.73-2.6S0,3.07,0,2V0H2C3.05,0,4.07,.2,5.05,.61s1.85,.99,2.6,1.74c.52,.52,.95,1.08,1.29,1.7s.6,1.28,.79,1.98c.08-.12,.18-.23,.28-.34s.21-.22,.33-.34c.75-.75,1.62-1.33,2.6-1.74s2.01-.61,3.08-.61h2v2c0,1.07-.2,2.09-.61,3.08-.41,.98-.99,1.85-1.74,2.6-.75,.75-1.61,1.33-2.59,1.73s-2,.6-3.06,.6v5h-2Zm0-10c0-.8-.15-1.56-.46-2.29s-.75-1.37-1.31-1.94-1.21-1-1.94-1.31-1.49-.46-2.29-.46c0,.8,.15,1.57,.45,2.3,.3,.73,.73,1.38,1.3,1.95,.57,.57,1.22,1,1.95,1.3s1.5,.45,2.3,.45Zm2,3c.8,0,1.56-.15,2.29-.45s1.37-.73,1.94-1.3c.57-.57,1-1.22,1.31-1.95,.31-.73,.46-1.5,.46-2.3-.8,0-1.57,.15-2.3,.46s-1.38,.75-1.95,1.31c-.57,.57-1,1.21-1.3,1.94s-.45,1.49-.45,2.29Z"/>
    </symbol>
    
    <symbol id="svg-field-energy" viewBox="0 0 30 74">
        <path fill="#f5a936" d="M14.55,20.21l5.18-6.2h-4l.73-5.68-4.63,6.68h3.48l-.75,5.2Zm-2.55,3.8l1-7H8L17,4.01h2l-1,8h6l-10,12h-2Z"/>
    </symbol>
    
    <symbol id="svg-field-economics" viewBox="0 0 30 74">
        <path fill="#ed8c37" d="M13.72,47.51v-2.15c-.88-.2-1.65-.58-2.29-1.15-.64-.57-1.11-1.37-1.41-2.4l1.85-.75c.25,.8,.62,1.41,1.11,1.83s1.14,.63,1.94,.63c.68,0,1.26-.15,1.74-.46s.71-.79,.71-1.44c0-.58-.18-1.05-.55-1.39s-1.22-.73-2.55-1.16c-1.43-.45-2.42-.99-2.95-1.61s-.8-1.39-.8-2.29c0-1.08,.35-1.93,1.05-2.53s1.42-.94,2.15-1.03v-2.1h2v2.1c.83,.13,1.52,.44,2.06,.91s.94,1.05,1.19,1.74l-1.85,.8c-.2-.53-.48-.93-.85-1.2s-.87-.4-1.5-.4c-.73,0-1.29,.16-1.68,.49s-.58,.73-.58,1.21c0,.55,.25,.98,.75,1.3s1.37,.65,2.6,1c1.15,.33,2.02,.86,2.61,1.59s.89,1.56,.89,2.51c0,1.18-.35,2.08-1.05,2.7-.7,.62-1.57,1-2.6,1.15v2.1h-2Z"/>
    </symbol>
    
    <symbol id="svg-field-environment" viewBox="0 0 30 74">
        <path fill="#51a885" d="M13.11,69.01v-7.09c-.95,0-1.86-.18-2.73-.54s-1.64-.88-2.31-1.54-1.18-1.44-1.53-2.31-.53-1.79-.53-2.73v-1.78h1.78c.93,0,1.84,.18,2.71,.54s1.64,.88,2.31,1.54c.46,.46,.84,.96,1.14,1.51,.3,.55,.54,1.13,.7,1.76,.07-.1,.16-.2,.24-.3s.19-.2,.29-.3c.67-.67,1.44-1.18,2.31-1.54,.87-.36,1.79-.54,2.73-.54h1.78v1.78c0,.95-.18,1.86-.54,2.73-.36,.87-.88,1.64-1.54,2.31s-1.43,1.18-2.3,1.53-1.77,.53-2.72,.53v4.44h-1.78Zm0-8.89c0-.71-.14-1.39-.41-2.03s-.66-1.22-1.17-1.72-1.08-.89-1.72-1.17-1.32-.41-2.03-.41c0,.71,.13,1.39,.4,2.04s.65,1.23,1.16,1.73c.5,.5,1.08,.89,1.73,1.16s1.33,.4,2.04,.4Zm1.78,2.67c.71,0,1.39-.13,2.03-.4s1.22-.65,1.72-1.16,.89-1.08,1.17-1.73,.41-1.33,.41-2.04c-.71,0-1.39,.14-2.04,.41s-1.23,.66-1.73,1.17-.89,1.08-1.16,1.72-.4,1.32-.4,2.03Z"/>
    </symbol>
    
    <symbol id="svg-arrow-top-right" viewBox="0 0 10 10">
        <polygon fill="#c4c691" points="1.45 .06 1.45 2.49 5.8 2.49 .06 8.22 1.78 9.94 7.51 4.2 7.51 8.55 9.94 8.55 9.94 .06 1.45 .06"/>
    </symbol>
    
    <symbol id="svg-close" viewBox="0 0 27 27">
        <path fill="#0a557e" d="M15.62,13.5L26.56,2.56c.59-.59,.59-1.54,0-2.12-.59-.59-1.54-.59-2.12,0L13.5,11.38,2.56,.44C1.97-.15,1.03-.15,.44,.44-.15,1.02-.15,1.98,.44,2.56L11.38,13.5,.44,24.44c-.59,.59-.59,1.54,0,2.12,.29,.29,.68,.44,1.06,.44s.77-.15,1.06-.44L13.5,15.62l10.94,10.94c.29,.29,.68,.44,1.06,.44s.77-.15,1.06-.44c.59-.59,.59-1.54,0-2.12L15.62,13.5Z"/>
    </symbol>

    <symbol id="svg-home" viewBox="0 0 22 22">
        <path fill="#0a557e" d="M10.55,2.25L.79,9.7c-.44,.33-.52,.96-.19,1.39h0c.33,.44,.97,.53,1.41,.19l1-.76v8.63c0,.41,.33,.75,.75,.75h14.51c.41,0,.75-.33,.75-.75V10.53l1.01,.76c.44,.33,1.06,.24,1.39-.19h0c.33-.44,.25-1.06-.19-1.39L11.46,2.25c-.27-.2-.64-.2-.91,0Zm6.45,15.65h-5v-3c0-.55-.45-1-1-1h0c-.55,0-1,.45-1,1v3H5V9l6-4.58,6,4.58v8.9Z"/>
    </symbol>

    <symbol id="svg-info" viewBox="0 0 22 22">
        <path fill="#0a557e" d="M10,16h2v-6h-2v6Zm1-8c.28,0,.52-.1,.71-.29,.19-.19,.29-.43,.29-.71s-.1-.52-.29-.71c-.19-.19-.43-.29-.71-.29s-.52,.1-.71,.29-.29,.43-.29,.71,.1,.52,.29,.71,.43,.29,.71,.29Zm0,13c-1.38,0-2.68-.26-3.9-.79s-2.28-1.24-3.18-2.14-1.61-1.96-2.14-3.18-.79-2.52-.79-3.9,.26-2.68,.79-3.9,1.24-2.28,2.14-3.18,1.96-1.61,3.18-2.14,2.52-.79,3.9-.79,2.68,.26,3.9,.79,2.28,1.24,3.18,2.14,1.61,1.96,2.14,3.18,.79,2.52,.79,3.9-.26,2.68-.79,3.9-1.24,2.28-2.14,3.18-1.96,1.61-3.18,2.14-2.52,.79-3.9,.79Zm0-2c2.23,0,4.13-.78,5.68-2.33s2.33-3.44,2.33-5.68-.78-4.13-2.33-5.68-3.44-2.33-5.68-2.33-4.13,.78-5.68,2.33-2.33,3.44-2.33,5.68,.78,4.13,2.33,5.68,3.44,2.33,5.68,2.33Z"/>
    </symbol>

    <symbol id="svg-members" viewBox="0 0 22 22">
        <path fill="#0a557e" d="M8,5c1.1,0,2,.9,2,2s-.9,2-2,2-2-.9-2-2,.9-2,2-2m0-2c-2.21,0-4,1.79-4,4s1.79,4,4,4,4-1.79,4-4-1.79-4-4-4h0Z"/>
        <path fill="#0a557e" d="M14,3c-.47,0-.91,.1-1.33,.24,.83,1.03,1.33,2.33,1.33,3.76s-.5,2.73-1.33,3.76c.42,.15,.86,.24,1.33,.24,2.21,0,4-1.79,4-4s-1.79-4-4-4Z"/>
        <path fill="#0a557e" d="M20.4,17.61l-2.14-5c-.16-.37-.52-.61-.92-.61h-3.17l2.06,4.82c.3,.7,.32,1.48,.07,2.18h3.17c.72,0,1.2-.73,.92-1.39Z"/>
        <path fill="#0a557e" d="M14.4,17.61l-2.14-5c-.16-.37-.52-.61-.92-.61H4.66c-.4,0-.76,.24-.92,.61l-2.14,5c-.28,.66,.2,1.39,.92,1.39H13.48c.72,0,1.2-.73,.92-1.39Zm-10.37-.61l1.29-3h5.36l1.29,3H4.03Z"/>
    </symbol>

    <symbol id="svg-scholar" viewBox="0 0 22 22">
        <path fill="#0a557e" d="M9.98,19.74l-6-3.26c-.32-.17-.52-.51-.52-.88v-5.41l-2.4-1.32c-.69-.38-.69-1.38,0-1.75L9.98,2.26c.3-.16,.66-.16,.96,0l10,5.45c.32,.18,.52,.51,.52,.88v6.41c0,.55-.45,1-1,1h0c-.55,0-1-.45-1-1v-5.9l-2,1.1v5.41c0,.37-.2,.7-.52,.88l-6,3.26c-.3,.16-.66,.16-.95,0Zm.48-8.04l6.85-3.7-6.85-3.7L3.61,8l6.85,3.7Zm0,6.03l5-2.7v-3.78l-4.52,2.48c-.3,.17-.66,.17-.96,0l-4.52-2.48v3.78l5,2.7Z"/>
    </symbol>

    <symbol id="svg-book" viewBox="0 0 22 22">
        <path fill="#0a557e" d="M5,21c-.55,0-1.02-.2-1.41-.59s-.59-.86-.59-1.41V3c0-.55,.2-1.02,.59-1.41s.86-.59,1.41-.59h12c.55,0,1.02,.2,1.41,.59s.59,.86,.59,1.41V19c0,.55-.2,1.02-.59,1.41s-.86,.59-1.41,.59H5Zm0-2h12V3h-2v6.65c0,.16-.17,.25-.3,.17l-2.2-1.32-2.2,1.32c-.13,.08-.3-.02-.3-.17V3H5V19Zm0,0v0Z"/>
    </symbol>

    <symbol id="svg-news" viewBox="0 0 22 22">
        <path fill="#0a557e" d="M20.41,2.59c-.39-.39-.86-.59-1.41-.59H3c-.55,0-1.02,.2-1.41,.59s-.59,.86-.59,1.41v14c0,.55,.2,1.02,.59,1.41s.86,.59,1.41,.59H19c.55,0,1.02-.2,1.41-.59s.59-.86,.59-1.41V4c0-.55-.2-1.02-.59-1.41Zm-1.41,15.41H3V4H19v14Z"/>
        <rect fill="#0a557e" x="10" y="6" width="7" height="2" rx=".2" ry=".2"/>
        <rect fill="#0a557e" x="5" y="6" width="2" height="6" rx=".2" ry=".2"/>
        <rect fill="#0a557e" x="10" y="10" width="7" height="2" rx=".2" ry=".2"/>
        <rect fill="#0a557e" x="10" y="14" width="7" height="2" rx=".2" ry=".2"/>
        <circle fill="#0a557e" cx="6" cy="15" r="1"/>
    </symbol>

    <symbol id="svg-picture" viewBox="0 0 22 22">
        <path fill="#0a557e" d="M15.59,15H6.41c-.17,0-.26-.19-.16-.32l3.04-3.97c.08-.1,.24-.1,.32,0l1.98,2.59c.08,.1,.24,.1,.32,0l1.23-1.59c.08-.1,.24-.1,.32,0l2.29,2.97c.1,.13,0,.32-.16,.32Z"/>
        <path fill="#0a557e" d="M18.41,3.59c-.39-.39-.86-.59-1.41-.59H5c-.55,0-1.02,.2-1.41,.59s-.59,.86-.59,1.41v12c0,.55,.2,1.02,.59,1.41s.86,.59,1.41,.59h12c.55,0,1.02-.2,1.41-.59s.59-.86,.59-1.41V5c0-.55-.2-1.02-.59-1.41Zm-1.41,13.41H5V5h12v12Z"/>
    </symbol>

    <symbol id="svg-send" viewBox="0 0 22 22">
        <path fill="#0a557e" d="M2.29,4.51v12.99c0,.72,.73,1.2,1.39,.92l15.42-6.49c.82-.34,.82-1.5,0-1.84L3.68,3.58c-.66-.28-1.39,.21-1.39,.92Zm2,7.99l5.22-1.31c.2-.05,.2-.34,0-.39l-5.22-1.31v-3.5l11.85,5-11.85,5v-3.5Z"/>
    </symbol>



    <symbol id="svg-assistant" viewBox="0 0 27 26">
        <title>Research Assistant</title>
        <path fill="#0a557e" d="M15.52,17.6l-6-3.26c-.32-.17-.52-.51-.52-.88v-5.41l-2.4-1.32c-.69-.38-.69-1.38,0-1.75L15.52,.12c.3-.16,.66-.16,.96,0l10,5.45c.32,.18,.52,.51,.52,.88v6.41c0,.55-.45,1-1,1h0c-.55,0-1-.45-1-1V6.96l-2,1.1v5.41c0,.37-.2,.7-.52,.88l-6,3.26c-.3,.16-.66,.16-.95,0Z"/>
        <path fill="#0a557e" d="M10.25,10.75c-1.17-1.17-2.6-1.77-4.24-1.77-1.64,0-3.07,.59-4.24,1.77C.59,11.93,0,13.35,0,15c0,1.64,.59,3.07,1.77,4.24s2.6,1.77,4.24,1.77c1.39,0,2.61-.45,3.66-1.28l6.06,6.06c.29,.29,.77,.29,1.06,0s.29-.77,0-1.06l-6.06-6.06c.84-1.05,1.28-2.28,1.28-3.66,0-1.64-.59-3.07-1.77-4.24Z"/>
        <polygon fill="#fff" points="16 9.56 22.85 5.86 16 2.16 9.15 5.86 16 9.56"/>
        <path fill="#fff" d="M16,15.59l5-2.7v-3.78l-4.52,2.48c-.3,.17-.66,.17-.96,0l-4.52-2.48v3.78l5,2.7Z"/>
        <path fill="#fff" d="M9.19,18.18c.88-.88,1.33-1.94,1.33-3.18s-.44-2.3-1.33-3.18c-.88-.88-1.94-1.33-3.18-1.33s-2.3,.44-3.18,1.33-1.33,1.94-1.33,3.18,.44,2.3,1.33,3.18,1.94,1.33,3.18,1.33c1.24,0,2.3-.44,3.18-1.33Z"/>
    </symbol>

    <symbol id="svg-master" viewBox="0 0 27 26">
        <title>0th Year Master Student</title>
        <path fill="#0a557e" d="M15.52,17.6l-6-3.26c-.32-.17-.52-.51-.52-.88v-5.41l-2.4-1.32c-.69-.38-.69-1.38,0-1.75L15.52,.12c.3-.16,.66-.16,.96,0l10,5.45c.32,.18,.52,.51,.52,.88v6.41c0,.55-.45,1-1,1h0c-.55,0-1-.45-1-1V6.96l-2,1.1v5.41c0,.37-.2,.7-.52,.88l-6,3.26c-.3,.16-.66,.16-.95,0Zm.48-8.04l6.85-3.7-6.85-3.7-6.85,3.7,6.85,3.7Zm0,6.03l5-2.7v-3.78l-4.52,2.48c-.3,.17-.66,.17-.96,0l-4.52-2.48v3.78l5,2.7Z"/>
        <path fill="#0a557e" d="M15.14,22.17L3.83,10.86c-.2-.2-.48-.29-.8-.29-.62,0-1.39,.36-2.03,1C.39,12.17,.04,12.9,0,13.5c-.01,.24,.02,.46,.11,.65,.05,.09,.1,.18,.18,.25l11.31,11.31c.2,.2,.48,.29,.8,.29,.62,0,1.39-.36,2.03-1,.98-.98,1.29-2.24,.71-2.83Z"/>
        <path fill="#fff" d="M13.38,23.94c-.34,.34-.68,.5-.87,.55L2.32,14.29c.28-.16,.55-.36,.8-.61s.46-.52,.62-.8l10.18,10.18c-.05,.18-.2,.52-.55,.87Z"/>
        <path fill="#fff" d="M3.12,11.56s0,0-.02,0c-.01,0-.04,0-.06,0-.31,0-.84,.22-1.33,.71-.63,.63-.75,1.26-.7,1.42,0,0,0,0,.02,0,.01,0,.04,0,.06,0,.31,0,.84-.22,1.33-.71,.63-.63,.75-1.26,.7-1.42Z"/>
    </symbol>

    <symbol id="svg-master-1" viewBox="0 0 27 26">
        <title>1st Year Master Student</title>
        <use href="#svg-master"></use>
        <rect fill="#ed8c37" x="24" y="23" width="2" height="2"/>
    </symbol>

    <symbol id="svg-master-2" viewBox="0 0 27 26">
        <title>2nd Year Master Student</title>
        <use href="#svg-master"></use>
        <rect fill="#ed8c37" x="24" y="23" width="2" height="2"/>
        <rect fill="#ed8c37" x="24" y="20" width="2" height="2"/>
    </symbol>

    <symbol id="svg-master-3" viewBox="0 0 27 26">
        <title>3rd Year Master Student</title>
        <use href="#svg-master"></use>
        <rect fill="#ed8c37" x="24" y="23" width="2" height="2"/>
        <rect fill="#ed8c37" x="24" y="20" width="2" height="2"/>
        <rect fill="#ed8c37" x="21" y="23" width="2" height="2"/>
    </symbol>

    <symbol id="svg-master-4" viewBox="0 0 27 26">
        <title>4th Year Master Student</title>
        <use href="#svg-master"></use>
        <rect fill="#ed8c37" x="24" y="23" width="2" height="2"/>
        <rect fill="#ed8c37" x="24" y="20" width="2" height="2"/>
        <rect fill="#ed8c37" x="21" y="23" width="2" height="2"/>
        <rect fill="#ed8c37" x="21" y="20" width="2" height="2"/>
    </symbol>

    <symbol id="svg-doctor-1" viewBox="0 0 27 26">
        <title>1st Year Doctor Student</title>
        <use href="#svg-master"></use>
        <rect fill="#db7476" x="24" y="23" width="2" height="2"/>
    </symbol>

    <symbol id="svg-doctor-2" viewBox="0 0 27 26">
        <title>2nd Year Doctor Student</title>
        <use href="#svg-master"></use>
        <rect fill="#db7476" x="24" y="23" width="2" height="2"/>
        <rect fill="#db7476" x="24" y="20" width="2" height="2"/>
    </symbol>

    <symbol id="svg-doctor-3" viewBox="0 0 27 26">
        <title>3rd Year Doctor Student</title>
        <use href="#svg-master"></use>
        <rect fill="#db7476" x="24" y="23" width="2" height="2"/>
        <rect fill="#db7476" x="24" y="20" width="2" height="2"/>
        <rect fill="#db7476" x="21" y="23" width="2" height="2"/>
    </symbol>

    <symbol id="svg-doctor-4" viewBox="0 0 27 26">
        <title>4th Year Doctor Student</title>
        <use href="#svg-master"></use>
        <rect fill="#db7476" x="24" y="23" width="2" height="2"/>
        <rect fill="#db7476" x="24" y="20" width="2" height="2"/>
        <rect fill="#db7476" x="21" y="23" width="2" height="2"/>
        <rect fill="#db7476" x="21" y="20" width="2" height="2"/>
    </symbol>
</def>
</svg>