<?xml version="1.0" encoding="UTF-8"?>
<svg id="_圖層_1" data-name="圖層 1" xmlns="http://www.w3.org/2000/svg" viewBox="0 0 91 301">
  <defs>
    <style>
      .cls-1 {
        fill: #fff;
      }

      .cls-2 {
        fill: #0a557e;
      }

      .cls-3 {
        fill: #4caedd;
      }

      .top-color {

      }
    </style>
  </defs>
  <rect class="cls-2" x="42.97" y="0" width="5.17" height="22.16"/>
  <polygon class="cls-3 hp-101-top" points="32.81 22.16 35.58 39.89 54.97 39.89 57.74 22.16 32.81 22.16"/>
  <path class="cls-2" d="M56.55,41.74h-22.55l-3.35-21.42h29.25l-3.35,21.42Zm-19.39-3.69h16.23l2.19-14.04h-20.61l2.19,14.04Z"/>

  <polygon class="cls-3" points="70.34 243.78 70.15 243.78 20.21 243.78 20.03 243.78 2.33 299.19 9.89 299.19 80.47 299.19 88.03 299.19 70.34 243.78"/>
  <path class="cls-2" d="M90.56,301.04H-.19l18.87-59.1h53.01l18.87,59.1Zm-85.69-3.69H85.5l-16.51-51.71H21.38l-16.51,51.71Z"/>

  <polygon class="cls-3" points="9.89 39.89 20.21 73.87 70.34 73.87 80.66 39.89 9.89 39.89"/>
  <path class="cls-2" d="M71.71,75.72H18.84L7.4,38.05H83.15l-11.44,37.68Zm-50.13-3.69h47.39l9.2-30.29H12.38l9.2,30.29Z"/>

  <polygon class="cls-3" points="9.89 73.87 20.21 107.86 70.34 107.86 80.66 73.87 9.89 73.87"/>
  <path class="cls-2" d="M71.71,109.7H18.84L7.4,72.03H83.15l-11.44,37.68Zm-50.13-3.69h47.39l9.2-30.29H12.38l9.2,30.29Z"/>

  <polygon class="cls-3" points="9.89 107.86 20.21 141.84 70.34 141.84 80.66 107.86 9.89 107.86"/>
  <path class="cls-2" d="M71.71,143.69H18.84L7.4,106.01H83.15l-11.44,37.68Zm-50.13-3.69h47.39l9.2-30.29H12.38l9.2,30.29Z"/>

  <polygon class="cls-3" points="9.89 141.84 20.21 175.82 70.34 175.82 80.66 141.84 9.89 141.84"/>
  <path class="cls-2" d="M71.71,177.67H18.84l-11.44-37.68H83.15l-11.44,37.68Zm-50.13-3.69h47.39l9.2-30.29H12.38l9.2,30.29Z"/>

  <polygon class="cls-3" points="9.89 175.82 20.21 209.8 70.34 209.8 80.66 175.82 9.89 175.82"/>
  <path class="cls-2" d="M71.71,211.65H18.84l-11.44-37.68H83.15l-11.44,37.68Zm-50.13-3.69h47.39l9.2-30.29H12.38l9.2,30.29Z"/>

  <polygon class="cls-3" points="9.89 209.8 20.21 243.78 70.34 243.78 80.66 209.8 9.89 209.8"/>
  <path class="cls-2" d="M71.71,245.63H18.84l-11.44-37.68H83.15l-11.44,37.68Zm-50.13-3.69h47.39l9.2-30.29H12.38l9.2,30.29Z"/>
  <rect class="cls-2" x="42.6" y="209.8" width="5.17" height="5.91"/>
  <rect class="cls-2" x="42.6" y="175.82" width="5.17" height="5.91"/>
  <rect class="cls-2" x="42.6" y="141.84" width="5.17" height="5.91"/>
  <rect class="cls-2" x="42.6" y="107.86" width="5.17" height="5.91"/>
  <rect class="cls-2" x="42.6" y="73.87" width="5.17" height="5.91"/>
  <rect class="cls-2" x="42.6" y="39.89" width="5.17" height="5.91"/>
  <circle class="cls-1" cx="45.18" cy="243.78" r="8.3"/>
  <path class="cls-2" d="M45.18,253.93c-5.59,0-10.14-4.55-10.14-10.14s4.55-10.14,10.14-10.14,10.14,4.55,10.14,10.14-4.55,10.14-10.14,10.14Zm0-16.59c-3.56,0-6.45,2.89-6.45,6.45s2.89,6.45,6.45,6.45,6.45-2.89,6.45-6.45-2.89-6.45-6.45-6.45Z"/>
</svg>