<?xml version="1.0" encoding="UTF-8"?>
<svg id="_圖層_1" data-name="圖層 1" xmlns="http://www.w3.org/2000/svg" viewBox="0 0 102 38">
  <defs>
    <style>
      .cls-1 {
        fill: #fff;
      }

      .cls-2 {
        fill: #0a557e;
      }

      .cls-3 {
        fill: #badcea;
      }
    </style>
  </defs>
  <g>
    <polygon class="cls-3" points="1.5 32.85 100.5 32.85 100.5 15.99 92 1.67 1.5 1.67 1.5 32.85"/>
    <path class="cls-2" d="M101.97,34.33H.03V.19H92.84l9.13,15.4v18.74ZM2.98,31.37H99.02v-14.98l-7.86-13.25H2.98V31.37Z"/>
  </g>
  <g>
    <circle class="cls-1" cx="88.31" cy="32.69" r="3.83"/>
    <path class="cls-2" d="M88.31,38c-2.93,0-5.31-2.38-5.31-5.31s2.38-5.31,5.31-5.31,5.31,2.38,5.31,5.31-2.38,5.31-5.31,5.31Zm0-7.66c-1.3,0-2.35,1.05-2.35,2.35s1.05,2.35,2.35,2.35,2.35-1.05,2.35-2.35-1.05-2.35-2.35-2.35Z"/>
  </g>
  <g>
    <circle class="cls-1" cx="13.69" cy="32.69" r="3.83"/>
    <path class="cls-2" d="M13.69,38c-2.93,0-5.31-2.38-5.31-5.31s2.38-5.31,5.31-5.31,5.31,2.38,5.31,5.31-2.38,5.31-5.31,5.31Zm0-7.66c-1.3,0-2.35,1.05-2.35,2.35s1.05,2.35,2.35,2.35,2.35-1.05,2.35-2.35-1.05-2.35-2.35-2.35Z"/>
  </g>
</svg>