<?xml version="1.0" encoding="UTF-8"?>
<svg id="_圖層_1" data-name="圖層 1" xmlns="http://www.w3.org/2000/svg" viewBox="0 0 120 38">
  <defs>
    <style>
      .cls-1 {
        fill: #fff;
      }

      .cls-2 {
        fill: #0a557e;
      }

      .cls-3 {
        fill: #badcea;
      }
    </style>
  </defs>
  <rect class="cls-2" x=".26" y="17.37" width="12" height="2.95"/>
  <rect class="cls-2" x="3.45" y="25.26" width="8.81" height="2.95"/>
  <polygon class="cls-3" points="19.27 32.85 118.26 32.85 118.26 15.99 109.76 1.67 19.27 1.67 19.27 32.85"/>
  <path class="cls-2" d="M119.74,34.33H17.79V.19H110.61l9.13,15.4v18.74Zm-98.99-2.95H116.78v-14.98l-7.86-13.25H20.75V31.37Z"/>
  <circle class="cls-1" cx="106.07" cy="32.69" r="3.83"/>
  <path class="cls-2" d="M106.07,38c-2.93,0-5.31-2.38-5.31-5.31s2.38-5.31,5.31-5.31,5.31,2.38,5.31,5.31-2.38,5.31-5.31,5.31Zm0-7.66c-1.3,0-2.35,1.05-2.35,2.35s1.05,2.35,2.35,2.35,2.35-1.05,2.35-2.35-1.05-2.35-2.35-2.35Z"/>
  <circle class="cls-1" cx="31.46" cy="32.69" r="3.83"/>
  <path class="cls-2" d="M31.46,38c-2.93,0-5.31-2.38-5.31-5.31s2.38-5.31,5.31-5.31,5.31,2.38,5.31,5.31-2.38,5.31-5.31,5.31Zm0-7.66c-1.3,0-2.35,1.05-2.35,2.35s1.05,2.35,2.35,2.35,2.35-1.05,2.35-2.35-1.05-2.35-2.35-2.35Z"/>
</svg>