<?xml version="1.0" encoding="UTF-8"?>
<svg id="_圖層_1" data-name="圖層 1" xmlns="http://www.w3.org/2000/svg" viewBox="0 0 71 62">
  <defs>
    <style>
      .cls-1 {
        fill: #fff;
      }

      .cls-2 {
        fill: #0a557e;
      }

      .cls-3 {
        fill: #badcea;
      }
    </style>
  </defs>
  <g>
    <polygon class="cls-3" points="38.6 27.31 35.5 34.72 32.4 27.31 32.4 1.9 38.6 1.9 38.6 27.31"/>
    <path class="cls-2" d="M35.5,38.55l4.58-10.94V.42s-9.16,0-9.16,0V27.61s4.58,10.94,4.58,10.94Zm1.63-11.53l-1.63,3.88-1.63-3.88V3.38s3.25,0,3.25,0V27.02Z"/>
  </g>
  <g>
    <polygon class="cls-3" points="24.22 41.48 32.19 40.46 27.32 46.85 5.32 59.56 2.21 54.18 24.22 41.48"/>
    <path class="cls-2" d="M35.5,38.55l-11.76,1.5L.19,53.64l4.58,7.93,23.54-13.59,7.18-9.44Zm-10.8,4.36l4.18-.53-2.55,3.35L5.86,57.54l-1.63-2.82,20.47-11.82Z"/>
  </g>
  <g>
    <polygon class="cls-3" points="46.78 41.48 38.81 40.46 43.68 46.85 65.68 59.56 68.79 54.18 46.78 41.48"/>
    <path class="cls-2" d="M35.5,38.55l11.76,1.5,23.54,13.59-4.58,7.93-23.54-13.59-7.18-9.44Zm10.8,4.36l-4.18-.53,2.55,3.35,20.47,11.82,1.63-2.82-20.47-11.82Z"/>
  </g>
  <g>
    <circle class="cls-1" cx="35.5" cy="38.55" r="3.56"/>
    <path class="cls-2" d="M35.5,43.58c-1.29,0-2.58-.49-3.56-1.47-1.96-1.96-1.96-5.16,0-7.12,1.96-1.96,5.16-1.96,7.12,0s1.96,5.16,0,7.12c-.98,.98-2.27,1.47-3.56,1.47Zm0-7.11c-.53,0-1.07,.2-1.47,.61-.81,.81-.81,2.13,0,2.94s2.13,.81,2.94,0,.81-2.13,0-2.94c-.41-.41-.94-.61-1.47-.61Z"/>
  </g>
</svg>