<?xml version="1.0" encoding="UTF-8"?>
<svg id="_圖層_1" data-name="圖層 1" xmlns="http://www.w3.org/2000/svg" viewBox="0 0 53 31">
  <defs>
    <style>
      .cls-1 {
        fill: #fff;
      }

      .cls-2 {
        fill: #0a557e;
      }

      .cls-3 {
        fill: #badcea;
      }
    </style>
  </defs>
  <g>
    <path class="cls-3" d="M7.48,2.05h25.77l17.82,9.39v14.41H1.94V11.44L7.48,2.05Z"/>
    <path class="cls-2" d="M52.54,27.33H.46V11.04L6.63,.58h26.97l18.93,9.98V27.33ZM3.41,24.37H49.59V12.34L32.88,3.53H8.32L3.41,11.85v12.53Z"/>
  </g>
  <g>
    <circle class="cls-1" cx="11.15" cy="25.69" r="3.83"/>
    <path class="cls-2" d="M11.15,31c-2.93,0-5.31-2.38-5.31-5.31s2.38-5.31,5.31-5.31,5.31,2.38,5.31,5.31-2.38,5.31-5.31,5.31Zm0-7.66c-1.3,0-2.35,1.05-2.35,2.35s1.05,2.35,2.35,2.35,2.35-1.05,2.35-2.35-1.05-2.35-2.35-2.35Z"/>
  </g>
  <g>
    <circle class="cls-1" cx="36.66" cy="25.69" r="3.83"/>
    <path class="cls-2" d="M36.66,31c-2.93,0-5.31-2.38-5.31-5.31s2.38-5.31,5.31-5.31,5.31,2.38,5.31,5.31-2.38,5.31-5.31,5.31Zm0-7.66c-1.3,0-2.35,1.05-2.35,2.35s1.05,2.35,2.35,2.35,2.35-1.05,2.35-2.35-1.05-2.35-2.35-2.35Z"/>
  </g>
</svg>