<?xml version="1.0" encoding="UTF-8"?>
<svg id="_圖層_1" data-name="圖層 1" xmlns="http://www.w3.org/2000/svg" viewBox="0 0 75 31">
  <defs>
    <style>
      .cls-1 {
        fill: #fff;
      }

      .cls-2 {
        fill: #0a557e;
      }

      .cls-3 {
        fill: #badcea;
      }
    </style>
  </defs>
  <path class="cls-3" d="M29.37,2.05h25.77l17.82,9.39v14.41H23.83V11.44L29.37,2.05Z"/>
  <path class="cls-2" d="M74.44,27.33H22.36V11.04L28.53,.58h26.97l18.93,9.98V27.33Zm-49.13-2.95h46.17V12.34L54.77,3.53H30.22l-4.91,8.32v12.53Z"/>
  <circle class="cls-1" cx="33.05" cy="25.69" r="3.83"/>
  <path class="cls-2" d="M33.05,31c-2.93,0-5.31-2.38-5.31-5.31s2.38-5.31,5.31-5.31,5.31,2.38,5.31,5.31-2.38,5.31-5.31,5.31Zm0-7.66c-1.3,0-2.35,1.05-2.35,2.35s1.05,2.35,2.35,2.35,2.35-1.05,2.35-2.35-1.05-2.35-2.35-2.35Z"/>
  <circle class="cls-1" cx="58.55" cy="25.69" r="3.83"/>
  <path class="cls-2" d="M58.55,31c-2.93,0-5.31-2.38-5.31-5.31s2.38-5.31,5.31-5.31,5.31,2.38,5.31,5.31-2.38,5.31-5.31,5.31Zm0-7.66c-1.3,0-2.35,1.05-2.35,2.35s1.05,2.35,2.35,2.35,2.35-1.05,2.35-2.35-1.05-2.35-2.35-2.35Z"/>
  <rect class="cls-2" x=".56" y="14.37" width="16.25" height="2.95"/>
  <rect class="cls-2" x="4.88" y="22.26" width="11.93" height="2.95"/>
</svg>