<?xml version="1.0" encoding="UTF-8"?>
<svg id="_圖層_1" data-name="圖層 1" xmlns="http://www.w3.org/2000/svg" viewBox="0 0 64 161">
  <defs>
    <style>
      .cls-1 {
        fill: #fff;
      }

      .cls-2 {
        fill: #0a557e;
      }

      .cls-3 {
        fill: #badcea;
      }
    </style>
  </defs>
  <g>
    <rect class="cls-1" x="22.14" y="16.63" width="22.3" height="142.95"/>
    <path class="cls-2" d="M46.28,161.43H20.29V14.79h25.99V161.43Zm-22.3-3.69h18.6V18.48H23.99V157.73Z"/>
  </g>
  <g>
    <polygon class="cls-3" points="36.28 2.23 62.39 7.17 62.39 159.58 36.28 159.58 36.28 2.23"/>
    <path class="cls-2" d="M64.23,161.43h-29.8V0l29.8,5.63V161.43Zm-26.1-3.69h22.41V8.7l-22.41-4.24V157.73Z"/>
  </g>
  <g>
    <polygon class="cls-3" points="28.16 2.23 2.05 7.17 2.05 159.58 28.16 159.58 28.16 2.23"/>
    <path class="cls-2" d="M30,161.43H.21V5.63L30,0V161.43Zm-26.1-3.69H26.31V4.46L3.9,8.7V157.73Z"/>
  </g>
</svg>