<?xml version="1.0" encoding="UTF-8"?>
<svg id="_圖層_1" data-name="圖層 1" xmlns="http://www.w3.org/2000/svg" viewBox="0 0 49 161">
  <defs>
    <style>
      .cls-1 {
        fill: #fff;
      }

      .cls-2 {
        fill: #0a557e;
      }

      .cls-3 {
        fill: #badcea;
      }
    </style>
  </defs>
  <g>
    <path class="cls-1" d="M2.14,117.83v36.2c0,3.06,10.09,5.54,22.53,5.54s22.53-2.48,22.53-5.54v-36.2H2.14Z"/>
    <path class="cls-2" d="M24.67,161.41c-9.05,0-24.38-1.56-24.38-7.39v-38.05H49.05v38.05c0,5.83-15.32,7.39-24.38,7.39Zm-20.68-7.48c.82,1.39,8.29,3.79,20.68,3.79s19.86-2.4,20.68-3.79v-34.26H3.98v34.26Z"/>
  </g>
  <g>
    <ellipse class="cls-1" cx="24.67" cy="116.35" rx="22.53" ry="5.54"/>
    <path class="cls-2" d="M24.67,123.74c-9.05,0-24.38-1.56-24.38-7.39s15.32-7.39,24.38-7.39,24.38,1.56,24.38,7.39-15.32,7.39-24.38,7.39Zm-20.62-7.39c1.1,1.4,8.51,3.69,20.62,3.69s19.52-2.3,20.62-3.69c-1.1-1.4-8.51-3.69-20.62-3.69s-19.52,2.3-20.62,3.69Z"/>
  </g>
  <g>
    <path class="cls-3" d="M2.14,9.23V107.49c0,3.06,10.09,5.54,22.53,5.54s22.53-2.48,22.53-5.54V9.23H2.14Z"/>
    <path class="cls-2" d="M24.67,114.87c-9.05,0-24.38-1.56-24.38-7.39V7.39H49.05V107.49c0,5.83-15.32,7.39-24.38,7.39Zm-20.68-7.48c.82,1.39,8.29,3.79,20.68,3.79s19.86-2.4,20.68-3.79V11.08H3.98V107.39Z"/>
  </g>
  <g>
    <ellipse class="cls-3" cx="24.67" cy="7.39" rx="22.53" ry="5.54"/>
    <path class="cls-2" d="M24.67,14.77C15.61,14.77,.29,13.22,.29,7.39S15.61,0,24.67,0s24.38,1.56,24.38,7.39-15.32,7.39-24.38,7.39ZM4.05,7.39c1.1,1.4,8.51,3.69,20.62,3.69s19.52-2.3,20.62-3.69c-1.1-1.4-8.51-3.69-20.62-3.69S5.15,5.99,4.05,7.39Z"/>
  </g>
</svg>