<?xml version="1.0" encoding="UTF-8"?>
<svg id="_圖層_1" data-name="圖層 1" xmlns="http://www.w3.org/2000/svg" viewBox="0 0 81 47">
  <defs>
    <style>
      .cls-1 {
        fill: #fff;
      }

      .cls-2 {
        fill: #0a557e;
      }

      .cls-3 {
        fill: #badcea;
      }
    </style>
  </defs>
  <g>
    <polygon class="cls-1" points="79.39 1.85 16.6 1.85 8.99 45.44 71.78 45.44 79.39 1.85"/>
    <path class="cls-2" d="M73.02,46.92H7.23L15.36,.37H81.15l-8.12,46.54Zm-62.28-2.95h59.79L77.63,3.33H17.84l-7.09,40.63Z"/>
  </g>
  <g>
    <g>
      <polygon class="cls-3" points="8.87 6.86 2.13 45.44 66.43 45.44 73.16 6.86 8.87 6.86"/>
      <path class="cls-2" d="M67.67,46.92H.37L7.62,5.38H74.92l-7.25,41.53ZM3.89,43.96h61.3l6.22-35.62H10.11L3.89,43.96Z"/>
    </g>
    <g>
      <rect class="cls-2" x="6.62" y="18.02" width="64.27" height="2.95"/>
      <rect class="cls-2" x="4.4" y="31.32" width="64.27" height="2.95"/>
    </g>
    <g>
      <rect class="cls-2" x="6.7" y="24.67" width="38.99" height="2.95" transform="translate(-4.03 47.51) rotate(-80.19)"/>
      <rect class="cls-2" x="29.6" y="24.67" width="38.99" height="2.95" transform="translate(14.96 70.07) rotate(-80.19)"/>
    </g>
  </g>
</svg>