<?xml version="1.0" encoding="UTF-8"?>
<svg id="_圖層_1" data-name="圖層 1" xmlns="http://www.w3.org/2000/svg" viewBox="0 0 40 30">
  <defs>
    <style>
      .cls-1 {
        fill: #fff;
      }

      .cls-2 {
        fill: #0a557e;
      }

      .cls-3 {
        fill: #badcea;
      }
    </style>
  </defs>
  <g>
    <rect class="cls-3" x="1.65" y="13.24" width="18.84" height="11.82" transform="translate(22.14 38.31) rotate(180)"/>
    <path class="cls-2" d="M.17,26.54H21.96V11.77H.17v14.77Zm18.84-2.95H3.13V14.72h15.88v8.86Z"/>
  </g>
  <g>
    <polygon class="cls-3" points="28.93 25.06 36 25.06 29.77 2.16 22.7 2.16 28.93 25.06"/>
    <path class="cls-2" d="M27.8,26.54h10.13L30.9,.68h-10.13l7.03,25.86Zm6.27-2.95h-4.01L24.64,3.64h4.01l5.42,19.95Z"/>
  </g>
  <rect class="cls-2" x="18.64" y="23.59" width="18.47" height="2.95"/>
  <g>
    <circle class="cls-1" cx="11.07" cy="24.69" r="3.83"/>
    <path class="cls-2" d="M11.07,30c2.93,0,5.31-2.38,5.31-5.31s-2.38-5.31-5.31-5.31-5.31,2.38-5.31,5.31,2.38,5.31,5.31,5.31Zm0-7.66c1.3,0,2.35,1.05,2.35,2.35s-1.05,2.35-2.35,2.35-2.35-1.05-2.35-2.35,1.05-2.35,2.35-2.35Z"/>
  </g>
  <g>
    <circle class="cls-1" cx="34.52" cy="24.69" r="3.83"/>
    <path class="cls-2" d="M34.52,30c2.93,0,5.31-2.38,5.31-5.31s-2.38-5.31-5.31-5.31-5.31,2.38-5.31,5.31,2.38,5.31,5.31,5.31Zm0-7.66c1.3,0,2.35,1.05,2.35,2.35s-1.05,2.35-2.35,2.35-2.35-1.05-2.35-2.35,1.05-2.35,2.35-2.35Z"/>
  </g>
</svg>