<?xml version="1.0" encoding="UTF-8"?>
<svg id="_圖層_1" data-name="圖層 1" xmlns="http://www.w3.org/2000/svg" viewBox="0 0 60 30">
  <defs>
    <style>
      .cls-1 {
        fill: #fff;
      }

      .cls-2 {
        fill: #0a557e;
      }

      .cls-3 {
        fill: #c4c691;
      }

      .cls-4 {
        fill: #badcea;
      }
    </style>
  </defs>
  <rect class="cls-3" x=".01" y="19.15" width="14.77" height="2.95"/>
  <rect class="cls-4" x="21.81" y="13.24" width="18.84" height="11.82" transform="translate(62.45 38.31) rotate(180)"/>
  <path class="cls-2" d="M42.12,26.54H20.33V11.77h21.79v14.77Zm-18.84-2.95h15.88V14.72h-15.88v8.86Z"/>
  <polygon class="cls-4" points="49.09 25.06 56.16 25.06 49.93 2.16 42.86 2.16 49.09 25.06"/>
  <path class="cls-2" d="M58.09,26.54h-10.13L40.93,.68h10.13l7.03,25.86Zm-7.87-2.95h4.01L48.8,3.64h-4.01l5.42,19.95Z"/>
  <rect class="cls-2" x="38.8" y="23.59" width="18.47" height="2.95"/>
  <circle class="cls-1" cx="31.23" cy="24.69" r="3.83"/>
  <path class="cls-2" d="M31.22,30c-2.93,0-5.31-2.38-5.31-5.31s2.38-5.31,5.31-5.31,5.31,2.38,5.31,5.31-2.38,5.31-5.31,5.31Zm0-7.66c-1.3,0-2.35,1.05-2.35,2.35s1.05,2.35,2.35,2.35,2.35-1.05,2.35-2.35-1.05-2.35-2.35-2.35Z"/>
  <circle class="cls-1" cx="54.68" cy="24.69" r="3.83"/>
  <path class="cls-2" d="M54.68,30c-2.93,0-5.31-2.38-5.31-5.31s2.38-5.31,5.31-5.31,5.31,2.38,5.31,5.31-2.38,5.31-5.31,5.31Zm0-7.66c-1.3,0-2.35,1.05-2.35,2.35s1.05,2.35,2.35,2.35,2.35-1.05,2.35-2.35-1.05-2.35-2.35-2.35Z"/>
</svg>