<?xml version="1.0" encoding="UTF-8"?>
<svg id="_圖層_1" data-name="圖層 1" xmlns="http://www.w3.org/2000/svg" viewBox="0 0 73 47">
  <defs>
    <style>
      .cls-1 {
        fill: #fff;
      }

      .cls-2 {
        fill: #0a557e;
      }

      .cls-3 {
        fill: #badcea;
      }
    </style>
  </defs>
  <g>
    <rect class="cls-3" x="1.78" y="2.17" width="51.02" height="39.68"/>
    <path class="cls-2" d="M.3,43.33H54.28V.69H.3V43.33Zm51.02-2.95H3.26V3.65H51.32V40.37Z"/>
  </g>
  <g>
    <path class="cls-3" d="M71.22,41.85h-18.42V18.05h12.88l5.54,9.39v14.41Z"/>
    <path class="cls-2" d="M51.32,43.33h21.38V27.04l-6.17-10.47h-15.2v26.75Zm18.42-2.95h-15.47V19.53h10.56l4.91,8.32v12.53Z"/>
  </g>
  <g>
    <circle class="cls-1" cx="14.34" cy="41.69" r="3.83"/>
    <path class="cls-2" d="M14.34,47c2.93,0,5.31-2.38,5.31-5.31s-2.38-5.31-5.31-5.31-5.31,2.38-5.31,5.31,2.38,5.31,5.31,5.31Zm0-7.66c1.3,0,2.35,1.05,2.35,2.35s-1.05,2.35-2.35,2.35-2.35-1.05-2.35-2.35,1.05-2.35,2.35-2.35Z"/>
  </g>
  <g>
    <circle class="cls-1" cx="62.01" cy="41.69" r="3.83"/>
    <path class="cls-2" d="M62.01,47c2.93,0,5.31-2.38,5.31-5.31s-2.38-5.31-5.31-5.31-5.31,2.38-5.31,5.31,2.38,5.31,5.31,5.31Zm0-7.66c1.3,0,2.35,1.05,2.35,2.35s-1.05,2.35-2.35,2.35-2.35-1.05-2.35-2.35,1.05-2.35,2.35-2.35Z"/>
  </g>
</svg>