<?xml version="1.0" encoding="UTF-8"?>
<svg id="_圖層_1" data-name="圖層 1" xmlns="http://www.w3.org/2000/svg" viewBox="0 0 109 47">
  <defs>
    <style>
      .cls-1 {
        fill: #fff;
      }

      .cls-2 {
        fill: #0a557e;
      }

      .cls-3 {
        fill: #c4c691;
      }

      .cls-4 {
        fill: #badcea;
      }
    </style>
  </defs>
  <rect class="cls-3" x=".39" y="24.23" width="29.18" height="2.95"/>
  <rect class="cls-3" x="8.14" y="33.09" width="21.42" height="2.95"/>
  <rect class="cls-4" x="37.69" y="2.17" width="51.02" height="39.68"/>
  <path class="cls-2" d="M90.19,43.33H36.22V.69h53.97V43.33Zm-51.02-2.95h48.06V3.65H39.17V40.37Z"/>
  <path class="cls-4" d="M107.14,41.85h-18.42V18.05h12.88l5.54,9.39v14.41Z"/>
  <path class="cls-2" d="M108.61,43.33h-21.38V16.58h15.2l6.17,10.47v16.29Zm-18.42-2.95h15.47v-12.53l-4.91-8.32h-10.56v20.84Z"/>
  <circle class="cls-1" cx="50.25" cy="41.69" r="3.83"/>
  <path class="cls-2" d="M50.25,47c-2.93,0-5.31-2.38-5.31-5.31s2.38-5.31,5.31-5.31,5.31,2.38,5.31,5.31-2.38,5.31-5.31,5.31Zm0-7.66c-1.3,0-2.35,1.05-2.35,2.35s1.06,2.35,2.35,2.35,2.35-1.05,2.35-2.35-1.05-2.35-2.35-2.35Z"/>
  <circle class="cls-1" cx="97.92" cy="41.69" r="3.83"/>
  <path class="cls-2" d="M97.92,47c-2.93,0-5.31-2.38-5.31-5.31s2.38-5.31,5.31-5.31,5.31,2.38,5.31,5.31-2.38,5.31-5.31,5.31Zm0-7.66c-1.3,0-2.35,1.05-2.35,2.35s1.05,2.35,2.35,2.35,2.35-1.05,2.35-2.35-1.05-2.35-2.35-2.35Z"/>
</svg>