<?xml version="1.0" encoding="UTF-8"?>
<svg id="_圖層_1" data-name="圖層 1" xmlns="http://www.w3.org/2000/svg" viewBox="0 0 960 540">
  <defs>
    <style>
      .cls-1 {
        fill: #fff;
      }

      .cls-2 {
        fill: #0a557e;
      }

      .cls-3 {
        opacity: .42;
      }

      .cls-3, .cls-4 {
        fill: #badcea;
      }

      .cls-5 {
        fill: #c4c691;
      }

      .cls-6 {
        fill: #4caedd;
      }
    </style>
  </defs>
  <polygon class="cls-5" points="842.83 369.89 777.93 369.89 790.91 357.37 792.96 359.5 785.25 366.93 841.64 366.93 851.55 357.37 853.6 359.5 842.83 369.89"/>
  <polygon class="cls-5" points="782.19 369.89 696.67 369.89 709.64 357.37 711.69 359.5 703.99 366.93 781 366.93 790.91 357.37 792.96 359.5 782.19 369.89"/>
  <polygon class="cls-5" points="143.17 369.89 65.78 369.89 78.77 357.37 80.82 359.5 73.1 366.93 141.98 366.93 151.9 357.37 153.95 359.5 143.17 369.89"/>
  <polygon class="cls-5" points="243.64 369.89 138.91 369.89 151.9 357.37 153.95 359.5 146.24 366.93 242.45 366.93 252.37 357.37 254.42 359.5 243.64 369.89"/>
  <polygon class="cls-5" points="470.44 369.89 342.07 369.89 355.05 357.37 357.1 359.5 349.39 366.93 469.24 366.93 479.16 357.37 481.21 359.5 470.44 369.89"/>
  <polygon class="cls-5" points="594.54 369.89 466.18 369.89 479.16 357.37 481.21 359.5 473.5 366.93 593.35 366.93 603.26 357.37 605.32 359.5 594.54 369.89"/>
  <rect class="cls-5" x="105.27" y="444.4" width="29.18" height="2.95"/>
  <rect class="cls-5" x="113.03" y="453.26" width="21.42" height="2.95"/>
  <rect class="cls-5" x="503.45" y="456.32" width="14.77" height="2.95"/>
  <rect class="cls-2" y="336.46" width="960.36" height="3.69"/>
  <g>
    <g>
      <rect class="cls-1" x="346.14" y="215.49" width="22.3" height="142.95"/>
      <path class="cls-2" d="M370.28,360.28h-25.99V213.65h25.99v146.64Zm-22.3-3.69h18.6V217.34h-18.6v139.25Z"/>
    </g>
    <g>
      <polygon class="cls-4" points="360.28 201.09 386.39 206.02 386.39 358.44 360.28 358.44 360.28 201.09"/>
      <path class="cls-2" d="M388.23,360.28h-29.8V198.86l29.8,5.63v155.79Zm-26.1-3.69h22.41V207.55l-22.41-4.24v153.28Z"/>
    </g>
    <g>
      <polygon class="cls-4" points="352.16 201.09 326.05 206.02 326.05 358.44 352.16 358.44 352.16 201.09"/>
      <path class="cls-2" d="M354,360.28h-29.8V204.49l29.8-5.63v161.43Zm-26.1-3.69h22.41V203.32l-22.41,4.24v149.04Z"/>
    </g>
  </g>
  <g>
    <g>
      <polygon class="cls-1" points="636 206.82 584.39 206.82 587.07 358.44 638.67 358.44 636 206.82"/>
      <path class="cls-2" d="M640.55,360.28h-55.3l-.03-1.81-2.71-153.5h55.3l.03,1.81,2.71,153.5Zm-51.67-3.69h47.91l-2.61-147.92h-47.91l2.61,147.92Z"/>
    </g>
    <g>
      <polygon class="cls-4" points="623.25 358.44 571.65 358.44 576.53 201.09 628.13 201.09 623.25 358.44"/>
      <path class="cls-2" d="M625.04,360.28h-55.3l4.99-161.05h55.3l-4.99,161.05Zm-51.49-3.69h47.9l4.77-153.66h-47.91l-4.76,153.66Z"/>
    </g>
  </g>
  <g>
    <g>
      <polygon class="cls-1" points="240.25 204.78 278.51 168.58 278.51 358.44 240.25 358.44 240.25 204.78"/>
      <path class="cls-2" d="M280.35,360.28h-41.95V203.99l41.95-39.69v195.99Zm-38.26-3.69h34.56V172.87l-34.56,32.7v151.02Z"/>
    </g>
    <g>
      <polygon class="cls-4" points="230.64 204.78 268.9 168.58 268.9 358.44 230.64 358.44 230.64 204.78"/>
      <path class="cls-2" d="M270.75,360.28h-41.95V203.99l41.95-39.69v195.99Zm-38.26-3.69h34.56V172.87l-34.56,32.7v151.02Z"/>
    </g>
  </g>
  <g>
    <g>
      <polygon class="cls-6" points="467.81 81.41 470.58 99.14 489.97 99.14 492.74 81.41 467.81 81.41"/>
      <path class="cls-2" d="M491.55,100.99h-22.55l-3.35-21.42h29.25l-3.35,21.42Zm-19.39-3.69h16.23l2.19-14.04h-20.61l2.19,14.04Z"/>
    </g>
    <g>
      <polygon class="cls-6" points="505.34 303.03 505.15 303.03 455.21 303.03 455.03 303.03 437.33 358.44 444.89 358.44 515.47 358.44 523.03 358.44 505.34 303.03"/>
      <path class="cls-2" d="M525.56,360.28h-90.75l18.87-59.1h53.01l18.87,59.1Zm-85.69-3.69h80.64l-16.51-51.71h-47.61l-16.51,51.71Z"/>
    </g>
    <g>
      <polygon class="cls-6" points="444.89 99.14 455.21 133.12 505.34 133.12 515.66 99.14 444.89 99.14"/>
      <path class="cls-2" d="M506.71,134.97h-52.86l-11.44-37.68h75.75l-11.44,37.68Zm-50.13-3.69h47.39l9.2-30.29h-65.78l9.2,30.29Z"/>
    </g>
    <g>
      <polygon class="cls-6" points="444.89 133.12 455.21 167.1 505.34 167.1 515.66 133.12 444.89 133.12"/>
      <path class="cls-2" d="M506.71,168.95h-52.86l-11.44-37.68h75.75l-11.44,37.68Zm-50.13-3.69h47.39l9.2-30.29h-65.78l9.2,30.29Z"/>
    </g>
    <g>
      <polygon class="cls-6" points="444.89 167.1 455.21 201.09 505.34 201.09 515.66 167.1 444.89 167.1"/>
      <path class="cls-2" d="M506.71,202.93h-52.86l-11.44-37.68h75.75l-11.44,37.68Zm-50.13-3.69h47.39l9.2-30.29h-65.78l9.2,30.29Z"/>
    </g>
    <g>
      <polygon class="cls-6" points="444.89 201.09 455.21 235.07 505.34 235.07 515.66 201.09 444.89 201.09"/>
      <path class="cls-2" d="M506.71,236.92h-52.86l-11.44-37.68h75.75l-11.44,37.68Zm-50.13-3.69h47.39l9.2-30.29h-65.78l9.2,30.29Z"/>
    </g>
    <g>
      <polygon class="cls-6" points="444.89 235.07 455.21 269.05 505.34 269.05 515.66 235.07 444.89 235.07"/>
      <path class="cls-2" d="M506.71,270.9h-52.86l-11.44-37.68h75.75l-11.44,37.68Zm-50.13-3.69h47.39l9.2-30.29h-65.78l9.2,30.29Z"/>
    </g>
    <g>
      <polygon class="cls-6" points="444.89 269.05 455.21 303.03 505.34 303.03 515.66 269.05 444.89 269.05"/>
      <path class="cls-2" d="M506.71,304.88h-52.86l-11.44-37.68h75.75l-11.44,37.68Zm-50.13-3.69h47.39l9.2-30.29h-65.78l9.2,30.29Z"/>
    </g>
    <rect class="cls-2" x="477.6" y="269.05" width="5.17" height="5.91"/>
    <rect class="cls-2" x="477.6" y="235.07" width="5.17" height="5.91"/>
    <rect class="cls-2" x="477.6" y="201.09" width="5.17" height="5.91"/>
    <rect class="cls-2" x="477.6" y="167.1" width="5.17" height="5.91"/>
    <rect class="cls-2" x="477.6" y="133.12" width="5.17" height="5.91"/>
    <rect class="cls-2" x="477.6" y="99.14" width="5.17" height="5.91"/>
    <g>
      <circle class="cls-1" cx="480.18" cy="303.03" r="8.3"/>
      <path class="cls-2" d="M480.18,313.18c-5.59,0-10.14-4.55-10.14-10.14s4.55-10.14,10.14-10.14,10.14,4.55,10.14,10.14-4.55,10.14-10.14,10.14Zm0-16.59c-3.56,0-6.45,2.89-6.45,6.45s2.89,6.45,6.45,6.45,6.45-2.89,6.45-6.45-2.89-6.45-6.45-6.45Z"/>
    </g>
    <rect class="cls-2" x="477.97" y="59.25" width="5.17" height="22.16"/>
  </g>
  <g>
    <rect class="cls-2" x="590.25" y="98.03" width="64.27" height="4.43" transform="translate(1244.78 200.5) rotate(180)"/>
    <rect class="cls-2" x="577.33" y="98.03" width="4.43" height="4.43" transform="translate(1159.09 200.5) rotate(180)"/>
    <rect class="cls-2" x="672.25" y="140.14" width="64.27" height="4.43"/>
    <rect class="cls-2" x="745.02" y="140.14" width="4.43" height="4.43"/>
  </g>
  <g>
    <rect class="cls-2" x="223.84" y="98.03" width="64.27" height="4.43" transform="translate(511.95 200.5) rotate(180)"/>
    <rect class="cls-2" x="210.91" y="98.03" width="4.43" height="4.43" transform="translate(426.25 200.5) rotate(180)"/>
    <rect class="cls-2" x="305.84" y="140.14" width="64.27" height="4.43"/>
    <rect class="cls-2" x="378.6" y="140.14" width="4.43" height="4.43"/>
  </g>
  <g>
    <g>
      <polygon class="cls-4" points="504.01 434.69 405.01 434.69 405.01 417.83 413.51 403.5 504.01 403.5 504.01 434.69"/>
      <path class="cls-2" d="M505.48,436.16h-101.95v-18.74l9.13-15.4h92.81v34.14Zm-98.99-2.95h96.04v-28.23h-88.18l-7.86,13.25v14.98Z"/>
    </g>
    <g>
      <circle class="cls-1" cx="417.2" cy="434.53" r="3.83"/>
      <path class="cls-2" d="M417.2,439.84c-2.93,0-5.31-2.38-5.31-5.31s2.38-5.31,5.31-5.31,5.31,2.38,5.31,5.31-2.38,5.31-5.31,5.31Zm0-7.66c-1.3,0-2.35,1.05-2.35,2.35s1.06,2.35,2.35,2.35,2.35-1.05,2.35-2.35-1.05-2.35-2.35-2.35Z"/>
    </g>
    <g>
      <circle class="cls-1" cx="491.82" cy="434.53" r="3.83"/>
      <path class="cls-2" d="M491.82,439.84c-2.93,0-5.31-2.38-5.31-5.31s2.38-5.31,5.31-5.31,5.31,2.38,5.31,5.31-2.38,5.31-5.31,5.31Zm0-7.66c-1.3,0-2.35,1.05-2.35,2.35s1.05,2.35,2.35,2.35,2.35-1.05,2.35-2.35-1.05-2.35-2.35-2.35Z"/>
    </g>
  </g>
  <g>
    <g>
      <rect class="cls-4" x="774.89" y="395.01" width="51.02" height="39.68" transform="translate(1600.81 829.69) rotate(180)"/>
      <path class="cls-2" d="M827.39,436.16h-53.97v-42.64h53.97v42.64Zm-51.02-2.95h48.06v-36.73h-48.06v36.73Z"/>
    </g>
    <g>
      <path class="cls-4" d="M756.47,434.69h18.42v-23.8h-12.88l-5.54,9.39v14.41Z"/>
      <path class="cls-2" d="M776.37,436.16h-21.38v-16.29l6.17-10.47h15.2v26.75Zm-18.42-2.95h15.47v-20.84h-10.56l-4.91,8.32v12.53Z"/>
    </g>
    <g>
      <circle class="cls-1" cx="813.35" cy="434.53" r="3.83"/>
      <path class="cls-2" d="M813.35,439.84c-2.93,0-5.31-2.38-5.31-5.31s2.38-5.31,5.31-5.31,5.31,2.38,5.31,5.31-2.38,5.31-5.31,5.31Zm0-7.66c-1.3,0-2.35,1.05-2.35,2.35s1.05,2.35,2.35,2.35,2.35-1.05,2.35-2.35-1.05-2.35-2.35-2.35Z"/>
    </g>
    <g>
      <circle class="cls-1" cx="765.68" cy="434.53" r="3.83"/>
      <path class="cls-2" d="M765.68,439.84c-2.93,0-5.31-2.38-5.31-5.31s2.38-5.31,5.31-5.31,5.31,2.38,5.31,5.31-2.38,5.31-5.31,5.31Zm0-7.66c-1.3,0-2.35,1.05-2.35,2.35s1.05,2.35,2.35,2.35,2.35-1.05,2.35-2.35-1.05-2.35-2.35-2.35Z"/>
    </g>
  </g>
  <g>
    <g>
      <path class="cls-4" d="M284.05,410.89h-25.77l-17.82,9.39v14.41h49.13v-14.41l-5.54-9.39Z"/>
      <path class="cls-2" d="M291.06,436.16h-52.08v-16.78l18.93-9.98h26.97l6.17,10.47v16.29Zm-49.13-2.95h46.17v-12.53l-4.91-8.32h-24.56l-16.71,8.81v12.04Z"/>
    </g>
    <g>
      <circle class="cls-1" cx="280.37" cy="434.53" r="3.83"/>
      <path class="cls-2" d="M280.37,439.84c-2.93,0-5.31-2.38-5.31-5.31s2.38-5.31,5.31-5.31,5.31,2.38,5.31,5.31-2.38,5.31-5.31,5.31Zm0-7.66c-1.3,0-2.35,1.05-2.35,2.35s1.05,2.35,2.35,2.35,2.35-1.05,2.35-2.35-1.05-2.35-2.35-2.35Z"/>
    </g>
    <g>
      <circle class="cls-1" cx="254.87" cy="434.53" r="3.83"/>
      <path class="cls-2" d="M254.87,439.84c-2.93,0-5.31-2.38-5.31-5.31s2.38-5.31,5.31-5.31,5.31,2.38,5.31,5.31-2.38,5.31-5.31,5.31Zm0-7.66c-1.3,0-2.35,1.05-2.35,2.35s1.06,2.35,2.35,2.35,2.35-1.05,2.35-2.35-1.05-2.35-2.35-2.35Z"/>
    </g>
  </g>
  <g>
    <g>
      <path class="cls-4" d="M311.75,438.22h25.77l17.82,9.39v14.41h-49.13v-14.41l5.54-9.39Z"/>
      <path class="cls-2" d="M356.81,463.5h-52.08v-16.29l6.17-10.47h26.97l18.93,9.98v16.78Zm-49.13-2.95h46.17v-12.04l-16.71-8.81h-24.56l-4.91,8.32v12.53Z"/>
    </g>
    <g>
      <circle class="cls-1" cx="315.42" cy="461.86" r="3.83"/>
      <path class="cls-2" d="M315.42,467.17c-2.93,0-5.31-2.38-5.31-5.31s2.38-5.31,5.31-5.31,5.31,2.38,5.31,5.31-2.38,5.31-5.31,5.31Zm0-7.66c-1.3,0-2.35,1.05-2.35,2.35s1.05,2.35,2.35,2.35,2.35-1.05,2.35-2.35-1.05-2.35-2.35-2.35Z"/>
    </g>
    <g>
      <circle class="cls-1" cx="340.93" cy="461.86" r="3.83"/>
      <path class="cls-2" d="M340.93,467.17c-2.93,0-5.31-2.38-5.31-5.31s2.38-5.31,5.31-5.31,5.31,2.38,5.31,5.31-2.38,5.31-5.31,5.31Zm0-7.66c-1.3,0-2.35,1.05-2.35,2.35s1.05,2.35,2.35,2.35,2.35-1.05,2.35-2.35-1.05-2.35-2.35-2.35Z"/>
    </g>
  </g>
  <g>
    <g>
      <rect class="cls-4" x="600.6" y="423.08" width="18.84" height="11.82"/>
      <path class="cls-2" d="M620.91,436.38h-21.79v-14.77h21.79v14.77Zm-18.84-2.95h15.88v-8.86h-15.88v8.86Z"/>
    </g>
    <g>
      <polygon class="cls-4" points="592.15 434.9 585.08 434.9 591.31 412 598.38 412 592.15 434.9"/>
      <path class="cls-2" d="M593.28,436.38h-10.13l7.03-25.86h10.13l-7.03,25.86Zm-6.27-2.95h4.01l5.42-19.95h-4.01l-5.42,19.95Z"/>
    </g>
    <rect class="cls-2" x="583.97" y="433.42" width="18.47" height="2.95"/>
    <g>
      <circle class="cls-1" cx="610.02" cy="434.53" r="3.83"/>
      <path class="cls-2" d="M610.02,439.84c-2.93,0-5.31-2.38-5.31-5.31s2.38-5.31,5.31-5.31,5.31,2.38,5.31,5.31-2.38,5.31-5.31,5.31Zm0-7.66c-1.3,0-2.35,1.05-2.35,2.35s1.05,2.35,2.35,2.35,2.35-1.05,2.35-2.35-1.05-2.35-2.35-2.35Z"/>
    </g>
    <g>
      <circle class="cls-1" cx="586.56" cy="434.53" r="3.83"/>
      <path class="cls-2" d="M586.56,439.84c-2.93,0-5.31-2.38-5.31-5.31s2.38-5.31,5.31-5.31,5.31,2.38,5.31,5.31-2.38,5.31-5.31,5.31Zm0-7.66c-1.3,0-2.35,1.05-2.35,2.35s1.05,2.35,2.35,2.35,2.35-1.05,2.35-2.35-1.05-2.35-2.35-2.35Z"/>
    </g>
  </g>
  <g>
    <g>
      <rect class="cls-4" x="525.25" y="450.41" width="18.84" height="11.82" transform="translate(1069.33 912.64) rotate(180)"/>
      <path class="cls-2" d="M545.56,463.71h-21.79v-14.77h21.79v14.77Zm-18.84-2.95h15.88v-8.86h-15.88v8.86Z"/>
    </g>
    <g>
      <polygon class="cls-4" points="552.53 462.23 559.6 462.23 553.37 439.33 546.3 439.33 552.53 462.23"/>
      <path class="cls-2" d="M561.53,463.71h-10.13l-7.03-25.86h10.13l7.03,25.86Zm-7.87-2.95h4.01l-5.42-19.95h-4.01l5.42,19.95Z"/>
    </g>
    <rect class="cls-2" x="542.24" y="460.75" width="18.47" height="2.95"/>
    <g>
      <circle class="cls-1" cx="534.66" cy="461.86" r="3.83"/>
      <path class="cls-2" d="M534.66,467.17c-2.93,0-5.31-2.38-5.31-5.31s2.38-5.31,5.31-5.31,5.31,2.38,5.31,5.31-2.38,5.31-5.31,5.31Zm0-7.66c-1.3,0-2.35,1.05-2.35,2.35s1.05,2.35,2.35,2.35,2.35-1.05,2.35-2.35-1.05-2.35-2.35-2.35Z"/>
    </g>
    <g>
      <circle class="cls-1" cx="558.12" cy="461.86" r="3.83"/>
      <path class="cls-2" d="M558.12,467.17c-2.93,0-5.31-2.38-5.31-5.31s2.38-5.31,5.31-5.31,5.31,2.38,5.31,5.31-2.38,5.31-5.31,5.31Zm0-7.66c-1.3,0-2.35,1.05-2.35,2.35s1.05,2.35,2.35,2.35,2.35-1.05,2.35-2.35-1.05-2.35-2.35-2.35Z"/>
    </g>
  </g>
  <g>
    <g>
      <rect class="cls-4" x="142.58" y="422.34" width="51.02" height="39.68"/>
      <path class="cls-2" d="M195.07,463.5h-53.97v-42.64h53.97v42.64Zm-51.02-2.95h48.06v-36.73h-48.06v36.73Z"/>
    </g>
    <g>
      <path class="cls-4" d="M212.02,462.02h-18.42v-23.8h12.88l5.54,9.39v14.41Z"/>
      <path class="cls-2" d="M213.5,463.5h-21.38v-26.75h15.2l6.17,10.47v16.29Zm-18.42-2.95h15.47v-12.53l-4.91-8.32h-10.56v20.84Z"/>
    </g>
    <g>
      <circle class="cls-1" cx="155.14" cy="461.86" r="3.83"/>
      <path class="cls-2" d="M155.14,467.17c-2.93,0-5.31-2.38-5.31-5.31s2.38-5.31,5.31-5.31,5.31,2.38,5.31,5.31-2.38,5.31-5.31,5.31Zm0-7.66c-1.3,0-2.35,1.05-2.35,2.35s1.06,2.35,2.35,2.35,2.35-1.05,2.35-2.35-1.05-2.35-2.35-2.35Z"/>
    </g>
    <g>
      <circle class="cls-1" cx="202.81" cy="461.86" r="3.83"/>
      <path class="cls-2" d="M202.81,467.17c-2.93,0-5.31-2.38-5.31-5.31s2.38-5.31,5.31-5.31,5.31,2.38,5.31,5.31-2.38,5.31-5.31,5.31Zm0-7.66c-1.3,0-2.35,1.05-2.35,2.35s1.05,2.35,2.35,2.35,2.35-1.05,2.35-2.35-1.05-2.35-2.35-2.35Z"/>
    </g>
  </g>
  <g>
    <g>
      <polygon class="cls-4" points="645.11 462.02 744.1 462.02 744.1 445.16 735.6 430.83 645.11 430.83 645.11 462.02"/>
      <path class="cls-2" d="M745.57,463.5h-101.95v-34.14h92.82l9.13,15.4v18.74Zm-98.99-2.95h96.04v-14.98l-7.86-13.25h-88.18v28.23Z"/>
    </g>
    <g>
      <circle class="cls-1" cx="731.91" cy="461.86" r="3.83"/>
      <path class="cls-2" d="M731.91,467.17c-2.93,0-5.31-2.38-5.31-5.31s2.38-5.31,5.31-5.31,5.31,2.38,5.31,5.31-2.38,5.31-5.31,5.31Zm0-7.66c-1.3,0-2.35,1.05-2.35,2.35s1.05,2.35,2.35,2.35,2.35-1.05,2.35-2.35-1.05-2.35-2.35-2.35Z"/>
    </g>
    <g>
      <circle class="cls-1" cx="657.29" cy="461.86" r="3.83"/>
      <path class="cls-2" d="M657.29,467.17c-2.93,0-5.31-2.38-5.31-5.31s2.38-5.31,5.31-5.31,5.31,2.38,5.31,5.31-2.38,5.31-5.31,5.31Zm0-7.66c-1.3,0-2.35,1.05-2.35,2.35s1.05,2.35,2.35,2.35,2.35-1.05,2.35-2.35-1.05-2.35-2.35-2.35Z"/>
    </g>
  </g>
  <g>
    <g>
      <rect class="cls-4" x="838.17" y="305.25" width="28.81" height="53.19"/>
      <path class="cls-2" d="M868.46,359.92h-31.77v-56.14h31.77v56.14Zm-28.81-2.95h25.86v-50.23h-25.86v50.23Z"/>
    </g>
    <polygon class="cls-2" points="854.26 330.26 851.44 329.36 852.77 325.19 848.34 325.19 850.89 317.17 853.71 318.07 852.38 322.24 856.81 322.24 854.26 330.26"/>
  </g>
  <g>
    <g>
      <polygon class="cls-1" points="195.39 314.85 132.6 314.85 124.99 358.44 187.78 358.44 195.39 314.85"/>
      <path class="cls-2" d="M189.02,359.92H123.23l8.12-46.54h65.79l-8.12,46.54Zm-62.28-2.95h59.79l7.09-40.63h-59.79l-7.09,40.63Z"/>
    </g>
    <g>
      <g>
        <polygon class="cls-4" points="124.87 319.86 118.13 358.44 182.43 358.44 189.16 319.86 124.87 319.86"/>
        <path class="cls-2" d="M183.67,359.92H116.37l7.25-41.53h67.3l-7.25,41.53Zm-63.78-2.95h61.3l6.22-35.62h-61.3l-6.22,35.62Z"/>
      </g>
      <g>
        <rect class="cls-2" x="122.62" y="331.02" width="64.27" height="2.95"/>
        <rect class="cls-2" x="120.4" y="344.32" width="64.27" height="2.95"/>
      </g>
      <g>
        <rect class="cls-2" x="122.7" y="337.67" width="38.99" height="2.95" transform="translate(-216.22 421.47) rotate(-80.19)"/>
        <rect class="cls-2" x="145.6" y="337.67" width="38.99" height="2.95" transform="translate(-197.23 444.04) rotate(-80.19)"/>
      </g>
    </g>
  </g>
  <g>
    <g>
      <path class="cls-1" d="M688.14,321.5v36.2c0,3.06,10.09,5.54,22.53,5.54s22.53-2.48,22.53-5.54v-36.2h-45.06Z"/>
      <path class="cls-2" d="M710.67,365.09c-9.05,0-24.38-1.56-24.38-7.39v-38.05h48.76v38.05c0,5.83-15.32,7.39-24.38,7.39Zm-20.68-7.48c.82,1.39,8.29,3.79,20.68,3.79s19.86-2.4,20.68-3.79v-34.26h-41.37v34.26Z"/>
    </g>
    <g>
      <ellipse class="cls-1" cx="710.67" cy="320.02" rx="22.53" ry="5.54"/>
      <path class="cls-2" d="M710.67,327.41c-9.05,0-24.38-1.56-24.38-7.39s15.32-7.39,24.38-7.39,24.38,1.56,24.38,7.39-15.32,7.39-24.38,7.39Zm-20.62-7.39c1.1,1.4,8.51,3.69,20.62,3.69s19.52-2.3,20.62-3.69c-1.1-1.4-8.51-3.69-20.62-3.69s-19.52,2.3-20.62,3.69Z"/>
    </g>
    <g>
      <path class="cls-4" d="M688.14,212.91v98.25c0,3.06,10.09,5.54,22.53,5.54s22.53-2.48,22.53-5.54v-98.25h-45.06Z"/>
      <path class="cls-2" d="M710.67,318.55c-9.05,0-24.38-1.56-24.38-7.39v-100.1h48.76v100.1c0,5.83-15.32,7.39-24.38,7.39Zm-20.68-7.48c.82,1.39,8.29,3.79,20.68,3.79s19.86-2.4,20.68-3.79v-96.31h-41.37v96.31Z"/>
    </g>
    <g>
      <ellipse class="cls-4" cx="710.67" cy="211.06" rx="22.53" ry="5.54"/>
      <path class="cls-2" d="M710.67,218.45c-9.05,0-24.38-1.56-24.38-7.39s15.32-7.39,24.38-7.39,24.38,1.56,24.38,7.39-15.32,7.39-24.38,7.39Zm-20.62-7.39c1.1,1.4,8.51,3.69,20.62,3.69s19.52-2.3,20.62-3.69c-1.1-1.4-8.51-3.69-20.62-3.69s-19.52,2.3-20.62,3.69Z"/>
    </g>
  </g>
  <g>
    <g>
      <g>
        <rect class="cls-4" x="70.81" y="320.02" width="17.73" height="38.41"/>
        <path class="cls-2" d="M90.02,359.92h-20.68v-41.37h20.68v41.37Zm-17.73-2.95h14.77v-35.46h-14.77v35.46Z"/>
      </g>
      <g>
        <rect class="cls-4" x="75.98" y="315.59" width="7.39" height="4.43"/>
        <path class="cls-2" d="M84.85,321.5h-10.34v-7.39h10.34v7.39Zm-7.39-2.95h4.43v-1.48h-4.43v1.48Z"/>
      </g>
    </g>
    <polygon class="cls-2" points="81.36 343.56 78.54 342.66 79.87 338.49 75.44 338.49 77.99 330.47 80.81 331.37 79.48 335.54 83.91 335.54 81.36 343.56"/>
  </g>
  <g>
    <g>
      <polygon class="cls-1" points="795.83 358.44 788.03 358.44 790.48 288.32 791.93 288.32 793.39 288.32 795.83 358.44"/>
      <path class="cls-2" d="M797.36,359.92h-10.86l2.55-73.08h5.76l2.55,73.08Zm-7.8-2.95h4.74l-2.34-67.17h-.05l-2.34,67.17Z"/>
    </g>
    <g>
      <g>
        <polygon class="cls-4" points="784.15 289.27 792.11 288.19 785.75 283.28 761.21 276.7 759.6 282.7 784.15 289.27"/>
        <path class="cls-2" d="M784.05,290.78l-.29-.08-25.97-6.96,2.37-8.85,26.26,7.04,9.38,7.26-11.75,1.59Zm-22.64-9.13l22.83,6.12,4.17-.56-3.33-2.57-22.83-6.12-.84,3.14Z"/>
      </g>
      <g>
        <polygon class="cls-4" points="790.98 296.13 792.06 288.17 796.97 294.53 803.55 319.07 797.55 320.68 790.98 296.13"/>
        <path class="cls-2" d="M796.51,322.49l-7.04-26.26,1.59-11.75,7.26,9.38,7.04,26.26-8.85,2.37Zm-4.03-26.45l6.12,22.83,3.14-.84-6.12-22.83-2.57-3.33-.56,4.17Z"/>
      </g>
      <g>
        <polygon class="cls-4" points="795.01 280.9 791.96 288.33 799.39 285.29 817.36 267.32 812.97 262.93 795.01 280.9"/>
        <path class="cls-2" d="M789.25,291.04l4.5-10.97,19.22-19.22,6.48,6.48-19.22,19.22-10.97,4.5Zm7.01-9.3l-1.6,3.89,3.89-1.6,16.71-16.71-2.3-2.3-16.71,16.71Z"/>
      </g>
    </g>
    <g>
      <circle class="cls-1" cx="792.06" cy="288.19" r="3.56"/>
      <path class="cls-2" d="M792.06,293.23c-1.29,0-2.58-.49-3.56-1.47-1.96-1.96-1.96-5.16,0-7.12,1.96-1.96,5.16-1.96,7.12,0s1.96,5.16,0,7.12c-.98,.98-2.27,1.47-3.56,1.47Zm0-7.11c-.53,0-1.07,.2-1.47,.61-.81,.81-.81,2.13,0,2.94s2.13,.81,2.94,0,.81-2.13,0-2.94c-.41-.41-.94-.61-1.47-.61Z"/>
    </g>
  </g>
  <rect class="cls-2" x="282.94" y="450.54" width="16.25" height="2.95"/>
  <rect class="cls-2" x="287.26" y="458.43" width="11.93" height="2.95"/>
  <circle class="cls-3" cx="856.57" cy="372.11" r="18.47"/>
  <circle class="cls-3" cx="547.78" cy="368.41" r="18.47"/>
  <circle class="cls-3" cx="817.42" cy="263.51" r="18.47"/>
  <circle class="cls-3" cx="618.7" cy="438.59" r="18.47"/>
  <circle class="cls-3" cx="142.21" cy="462.23" r="18.47"/>
  <circle class="cls-3" cx="69.81" cy="368.41" r="18.47"/>
  <circle class="cls-3" cx="189.49" cy="317.44" r="18.47"/>
</svg>