<?xml version="1.0" encoding="UTF-8"?>
<svg id="uuid-9dd4c325-9a83-42bb-b26a-3c88581039f1" data-name="圖層 1" xmlns="http://www.w3.org/2000/svg" xmlns:xlink="http://www.w3.org/1999/xlink" viewBox="0 0 27 27">
  <defs>
    <style>
      .uuid-744983de-1691-4f70-9896-6a61330aee48 {
        fill: #0a557e;
      }
    </style>
  </defs>
  <path class="uuid-744983de-1691-4f70-9896-6a61330aee48" d="M15.62,13.5L26.56,2.56c.59-.59,.59-1.54,0-2.12-.59-.59-1.54-.59-2.12,0L13.5,11.38,2.56,.44C1.97-.15,1.03-.15,.44,.44-.15,1.02-.15,1.98,.44,2.56L11.38,13.5,.44,24.44c-.59,.59-.59,1.54,0,2.12,.29,.29,.68,.44,1.06,.44s.77-.15,1.06-.44L13.5,15.62l10.94,10.94c.29,.29,.68,.44,1.06,.44s.77-.15,1.06-.44c.59-.59,.59-1.54,0-2.12L15.62,13.5Z"/>
</svg>