<?xml version="1.0" encoding="UTF-8"?>
<svg id="uuid-2b523bf6-4ccf-43b0-8075-5b1cb1a3220f" data-name="圖層 1" xmlns="http://www.w3.org/2000/svg" viewBox="0 0 10 18">
  <path d="M4.02,18v-2.15c-.88-.2-1.65-.58-2.29-1.15-.64-.57-1.11-1.37-1.41-2.4l1.85-.75c.25,.8,.62,1.41,1.11,1.83s1.14,.63,1.94,.63c.68,0,1.26-.15,1.74-.46s.71-.79,.71-1.44c0-.58-.18-1.05-.55-1.39s-1.22-.73-2.55-1.16c-1.43-.45-2.42-.99-2.95-1.61s-.8-1.39-.8-2.29c0-1.08,.35-1.93,1.05-2.53s1.42-.94,2.15-1.03V0h2V2.1c.83,.13,1.52,.44,2.06,.91s.94,1.05,1.19,1.74l-1.85,.8c-.2-.53-.48-.93-.85-1.2s-.87-.4-1.5-.4c-.73,0-1.29,.16-1.68,.49s-.58,.73-.58,1.21c0,.55,.25,.98,.75,1.3s1.37,.65,2.6,1c1.15,.33,2.02,.86,2.61,1.59s.89,1.56,.89,2.51c0,1.18-.35,2.08-1.05,2.7-.7,.62-1.57,1-2.6,1.15v2.1h-2Z" style="fill: #ed8c37;"/>
</svg>