<?xml version="1.0" encoding="UTF-8"?>
<svg id="uuid-82b0e217-2836-4094-9134-8257ca6c1317" data-name="圖層 1" xmlns="http://www.w3.org/2000/svg" viewBox="0 0 18 18">
  <path d="M8,18v-7.98c-1.07,0-2.09-.2-3.08-.61s-1.85-.99-2.6-1.74c-.75-.75-1.33-1.62-1.73-2.6S0,3.07,0,2V0H2C3.05,0,4.07,.2,5.05,.61s1.85,.99,2.6,1.74c.52,.52,.95,1.08,1.29,1.7s.6,1.28,.79,1.98c.08-.12,.18-.23,.28-.34s.21-.22,.33-.34c.75-.75,1.62-1.33,2.6-1.74s2.01-.61,3.08-.61h2v2c0,1.07-.2,2.09-.61,3.08-.41,.98-.99,1.85-1.74,2.6-.75,.75-1.61,1.33-2.59,1.73s-2,.6-3.06,.6v5h-2Zm0-10c0-.8-.15-1.56-.46-2.29s-.75-1.37-1.31-1.94-1.21-1-1.94-1.31-1.49-.46-2.29-.46c0,.8,.15,1.57,.45,2.3,.3,.73,.73,1.38,1.3,1.95,.57,.57,1.22,1,1.95,1.3s1.5,.45,2.3,.45Zm2,3c.8,0,1.56-.15,2.29-.45s1.37-.73,1.94-1.3c.57-.57,1-1.22,1.31-1.95,.31-.73,.46-1.5,.46-2.3-.8,0-1.57,.15-2.3,.46s-1.38,.75-1.95,1.31c-.57,.57-1,1.21-1.3,1.94s-.45,1.49-.45,2.29Z" style="fill: #51a885;"/>
</svg>