<?xml version="1.0" encoding="UTF-8"?>
<svg xmlns="http://www.w3.org/2000/svg" viewBox="0 0 14 20">
  <path d="M7,20c-1.93,0-3.58-.68-4.95-2.05C.68,16.58,0,14.93,0,13V7C0,5.07,.68,3.42,2.05,2.05,3.42,.68,5.07,0,7,0s3.58,.68,4.95,2.05,2.05,3.02,2.05,4.95v6c0,1.93-.68,3.58-2.05,4.95-1.37,1.37-3.02,2.05-4.95,2.05Zm1-13h4c0-1.2-.38-2.26-1.14-3.18s-1.71-1.49-2.86-1.73V7Zm-6,0H6V2.1c-1.15,.23-2.1,.81-2.86,1.73s-1.14,1.98-1.14,3.18Zm5,11c1.38,0,2.56-.49,3.54-1.46s1.46-2.15,1.46-3.54v-4H2v4c0,1.38,.49,2.56,1.46,3.54s2.15,1.46,3.54,1.46Z" style="fill: #0a557e;"/>
</svg>